<?xml version="1.0" encoding="utf-8"?>
<!-- Generator: Adobe Illustrator 21.0.2, SVG Export Plug-In . SVG Version: 6.00 Build 0)  -->
<svg version="1.1" id="Layer_1" xmlns="http://www.w3.org/2000/svg" xmlns:xlink="http://www.w3.org/1999/xlink" x="0px" y="0px"
	 viewBox="0 0 30 30" style="enable-background:new 0 0 30 30;" xml:space="preserve">
<style type="text/css">
	.st0{fill:#D1154B;}
	.st1{opacity:0.1091;fill:#070707;}
	.st2{fill:#F4BDCF;}
	.st3{opacity:0.1091;fill:#F4BDCF;}
	.st4{fill:#510B24;}
	.st5{opacity:0.1091;fill:#681533;}
	.st6{fill:#E84279;}
	.st7{opacity:0.1797;fill:#E84279;}
	.st8{fill:url(#SVGID_1_);}
	.st9{opacity:0.1091;fill:#111111;}
	.st10{fill:url(#SVGID_2_);}
	.st11{fill:url(#SVGID_3_);}
	.st12{fill:url(#SVGID_4_);}
</style>
<g>
	<g>
		<path class="st0" d="M4.8,26.9c1.1-4,0.8-8.1,4.2-8c4.1-0.9,9.6,0.4,12,0c3.3,0.8,3.4,1.3,4,4c1,4.2,1.1,4.1,1.1,4.1L4.8,26.9z"/>
		<g>
			<g>
				<path class="st1" d="M5.5,23.4c0.1-0.5,0.2-1,0.3-1.5c0,0-0.1-0.1-0.1-0.1c-0.1,0.5-0.2,1-0.3,1.5C5.4,23.3,5.5,23.3,5.5,23.4z"
					/>
				<path class="st1" d="M5,26.4c0.4-1.6,0.6-3.3,1.1-4.9c0.1-0.4,0.3-0.9,0.4-1.3c1-1.2,2.3-1.7,3.7-1.7c3.6-0.4,7.2,0.5,10.8,0.3
					c0,0,0.1-0.1,0.1-0.1c-2.6,0.1-5.1-0.3-7.6-0.4c-1.5-0.1-2.9,0-4.4,0.2c-0.4,0-0.9,0-1.3,0.1c-0.8,0.3-1.2,0.9-1.6,1.6
					c-0.9,1.8-1,4.2-1.5,6.1C4.8,26.5,5,26.5,5,26.4z"/>
				<path class="st1" d="M5.3,26.3c0.3-1.4,0.6-2.7,0.9-4.1c0.2-2.1,1.9-2.8,5-2.2c2.2-1.3,4.5-1.7,6.9-1.3c2.2,0.2,5.2-0.2,6.5,2
					c0,0,0.1-0.1,0.1-0.1c-1-1.8-3-2-5-2.1c-3.5-0.1-6.8-0.5-10.3-0.2c-1,0.1-1.5,0.1-2.3,0.8c-0.3,0.3-0.5,0.7-0.7,1.1
					c-0.9,1.8-1,4.2-1.5,6.1C4.9,26.6,5.3,26.4,5.3,26.3z"/>
				<path class="st1" d="M5.3,27.1c0.3-1.4,0.6-2.7,0.9-4.1c0.1-0.5,0.2-0.9,0.4-1.4c0.1-0.8,0.6-1.3,1.5-1.5c1.6-1.3,3.5-1.6,5.7-1
					c0.8,0.1,1.5,0.1,2.3,0.2c1.5,0.1,3.1,0.4,4.6,0.3c0.5-0.1,0.9,0,1.4,0.2c1,0.1,1.6,0.8,1.8,2c1,1,1.5,2.2,1.5,3.6
					c0.1,0.4,0.2,0.8,0.3,1.2c0.1,0.3,0.1,1,0.3,1.2c0-0.1,0.1-0.2,0.1-0.4c-3.6,0.1-7.2-0.2-10.8-0.3C11.9,27.1,8.3,27,4.8,27
					c0,0-0.1,0.1-0.1,0.1c3.1,0.1,6.3,0.1,9.4,0.2c2.4,0,4.7,0.1,7.1,0.1c1.5,0,3.4-0.2,4.9,0.4c0.1,0,0.2-0.3,0.1-0.4
					c-0.4-0.2-0.7-2.8-0.8-3.2c-0.2-0.9-0.3-1.9-0.7-2.8c-0.5-1.2-1.6-1.6-2.8-2c-1-0.3-2-0.1-3-0.2c-1.4-0.1-2.7-0.2-4.1-0.3
					c-1.1-0.1-2.2-0.1-3.3-0.1c-1,0.1-2.3,0-3.3,0.4c-0.3,0.1-0.8,0.4-1,0.7c-0.7,0.8-1,2-1.2,3c-0.3,1.4-0.6,2.7-0.9,4.1
					C5.1,27.2,5.3,27.2,5.3,27.1z"/>
				<path class="st1" d="M4.9,26.9c0.3-1.1,0.5-2.2,0.7-3.4c0.2-1,0.4-1.9,0.7-2.8c1.3-1.4,3-2,4.8-1.8c1.5-0.2,2.9-0.1,4.4,0.1
					c1.3,0.1,2.6,0.2,3.9,0.3c1.5-0.4,2.6,0.2,3.3,1.9c1.5,0.9,2.2,2.2,2.2,3.8c0.1,0.6,0.3,1.3,0.4,1.9c0.2,0.4,0.1,0.5-0.1,0.2
					c-0.3,0-0.7,0-1,0c-2.7-0.1-5.4-0.1-8.2-0.2c-4-0.1-7.9-0.1-11.9-0.2c-0.2,0,0,0.3,0.1,0.3c3.5,0.1,7.1,0.1,10.6,0.1
					c2.2,0,4.5,0.1,6.7,0.1c1.3,0,2.6,0,3.8,0.3c0.1,0,0.2-0.3,0.1-0.4c-0.5-0.7-0.6-2.4-0.8-3.2c-0.2-0.9-0.3-2-0.7-2.9
					c-0.5-1.2-1.6-1.5-2.7-1.9c-1-0.3-2-0.1-3-0.2c-1.4-0.1-2.7-0.2-4.1-0.3c-1.1-0.1-2.3-0.1-3.4-0.1c-1,0.1-2.4,0-3.3,0.4
					c-0.3,0.1-0.8,0.4-1,0.7c-0.7,0.7-1,2.1-1.2,3c-0.3,1.4-0.6,2.7-0.9,4.1C4.7,27,4.9,27,4.9,26.9z"/>
				<path class="st1" d="M25.4,25.8c0-0.2,0.3,1.1,0.3,1.2c-0.4-0.1-0.9-0.2-1.3-0.2c-1.1-0.1-2.3-0.1-3.4-0.2
					c-5.5-0.3-11-0.2-16.6-0.4c-0.2,0,0.1,0.3,0.2,0.3c7.1,0.2,14.2,0.1,21.2,0.5c0,0,0,0,0,0c-0.1-0.1-0.3-1.3-0.3-1.2
					C25.6,25.8,25.4,25.8,25.4,25.8z"/>
				<path class="st1" d="M5.3,26.7c0.3-1.1,0.5-2.2,0.7-3.4c0.3-3.4,2.9-5,7.7-4.6c2.1-0.1,4.1,0.4,6.2,0.5c1-0.2,1.9-0.1,2.8,0.3
					c1.6,1.5,2.6,3.3,2.8,5.4c0,0.1,0.7,2.1,0.5,2.3c0,0,0,0.1,0,0.1c-0.3-0.4-0.7-0.5-1.3-0.3c-2.3-0.1-4.6-0.1-6.9-0.2
					c-4.4-0.1-8.7-0.1-13.1-0.2c-0.2,0,0,0.2,0.1,0.2c3.5,0.1,7.1,0.1,10.6,0.1c2.2,0,4.5,0.1,6.7,0.1c1.3,0,2.6,0,3.9,0.3
					c0.1,0,0.2-0.3,0.1-0.3C26,27,26,26.4,25.9,26.3c-0.2-0.8-0.4-1.6-0.6-2.4c-0.2-0.9-0.3-2-0.7-2.9c-1-2.2-3.9-1.9-5.9-2
					c-2.5-0.1-5-0.5-7.5-0.3c-1,0.1-2.4,0-3.3,0.4c-0.8,0.3-1.2,1-1.6,1.7c-0.9,1.8-1,4.2-1.5,6.2C4.8,27,5.2,26.8,5.3,26.7z"/>
				<path class="st1" d="M25.7,26.9c-7-0.6-14-0.4-21-0.7c-0.2,0,0,0.2,0.1,0.2c7,0.1,14,0.2,21,0.5C25.8,26.9,25.7,26.9,25.7,26.9z
					"/>
				<path class="st1" d="M23.7,20.4c1,1.8,1.1,4.1,1.6,6.1c0.3,1.3,0.3,0.7-1.1,0.6c-6.7-0.4-13.4-0.3-20-0.6
					c-0.2,0,0.1,0.3,0.2,0.3c3.1,0.1,6.2,0.1,9.4,0.1c2.3,0,4.7,0.1,7,0.1c1.6,0.1,3.3,0,4.8,0.3c0.1,0,0.2-0.1,0.1-0.2
					c-0.6-0.8-0.6-2.2-0.8-3.2c-0.3-1.3-0.4-2.5-1.1-3.7C23.8,20.3,23.7,20.4,23.7,20.4z"/>
				<path class="st1" d="M5,27.2c0.5-2.2,0.6-5.3,2.1-7.1c0.8-0.9,3.3-0.9,4.2-0.9c1.9-0.1,3.7,0.1,5.5,0.3c0.7,0.1,1.3,0.1,2,0.2
					c0.8,0.1,1.6,0.1,2.4,0c1.2,1.3,2.4,2.7,3.7,4c0.2,0.8,0.3,1.6,0.5,2.4c0.1,0.4,0.1,1.5,0.5,1.8c0-0.1,0.1-0.3,0.1-0.4
					c-3.6,0.1-7.2-0.2-10.8-0.3c-3.5-0.1-7.1-0.1-10.6-0.2c0,0-0.1,0.1-0.1,0.1c3.1,0.1,6.3,0.1,9.4,0.2c2.4,0,4.7,0.1,7.1,0.1
					c1.5,0,3.5-0.2,4.9,0.4c0.1,0,0.2-0.4,0.1-0.4c-0.1-0.4-0.3-0.7-0.3-1.1c-0.2-1-0.5-1.9-0.7-2.9c-0.1-0.6-0.2-1.5-0.5-2
					c-0.2-0.6-0.5-0.9-1.1-1.3c-1.7-1.1-3.7-0.7-5.6-0.8c-2.2-0.2-4.3-0.5-6.5-0.4c-1.9,0.1-4,0-4.9,1.9c-0.9,1.8-1,4.2-1.5,6.2
					C4.9,27.1,5,27.1,5,27.2z"/>
				<path class="st1" d="M5.5,26.7c0.7-3,0.5-6.1,3.9-7.7c2.3-0.3,4.6-0.3,6.8-0.1c1.3,0.1,2.6,0.2,3.9,0.3c1-0.2,1.9-0.1,2.8,0.3
					c1.6,1.5,2.5,3.3,2.7,5.4c0,0,0.5,1.9,0.5,2.1c-0.1,0.6,0.5-0.1-0.2,0.1C25,27.1,24.2,27,23.3,27c-1.4-0.1-2.8-0.1-4.2-0.2
					c-4.8-0.1-9.5-0.1-14.3-0.2c-0.1,0-0.1,0.2,0,0.2c3.1,0.1,6.3,0.1,9.4,0.1c2.4,0,4.7,0.1,7.1,0.2c1.6,0.1,3.3,0,4.9,0.3
					c0.1,0,0.1-0.1,0.1-0.2c-0.9-1.9-0.7-4.3-1.5-6.2c-0.2-0.6-0.6-1-1.1-1.3c-1.5-0.9-3.1-0.7-4.8-0.8c-2.5-0.1-5-0.5-7.4-0.3
					c-0.9,0.1-2.5,0-3.3,0.4c-0.8,0.3-1.3,1-1.7,1.7c-0.9,1.8-1,4.2-1.5,6.2C5,27,5.5,26.8,5.5,26.7z"/>
				<path class="st1" d="M4.9,26.5c0.3-1.4,0.6-2.7,0.9-4.1C5.8,22,6,21.5,6.1,21c0.1-0.8,0.6-1.3,1.5-1.5c1-0.9,2.1-1.2,3.4-1
					c0.7,0,1.5,0,2.2,0c1.4,0.1,2.9,0.2,4.3,0.3c2,0.2,5.5-0.3,6.5,2c0.7,1.6,0.8,3.7,1.2,5.4c0,0,0.2,0.7,0.2,0.8
					c-0.2,0.3,1.2-0.5-0.3-0.1c-0.1,0-0.9-0.1-1-0.1c-0.8,0-1.7-0.1-2.5-0.1c-5.8-0.2-11.7-0.2-17.5-0.4c-0.1,0,0.2,0.3,0.3,0.3
					c7,0.3,14.2-0.4,21.2,0.5c0,0,0.1-0.1,0.1-0.1c-0.4-0.4-0.5-2-0.6-2.4c-0.3-1.2-0.4-2.7-0.9-3.9c-0.5-1.2-2-1.9-3.3-2
					c-0.5-0.1-1,0-1.5,0.1c-1,0-1.9-0.1-2.9-0.2c-2.6-0.2-5.1-0.3-7.7-0.1C7.6,18.7,8,18.5,7.3,19c-0.7,0.4-0.6,0.4-1.1,1.3
					c-0.9,1.8-1,4.2-1.5,6.1C4.7,26.6,4.9,26.6,4.9,26.5z"/>
				<path class="st1" d="M5.1,26.5c0.7-3,0.6-6.2,4-7.7c2.2-0.3,4.5-0.3,6.7-0.1c0.7,0.1,1.4,0.1,2.1,0.2c2.6-0.1,4.8,0.8,6.7,2.9
					c0.2,1,0.4,2,0.6,3c0,0.1,0.7,2.1,0.6,2.3c0-0.1-1.2-0.1-1.2-0.1c-2.3-0.1-4.6-0.2-6.9-0.3c-4.4-0.1-8.7-0.1-13.1-0.3
					c-0.2,0,0.1,0.3,0.2,0.3c7,0.3,14.2-0.4,21.1,0.5c0.1,0,0.1-0.1,0-0.2c-0.1-0.1-0.2-0.6-0.2-0.8c-0.2-0.8-0.4-1.6-0.5-2.4
					c-0.2-1.1-0.3-2.7-1.1-3.6c-1.3-1.6-3.6-1.3-5.4-1.4c-2.5-0.1-5-0.5-7.5-0.4c-1,0.1-2.5,0-3.4,0.4c-0.7,0.3-1.2,1-1.6,1.7
					c-0.9,1.8-1,4.2-1.5,6.2C4.8,26.7,5.1,26.6,5.1,26.5z"/>
				<path class="st1" d="M5.5,26.9c0.3-1.1,0.5-2.2,0.7-3.4c0.3-3.4,2.9-5,7.7-4.6c2.1-0.1,4.1,0.5,6.2,0.5c1-0.2,1.9-0.1,2.8,0.3
					c1.4,1.3,2.3,2.8,2.5,4.5c0.1,0.7,0.3,1.4,0.5,2.1c0.1,0.4,0.2,0.7,0.3,1.1c0,0.1,0,0.1,0.1,0.1c-0.4-0.1-0.9-0.2-1.3-0.3
					c-2.6-0.5-5.5-0.2-8.1-0.3c-3.9-0.1-7.9-0.1-11.8-0.2c0,0-0.1,0.1-0.1,0.1C8.4,27,12,27,15.5,27.1c2.3,0,4.6,0.1,6.8,0.2
					c1.3,0,2.7-0.1,3.9,0.3c0.1,0,0.2-0.2,0.1-0.3c-0.4-0.2-1-4.1-1-4.1c-0.1-0.6-0.2-1.4-0.5-2c-0.1-0.3-0.3-0.6-0.5-0.8
					c-1.1-1.2-3-1.2-4.5-1.2c-2.8,0-5.5-0.5-8.3-0.4c-0.9,0.1-2.5,0-3.3,0.4c-0.8,0.3-1.3,0.9-1.6,1.7c-0.8,1.9-1,4.2-1.5,6.2
					C5.1,27.1,5.4,27,5.5,26.9z"/>
				<path class="st1" d="M13.3,18.9c2,0.1,4.1,0.2,6.1,0.5c5.3,0.7,4.9,2.9,5.7,6.4c0.1,0.4,0.1,1.7,0.5,1.9c0-0.1,0.1-0.2,0.1-0.3
					c-7.1-0.3-14.3-0.3-21.5-0.6c-0.2,0,0,0.2,0.1,0.2C7.9,27,11.4,27,15,27.1c2.3,0,4.5,0.1,6.8,0.2c1.3,0,2.6,0,3.9,0.3
					c0.1,0,0.2-0.2,0.1-0.3c-0.1-0.2-0.2-0.6-0.2-0.8c-0.3-1.1-0.5-2.2-0.7-3.3c-0.2-0.9-0.3-2-0.9-2.8c-0.6-0.7-1.4-0.9-2.2-1.1
					c-0.8-0.2-1.3-0.1-2.1-0.1c-2,0-4.1-0.3-6.2-0.5C13.3,18.7,13.3,18.9,13.3,18.9z"/>
			</g>
		</g>
	</g>
	<g>
		<path class="st2" d="M8.4,20c1.1-0.3,1.3-0.7,6.7-0.7c-5.7,0.7-8.1,2.3-9.1,6.5C5.8,24.7,6.9,20.4,8.4,20z"/>
		<g>
			<g>
				<path class="st3" d="M8.8,20.4c0.7-0.2,1.4-0.4,2.1-0.5c0.3,0,2.5-0.3,2.5-0.2c0-0.1-3.2,1-3.7,1.3c-0.8,0.4-1.5,0.9-2.1,1.6
					c0,0-1,1.5-1,1.5c-0.5,0.2-0.2-0.4-0.2-0.6c0.4-1.3,0.9-2.4,2.2-3.2c0,0,0-0.1-0.1-0.1c-1.9,1.2-2.5,3.7-2.6,5.9
					c0,0,0.1,0.1,0.1,0c1.8-5.3,4.7-5.8,9.4-6.4c0.1,0-0.1-0.2-0.2-0.2c-2.3,0-4.5,0.1-6.7,0.7C8.5,20.3,8.7,20.4,8.8,20.4z"/>
				<path class="st3" d="M8.5,20.2c0.7-0.2,1.4-0.4,2.1-0.5c0.8-0.1,1.7-0.1,2.5-0.2c-0.6,0.2-1.1,0.4-1.7,0.6c-1.5,0.4-3,1-4.1,2.3
					c-0.9,2-1.2,2.1-0.9,0.2c0.3-1.1,0.9-2,1.9-2.6c0,0,0-0.1-0.1-0.1c-1.9,1.2-2.4,3.7-2.6,5.9c0,0.1,0.1,0.1,0.1,0
					c0.5-1.5,1-2.9,2.2-4c1.8-1.6,4.8-2.1,7.1-2.4c0.1,0,0-0.1-0.1-0.1c-2.3,0-4.5,0.1-6.7,0.7C8.3,20.1,8.5,20.3,8.5,20.2z"/>
				<path class="st3" d="M8.5,19.9c1.1-0.3,2.1-0.6,3.2-0.6c0.5,0,1,0,1.5-0.1c-0.8,0.5-1.7,0.8-2.7,0.9c-1.1,0.5-2.2,1-3,2
					c-0.1,1.2-0.5,1.7-1.3,1.5c0.3-1.5,1.1-2.8,2.4-3.9c0,0,0-0.1-0.1-0.1c-1.9,1.2-2.5,3.7-2.6,5.9c0,0,0.1,0.1,0.1,0.1
					c0.5-1.5,1-2.9,2.2-4c1.8-1.6,4.8-2,7.1-2.4c0,0,0-0.1,0.1-0.1C12.9,19.2,10.8,19.2,8.5,19.9C8.5,19.8,8.5,19.9,8.5,19.9z"/>
				<path class="st3" d="M8.7,20.2c0.7-0.2,1.4-0.4,2.1-0.5c0.6-0.1,3.2-0.3,0.8,0.4c-1.1,0.3-1.7,0.4-2.7,1.2
					c-1,0.7-1.7,1.6-2.2,2.7c-0.2-1.6,0.4-2.9,2-3.9c0.1,0-0.1-0.1-0.2,0c-1.9,1.2-2.4,3.7-2.5,5.8c0,0.1,0.1,0.1,0.1,0
					c1.5-4.5,2.7-5.5,9.3-6.4c0.1,0-0.1-0.2-0.2-0.2c-2.3,0-4.5,0.1-6.7,0.7C8.4,20,8.6,20.2,8.7,20.2z"/>
				<path class="st3" d="M8.7,19.9c0.7-0.2,1.4-0.4,2.1-0.5c0.3,0,2.5-0.2,2.5-0.2c-0.2,0.1-0.4,0.2-0.6,0.3
					c-0.7,0.2-1.4,0.4-2.1,0.6c-1.5,0.6-2.7,1.4-3.5,2.8c-1,1.5-0.1,0.6-0.7,0.8c-0.6,0-0.5-0.4,0.3-1.2c0.2-1.1,0.9-2,1.9-2.6
					c0.1,0,0-0.1-0.1-0.1c-1.9,1.2-2.5,3.7-2.6,5.9c0,0,0,0.1,0.1,0.1c0.6-3,2.2-4.8,4.8-5.3c1.4-0.7,3-1,4.5-1.1
					c0.1,0,0.1-0.1,0-0.1c-2.3,0-4.5,0-6.7,0.7C8.6,19.8,8.7,19.9,8.7,19.9z"/>
				<path class="st3" d="M12.5,19.7c-2.3,0.6-4.3,1.2-5.7,3.4c-0.4,0.6-1,1.3-0.6,0.1c0.4-1.3,0.9-2.4,2.1-3.2c0,0,0-0.1,0-0.1
					c-2,1.2-2.5,3.7-2.7,5.9c0,0.1,0.1,0.1,0.1,0c0.3-1.3,0.8-2.4,1.6-3.4C8.6,20.9,10.3,20.1,12.5,19.7
					C12.4,19.8,12.5,19.7,12.5,19.7z"/>
				<path class="st3" d="M8.6,20.4c1.1-0.3,2.1-0.5,3.2-0.6c1.7-0.2,2-0.2,0.8,0.2c-1.4,0.3-2.7,0.8-3.9,1.5
					c0.5-0.3-3.3,2.6-2.2,2.7c-0.7,0-0.7-0.4,0.1-1.3c0.3-1.1,1-2,1.9-2.6c0,0,0-0.1,0-0.1c-2,1.2-2.5,3.7-2.6,5.9
					c0,0.1,0.1,0.1,0.1,0c1.8-5.3,4.7-5.7,9.4-6.4c0.1,0,0-0.2-0.1-0.2c-2.3,0-4.5,0.1-6.7,0.7C8.4,20.3,8.6,20.4,8.6,20.4z"/>
				<path class="st3" d="M8.9,20.1c0.7-0.2,1.4-0.4,2.1-0.5c0.8-0.1,1.7-0.1,2.5-0.2c-0.9,0.3-1.9,0.6-2.8,0.9
					c-0.6,0.3-1.2,0.6-1.7,0.9c-1,0.7-1.7,1.6-2.2,2.6c-0.1,0.1-0.2,0.1-0.4,0C6.7,22.3,7.5,21,8.8,20c0.1,0-0.1-0.1-0.2,0
					c-1.9,1.2-2.4,3.7-2.5,5.8c0,0,0.1,0.1,0.1,0.1c0.5-2.6,2-4.5,4.5-5.4c1.6-0.5,3.2-0.9,4.9-1c0.1,0-0.1-0.2-0.2-0.2
					c-2.3,0-4.5,0-6.7,0.7C8.5,20,8.8,20.2,8.9,20.1z"/>
				<path class="st3" d="M8.4,20c0.7-0.2,1.4-0.4,2.1-0.5c0.3,0,3.8-0.7,2,0.1c-0.7,0.2-1.4,0.4-2.1,0.6c-1.2,0.4-2.2,1.1-3,2
					c-0.1,1.2-0.5,1.7-1.3,1.5c0.3-1.5,1.1-2.8,2.3-3.8c0,0,0-0.1-0.1-0.1c-1.9,1.2-2.5,3.7-2.6,5.9c0,0.1,0.1,0.1,0.1,0
					c0.5-1.5,1-2.9,2.2-4c1.9-1.8,4.5-2,7.1-2.4c0,0,0.1-0.1,0-0.1C12.8,19.2,10.7,19.3,8.4,20C8.4,19.9,8.4,20,8.4,20z"/>
				<path class="st3" d="M8.6,20c0.7-0.2,1.4-0.4,2.1-0.5c0.5-0.1,3.8-0.6,1.9,0.1c-2,0.8-3.7,0.9-5.1,2.6c-0.9,2-1.2,2.1-0.9,0.3
					c0.3-1.1,1-2,1.9-2.6c0.1,0,0-0.1-0.1-0.1C6.5,21,6,23.5,5.9,25.7c0,0.1,0.1,0.1,0.1,0c0.6-1.7,1.2-3.5,2.9-4.6
					c1.9-1.2,4.2-1.5,6.4-1.8c0.1,0,0-0.1-0.1-0.1c-2.3,0-4.5,0-6.7,0.7C8.4,19.9,8.6,20,8.6,20z"/>
				<path class="st3" d="M8.9,20.3c0.9-0.3,1.7-0.5,2.7-0.6c0.8-0.1,3-0.4,1.2,0.1c-2,0.6-1.6,0.4-2.9,1.1c-1.1,0.6-0.6,0.2-1.5,1
					c-0.2,0.2-0.4,0.4-0.6,0.6c-0.3,0.5-0.6,1-0.9,1.5c0,0-0.4,0-0.4,0c-0.8-0.7,2.3-3.8,2.3-3.9c0.1-0.1,0-0.1-0.1-0.1
					c-1.9,1.2-2.5,3.7-2.6,5.9c0,0,0.1,0.1,0.1,0.1c1.9-5.5,5-5.8,9.4-6.4c0.1,0-0.2-0.2-0.2-0.2c-2.3,0-4.5,0.1-6.7,0.7
					C8.5,20.1,8.8,20.3,8.9,20.3z"/>
				<path class="st3" d="M8.4,20.2c0.7-0.2,1.4-0.4,2.1-0.5c0.3,0,2.5-0.2,2.5-0.2c0,0.2-2,0.7-1.7,0.6c-1.3,0.4-2.5,0.8-3.5,1.7
					c-0.3,0.2-1.7,2.1-1.7,2.1c-0.3-0.2,0.3-1.5,0.5-1.9c0.4-0.9,0.8-1.5,1.7-2c0,0,0-0.1,0-0.1c-1.9,1.2-2.5,3.8-2.7,5.9
					c0,0.1,0.1,0.1,0.1,0c0.5-1.5,1-2.9,2.2-4c1.9-1.8,4.5-2,7.1-2.4c0,0,0.1-0.1,0-0.1C12.8,19.5,10.6,19.5,8.4,20.2
					C8.4,20.2,8.3,20.2,8.4,20.2z"/>
			</g>
		</g>
	</g>
	<g>
		<path class="st4" d="M25.1,25.1c-0.8,0.2-1.9,0-5.3,0c3.6-0.2,4.2-0.1,5-2.5C25,23.2,25.5,24.4,25.1,25.1z"/>
		<g>
			<g>
				<path class="st5" d="M25,25.1c-0.9,0.1-2.7,0.3-3.5,0c-0.7-0.3,1-0.2,1.4-0.3c0.5-0.2,0.6-0.1,1-0.5c0.2-0.5,0.6-0.8,1.1-0.8
					c0.2,0.6,0.2,1.1,0,1.7c0,0,0.1,0,0.1,0c0.2-1,0-1.6-0.3-2.6c0,0,0,0,0,0c-1,2.3-2.9,2.3-5.1,2.4c0,0-0.1,0.1,0,0.1
					C21.5,25.1,23.3,25.4,25,25.1C25,25.2,25.1,25.1,25,25.1z"/>
				<path class="st5" d="M24.9,25c-0.7,0.1-1.4,0.1-2.2,0c-0.5,0-1,0-1.5-0.1c-0.8,0.6,2.4-0.5,2-0.3c0.2-0.1,0.4-0.1,0.6-0.4
					c0.2-0.5,0.5-0.8,1.1-0.9c0.2,0.6,0.2,1.1,0,1.7c0,0,0.1,0.1,0.1,0c0.2-1,0-1.6-0.3-2.5c0,0,0,0-0.1,0c-0.2,0.6-0.4,1.2-0.8,1.6
					c-1.4,0.6-2.8,0.8-4.3,0.7c-0.1,0,0.1,0.1,0.1,0.1c1.7,0.1,3.6,0.3,5.3,0.1C25.1,25.1,24.9,25,24.9,25z"/>
				<path class="st5" d="M24.9,24.8c-0.6,0.1-3.3,0.3-3.5,0c-0.1-0.2-1.9,0.4,1.1-0.1c0.6-0.1,1-0.2,1.5-0.6
					c0.2-0.2,0.3-0.4,0.5-0.7c0.2-0.5,0.4,0,0.6,1.5c0,0,0.1,0,0.1,0c0.2-1,0-1.7-0.3-2.6c0,0,0,0,0,0c-1.4,1.8-3.1,2.6-5.2,2.4
					c-0.1,0,0.1,0.2,0.1,0.2c1.7,0.1,3.5,0.3,5.3,0C25.1,24.9,24.9,24.8,24.9,24.8z"/>
				<path class="st5" d="M25,25c-0.7,0.1-1.4,0.1-2.2,0c-1.9-0.1-1.8,0-0.3-0.2c0.6-0.1,1-0.2,1.5-0.6c0,0,0,0,0,0
					C24.5,23.1,24.9,23.4,25,25c0.1,0.1,0.1,0.2,0.1,0.1c0.2-0.9,0-1.6-0.3-2.5c0,0-0.1,0-0.1,0c-1,2.4-2.8,2.3-5,2.3
					c-0.1,0,0,0.1,0.1,0.1c1.7,0.1,3.6,0.3,5.3,0.1C25.2,25,25.1,24.9,25,25z"/>
				<path class="st5" d="M25,24.8c-0.7,0.1-1.4,0.1-2.2,0c-2.8-0.1-0.8,0,0.1-0.3c0.6-0.2,0.8-0.5,1.3-0.8c0.2-0.4,0.4-0.5,0.9-0.5
					c0.2,0.6,0.2,1.2,0,1.7c0,0,0.1,0,0.1,0c0.2-1,0-1.6-0.3-2.6c0,0,0,0-0.1,0c-0.4,1-0.6,1.5-1.6,1.9c-1.2,0.5-2.3,0.4-3.5,0.4
					c-0.1,0,0,0.1,0.1,0.1C21.5,24.9,23.3,25.1,25,24.8C25.1,24.9,25.1,24.8,25,24.8z"/>
				<path class="st5" d="M24.8,24.9c-0.7,0.1-1.4,0.1-2.2,0c-2.3-0.1-1.3,0-0.2-0.2c0.5-0.1,1.1-0.2,1.5-0.6c0.8-0.7,1.6-2,1.1,0.9
					c0,0,0.1,0,0.1,0c0.2-1,0-1.6-0.3-2.6c0,0,0,0,0,0c-0.4,1-0.6,1.5-1.6,2c-1.2,0.5-2.3,0.4-3.6,0.4c-0.1,0,0.1,0.1,0.1,0.1
					c1.7,0.1,3.6,0.3,5.3,0.1C25,25,24.8,24.9,24.8,24.9z"/>
				<path class="st5" d="M24.9,25.1c-0.7,0.1-1.4,0.1-2.2,0c-1.7-0.1-2,0.1-0.3-0.2c0.6-0.1,1-0.2,1.5-0.6c0.2-0.2,0.3-0.4,0.5-0.7
					c0.3-0.5,0.5,0.1,0.6,1.5c0,0,0.1,0,0.1,0c0.2-1,0-1.7-0.3-2.6c0,0,0,0,0,0c-0.2,0.9-0.7,1.6-1.5,2.1c-1.2,0.2-2.4,0.3-3.6,0.3
					c0,0,0,0.1,0,0.1C21.4,25.2,23.2,25.4,24.9,25.1C25,25.2,25,25.1,24.9,25.1z"/>
				<path class="st5" d="M25.1,24.9c-0.7,0.1-1.4,0.1-2.2,0c-1.7-0.1-1.9,0-0.4-0.2c0.6-0.1,1-0.1,1.5-0.6c0,0,0,0,0,0
					c0.5-1.1,0.9-0.8,1.1,0.9c0,0,0.1,0,0.1,0c0.2-1,0-1.7-0.3-2.6c0,0-0.1,0-0.1,0c-0.2,0.9-0.7,1.5-1.5,2
					c-1.2,0.2-2.4,0.4-3.6,0.3c-0.1,0,0,0.1,0,0.1C21.6,25,23.4,25.2,25.1,24.9C25.2,25,25.2,24.9,25.1,24.9z"/>
				<path class="st5" d="M24.8,24.8c-0.7,0.1-1.4,0.1-2.2,0c-2.3-0.1-1.3,0-0.2-0.2c0.6-0.1,1-0.2,1.5-0.6c0.2-0.2,0.3-0.4,0.5-0.7
					c0.3-0.5,0.5,0,0.6,1.5c0,0,0.1,0,0.1,0c0.2-1,0-1.7-0.3-2.6c0,0,0,0,0,0c-0.3,1.5-1.2,2.3-2.5,2.2c-0.9,0.2-1.8,0.2-2.7,0.2
					c-0.1,0,0.1,0.2,0.2,0.2c1.7,0.1,3.6,0.3,5.3,0.1C25,25,24.9,24.8,24.8,24.8z"/>
				<path class="st5" d="M25,24.8c-0.7,0-1.5,0-2.2,0c-0.5,0-0.9,0-1.4-0.1c0.4-0.1,1.4-0.1,2-0.3c1-0.4,2.3-2.9,1.7,0.5
					c0,0,0.1,0,0.1,0c0.2-1,0-1.6-0.3-2.6c0,0-0.1,0-0.1,0c-0.4,0.9-0.6,1.5-1.6,1.9c-1.1,0.5-2.3,0.4-3.5,0.4
					c-0.1,0,0.1,0.1,0.1,0.2c1.7,0.1,3.6,0.3,5.3,0C25.2,25,25,24.8,25,24.8z"/>
				<path class="st5" d="M25.1,25c-1,0.1-2.8-0.3-3.7-0.1c0.8-0.2,1.6,0,2.3-0.5c0.9-0.6,2-2.4,1.4,0.7c0,0,0.1,0,0.1,0
					c0.2-1,0-1.6-0.3-2.6c0,0-0.1,0-0.1,0c-0.4,1-0.8,1.8-1.9,2.1c-0.9,0.3-2.2,0.2-3.2,0.2c0,0,0,0.1,0,0.1
					C21.5,25.1,23.4,25.3,25.1,25C25.1,25.1,25.1,25,25.1,25z"/>
				<path class="st5" d="M24.8,25c-0.9,0.1-1.9,0.1-2.8,0c-1.2-0.1-0.8,0,0.4-0.1c0.5-0.1,1.1-0.2,1.5-0.6c0.1-0.5,0.4-0.7,0.8-0.8
					c0.8-0.3,0.9,0.2,0.3,1.6c0,0,0.1,0,0.1,0c0.2-1,0-1.6-0.3-2.6c0,0,0,0,0,0c-0.3,0.8-0.6,1.7-1.5,2c-1.1,0.5-2.6,0.3-3.7,0.3
					c-0.1,0,0,0.1,0.1,0.1c1.7,0.1,3.6,0.3,5.3,0.1C25,25.1,24.8,25,24.8,25z"/>
			</g>
		</g>
	</g>
	<g>
		<polygon class="st6" points="14.9,21.1 9.8,25.2 10.1,25.6 		"/>
		<g>
			<g>
				<path class="st7" d="M13.9,20.4c-1.7,1.4-3.4,2.8-5.1,4.1c-0.1,0-0.2,0.2-0.1,0.3C9,25,9.2,25.3,9.4,25.6c0,0,0.1,0,0.2,0
					c0.5-0.4,0.6-0.5,1.2-1c0,0,0.1-0.1,0,0c-0.1,0.1-1.2,0.8-1.2,0.3c0-0.2,1.4-1.3,1.4-1.2c1.2-0.9,2.3-1.9,3.5-2.8
					C14.8,20.6,14.1,20.2,13.9,20.4z"/>
				<path class="st7" d="M13.2,20.8c-1.7,1.4-3.4,2.7-5.1,4.1c-0.1,0.1,0,0.2,0.1,0.3c0.3,0.2,0.6,0.4,0.9,0.7
					c0.1,0.1,0.4,0,0.5-0.1c0.3-0.2,0.7-0.4,0.9-0.7c0.1-0.1-0.1-0.5-0.1-0.5c-0.4,0.3-0.8,0.6-1.3,0.8c0.2,0,0.3,0,0.5,0
					c-0.4-0.7,1.4-1.6,1.8-2c1-0.8,2-1.6,3-2.4C14.7,20.8,13.4,20.5,13.2,20.8z"/>
				<path class="st7" d="M14.4,21.1c-1.7,1.4-3.4,2.8-5.1,4.1c-0.1,0.1,0,0.2,0.1,0.4c0.1,0.2,0.2,0.3,0.3,0.5
					c0,0.1,0.3,0.2,0.4,0.2c1.9-1.5,3.5-3.3,5.5-4.6c0.3-0.2,0-0.6-0.2-0.4c-1.3,1.1-2.4,2.3-3.8,3.3c-0.3,0.2-0.6,0.5-0.9,0.7
					c-0.5,0.7-0.9,0.7-1.2,0c0,0.1,0,0.2,0.1,0.4c1.7-1.4,3.4-2.8,5.1-4.1C14.7,21.4,14.5,21,14.4,21.1z"/>
				<path class="st7" d="M13.9,21c-1.7,1.4-3.4,2.8-5.1,4.1c-0.1,0.1-0.1,0.2,0,0.3C9,25.6,9.2,25.8,9.4,26c0.1,0.1,0.3,0,0.4-0.1
					c2-1.3,3.3-3.3,5.3-4.6c0.2-0.1,0.2-0.6,0-0.4c-1.7,1.6-3.6,3.3-5.5,4.6c0.1,0,0.3,0,0.4,0c-0.4-0.6,1.8-1.9,2.2-2.2
					c0.8-0.7,1.7-1.4,2.5-2.1C15.2,20.9,14.2,20.8,13.9,21z"/>
				<path class="st7" d="M13.7,22.4c0.5-0.5,1.1-1,1.6-1.4c0.1-0.1-0.2-0.4-0.3-0.3c-0.6,0.5-1.2,1-1.7,1.5
					C13.3,22.2,13.7,22.5,13.7,22.4z"/>
				<path class="st7" d="M14.5,20.8c-1.7,1.4-3.4,2.8-5.1,4.1c-0.1,0.1-0.1,0.3,0,0.4c0.1,0.1,0.3,0.3,0.4,0.4
					c0.1,0.1,0.2,0.2,0.3,0.1c1.8-1.4,3.4-3.1,5.3-4.4c0.3-0.2-0.2-0.6-0.5-0.4c-0.8,0.7-1.5,1.5-2.3,2.2c-0.2,0.2-2.6,2.1-2.6,2.1
					c0-0.1,2.3-1.9,2.3-1.9c0.8-0.7,1.7-1.4,2.5-2.1C15.2,21,14.7,20.6,14.5,20.8z"/>
				<path class="st7" d="M14.4,20.5c-1.7,1.4-3.4,2.8-5.1,4.1c-0.1,0.1-0.2,0.2-0.2,0.3c0.2,0.3,0.3,0.4,0.5,0.7c0,0,0,0,0,0
					c1.2-1,2.5-1.7,3.6-2.8c0.7-0.6,1.4-1.3,2.2-1.9c0.2-0.1-0.1-0.5-0.2-0.4c-0.9,0.8-1.8,1.6-2.8,2.4c-0.4,0.4-2.4,2.6-3,1.7
					c-0.1,0.1-0.1,0.2-0.2,0.3c1.7-1.4,3.4-2.8,5.1-4.1C14.7,20.7,14.7,20.3,14.4,20.5z"/>
				<path class="st7" d="M14.4,21.8c0.2-0.2,0.4-0.3,0.6-0.5c0.1-0.1-0.1-0.4,0-0.5c-0.3,0.3-0.7,0.7-1.1,1
					C14,21.7,14.3,21.9,14.4,21.8z"/>
				<path class="st7" d="M14.8,20.7c-1.7,1.4-3.4,2.8-5.1,4.1c0,0-0.3,0.3-0.2,0.4c0.9,1,2.2-0.6,2.9-1.3c1.2-1,2.3-2,3.6-2.8
					c0.3-0.2-0.3-0.6-0.5-0.3c-0.9,0.8-1.7,1.5-2.6,2.3c-0.9,0.8-1.9,1.9-3,2.4c0.1,0.1,0.2,0.2,0.3,0.3c-0.2-0.3-0.3-0.6-0.5-1
					c-0.1,0.1-0.1,0.3-0.2,0.4c1.7-1.4,3.4-2.8,5.1-4.1C14.7,21.1,14.7,20.7,14.8,20.7z"/>
			</g>
		</g>
	</g>
	<g>
		<path class="st6" d="M19.1,21.3c-5.4,6.9-4.7,5.9-5.4,6.9c0.7-1-0.2,0.2,6.1-6.4L19.1,21.3z"/>
		<g>
			<g>
				<path class="st7" d="M17.8,21.3c-1.8,2.3-3.8,4.5-5.4,6.9c-0.2,0.3,0.8,0.3,0.9,0.1c0.3-0.4,0.6-0.6,0.9-0.8
					c0.1-0.1,0-0.3,0.1-0.3c-0.6,0.4-1.1,0.7-1.8,1c0.3,0.1,0.5,0.1,0.8,0.2c1.7-2.4,3.6-4.6,5.4-6.9C18.9,21.1,18,21.1,17.8,21.3z"
					/>
				<path class="st7" d="M18.4,21c-1.8,2.3-3.8,4.5-5.4,6.9c-0.2,0.2,0.2,0.5,0.3,0.3c0.4-0.6,1.2-1,1.7-1.4c0,0-0.3-0.2-0.3-0.1
					c-0.6,0.5-1,0.9-1.7,1.2c0.1,0.1,0.2,0.2,0.3,0.3c1.7-2.4,3.6-4.6,5.4-6.9C18.9,21,18.5,20.8,18.4,21z"/>
				<path class="st7" d="M18.6,21.5c-1.8,2.3-3.7,4.5-5.4,6.9c-0.1,0.1,0.1,0.3,0.3,0.2c2.2-2.2,4.6-4.3,6.8-6.5
					c0-0.1,0.1-0.2,0.1-0.2c-0.3-0.3-0.6-0.5-0.9-0.8c-0.1,0-0.1,0.3,0,0.3c0.2,0.2,0.3,0.3,0.5,0.5c-1.2,1.5-2.6,3-4,4.3
					c-0.8,0.8-1.8,1.3-2.6,2.1c0.1,0.1,0.2,0.1,0.3,0.2c1.7-2.4,3.6-4.6,5.4-6.9C19,21.6,18.7,21.4,18.6,21.5z"/>
				<path class="st7" d="M18.3,21.4c-1.8,2.3-3.7,4.5-5.4,6.9c-0.3,0.4,0.5,0.2,0.7,0.1c0.4-0.5,0.8-0.8,1.3-1.2
					c1.7-1.7,3.4-3.4,5.1-5.1c0,0,0.1-0.2,0-0.3c-0.2-0.1-0.5-0.3-0.7-0.5c-0.1-0.1-0.4,0-0.3,0.1c1.3,0.6-4.5,5.8-4.7,6
					c-0.5,0.3-0.9,0.7-1.4,1c0.2,0,0.4,0.1,0.7,0.1c1.7-2.4,3.6-4.6,5.4-6.9C19.2,21.2,18.5,21.2,18.3,21.4z"/>
				<path class="st7" d="M16.8,25.1c1.1-1.1,2.2-2.3,3.3-3.4c0,0,0-0.1,0-0.1c-0.2-0.3-0.5-0.5-0.8-0.8c-0.1-0.2-0.4,0.1-0.3,0.2
					c0.2,0.1,0.4,0.3,0.6,0.4c-0.9,1.3-1.9,2.4-3,3.5C16.5,24.9,16.8,25.1,16.8,25.1z"/>
				<path class="st7" d="M18.7,21.3c-1.8,2.3-3.7,4.5-5.4,6.9c-0.2,0.2,0.3,0.4,0.4,0.2c0.4-0.5,0.9-0.9,1.3-1.3
					c1.8-1.6,3.4-3.3,5.1-5c0.1-0.1,0.1-0.2,0-0.3c-0.3-0.2-0.5-0.3-0.8-0.5c-0.2-0.1-0.4,0.1-0.2,0.3c0.9,0.6-4.7,5.7-5.8,6.7
					c0.1,0.1,0.3,0.1,0.4,0.2c1.7-2.4,3.6-4.6,5.4-6.9C19.3,21.2,18.8,21.1,18.7,21.3z"/>
				<path class="st7" d="M18.7,21c-1.8,2.3-3.7,4.5-5.4,6.9c-0.1,0.1-0.1,0.4,0.1,0.2c0.5-0.5,1.2-0.9,1.8-1.4
					c1.8-1.6,3.5-3.4,5.2-5.2c0.1-0.1,0-0.2-0.1-0.2c-0.3-0.2-0.5-0.4-0.7-0.7c-0.2-0.2-0.4,0.2-0.3,0.3c0.2,0.1,0.5,0.3,0.6,0.5
					c0.1,0.2-3.5,3.8-4.2,4.4c-0.6,0.6-1.3,1.3-2,1.8c-0.3,0.3,0.1-0.1,0.2-0.2c0.2-0.2,0.4-0.5,0.5-0.7c1.5-1.9,3-3.7,4.5-5.6
					C18.9,21.1,18.8,20.8,18.7,21z"/>
				<path class="st7" d="M18.1,23.8c0.6-0.6,1.2-1.3,1.8-1.9c0,0,0,0,0,0c-0.2-0.4-0.4-0.6-0.8-0.9c0,0-0.3,0.1-0.3,0.2
					c0.3,0.3,0.7,0.5,1,0.7c0-0.1-0.1-0.2-0.1-0.3c-0.6,0.7-1.3,1.3-1.9,2C17.8,23.6,18.1,23.8,18.1,23.8z"/>
				<path class="st7" d="M18.9,21.2c-1.8,2.3-3.7,4.5-5.4,6.9c0,0.1,0,0.3,0,0.3c0.2-0.2,0.3-0.3,0.5-0.5c-0.1,0-0.2,0.1-0.3,0.1
					c0.7-0.1,1-0.5,1.5-1c1.9-1.7,3.7-3.4,5.4-5.2c0.1-0.1,0-0.2,0-0.3c-0.3-0.2-0.7-0.4-1-0.7c-0.2-0.1-0.3,0.2-0.2,0.3
					c0.7,0.6-4.5,6.1-6,6.9c0,0.1,0,0.2,0,0.3c1.7-2.4,3.6-4.6,5.4-6.9C18.9,21.4,18.9,21.2,18.9,21.2z"/>
			</g>
		</g>
	</g>
	<g>
		<g>
			<linearGradient id="SVGID_1_" gradientUnits="userSpaceOnUse" x1="14.2106" y1="23.0233" x2="15.7894" y2="31.9767">
				<stop  offset="0" style="stop-color:#FFFFFF"/>
				<stop  offset="1" style="stop-color:#000000"/>
			</linearGradient>
			<rect x="3" y="25" class="st8" width="24" height="5"/>
			<g>
				<g>
					<path class="st9" d="M26.8,30.1c-4.4,0-8.9,0-13.3,0c-2.6,0-5.3,0-7.9,0c-0.8,0-1.7,0-2.5,0c-0.4-0.2-0.4-0.5-0.2-1
						c0,0-0.1,0-0.1,0c0,0.3,0,0.7-0.1,1c0,0,0,0,0,0c8,0,16,0,24,0C26.7,30.2,26.8,30.1,26.8,30.1z"/>
					<path class="st9" d="M26.6,29.4c-8,0-16,0-24,0c0.1,0.1,0.2,0.2,0.3,0.3C2.9,28.4,3,27.2,3,26c0-0.4-0.1-1.1,0.2-1.3
						c0.4-0.2,2.6,0.1,2.7,0.1c6.6,0.2,13.2,0.1,19.8,0.1c0,0,0.1-0.1,0.1-0.1c-4.4,0-8.8,0-13.3-0.1c-2.2,0-4.4,0-6.7-0.1
						c-0.9,0-1.9,0.1-2.8-0.2c-0.1,0-0.1,0.1-0.1,0.2c0,1.5,0.2,3.4-0.3,4.8c0,0.1,0.2,0.3,0.3,0.3c8,0,16,0,24,0
						C27,29.7,26.7,29.4,26.6,29.4z"/>
					<path class="st9" d="M27,25.2c0,0,0.1-0.1,0.1-0.1C27,25.1,27,25.2,27,25.2z"/>
					<path class="st9" d="M26.9,29.4c-5.3,0-10.5,0-15.8,0c-2.4,0-4.9,0.1-7.4,0c-0.8,0-0.4,0.1-0.6-0.5c-0.2-0.6,0.1-2,0.1-2.5
						c0-0.3-0.1-1.5,0.1-1.7c0.2-0.2,1.1,0,1.3,0c2.7,0.1,5.5,0.1,8.2,0.1c3.6,0,7.2,0,10.8,0.1c1,0,2-0.1,3,0c0.8,0.1,0.8,0,0.7,1
						c0,0,0.1,0,0.1,0c0-0.3,0-0.7,0.1-1c0,0,0,0,0,0c-3.6,0-7.2,0-10.7-0.1c-2.5,0-4.9-0.1-7.4-0.1c-1.8,0-4.2,0.4-5.9-0.3
						c-0.1,0-0.2,0.2-0.2,0.2c0,1.6,0.1,3.3-0.2,4.8c0,0.1,0.1,0.2,0.2,0.2c8,0,16,0,24,0C27.1,29.6,26.9,29.4,26.9,29.4z"/>
					<path class="st9" d="M27,30.1c-6.4,0-12.8,0-19.2,0c-0.9,0-1.8,0-2.7,0c-0.6,0-1.2,0-1.7,0c-0.4-0.2-0.2,0.1-0.3-0.3
						c-0.1-0.3,0.1-1.6,0.1-1.7c0-0.7-0.1-1.7,0.1-2.4c0.3-0.7,0.2-0.5,1.3-0.5c1.5,0.1,3.1,0.1,4.6,0.1c4.1,0.1,8.2,0.1,12.3,0.1
						c1.5,0,3.1,0,4.6,0c0.3,0,0.7,0,1,0c0.1,0.1,0.2,0.3,0.1,0.5c0.3,0.5,0,1.9-0.1,2.5c0,0.7,0,1.3-0.1,2c0,0.1,0.2,0,0.2-0.1
						c0-1.4-0.2-3.5,0.3-4.9c0-0.1-0.2-0.2-0.3-0.2c-4,0-8,0-11.9,0c-4,0-8,0.2-12-0.2c0,0,0,0,0,0c-0.1,1.3-0.1,2.7-0.2,4
						c0,0.3,0,0.7-0.1,1c0.3,0,0.6,0,0.8,0c1.3,0,2.6,0,3.9,0C14,30.2,20.5,30.2,27,30.1C26.9,30.2,26.9,30.1,27,30.1z"/>
					<path class="st9" d="M26.6,29.8c-6,0-12.1,0-18.1,0c-1.5,0-3,0-4.5,0c-0.3,0-0.9,0.1-1.1-0.1c-0.3-0.3,0.1-1.9,0.1-2.3
						c0-0.5-0.2-2,0.4-2.4c0.4-0.3,2.1,0.1,2.5,0.1c1.8,0,3.6,0.1,5.4,0.1c3.7,0,7.4,0.1,11,0.1c1.3,0,2.6-0.1,3.9,0
						c0.8,0.1,0.7-0.1,0.7,0.9c0,1.4,0,2.7-0.2,4.1c0,0.2,0.2-0.1,0.2-0.2c0-1.6-0.1-3.3,0.2-4.8c0,0-0.1-0.2-0.1-0.2c-4,0-8,0-12,0
						c-3.9,0-8.1,0.3-12-0.2c0,0-0.1,0.1-0.1,0.1c0,1.6,0.2,3.4-0.3,4.9c0,0.1,0.2,0.2,0.2,0.2c8,0,16,0,24,0
						C26.9,30.1,26.7,29.8,26.6,29.8z"/>
					<path class="st9" d="M26.8,27.9c0,0.7,0,1.3-0.1,2c0,0,0.1,0.1,0.1,0c0-0.7,0.1-1.3,0.1-2C26.9,27.9,26.8,27.9,26.8,27.9z"/>
					<path class="st9" d="M26.9,29.8c-6.4,0-12.8,0-19.2,0c-1.1,0-2.3,0-3.4,0c-1.2,0-1,0.2-1.1-0.5c-0.1-0.4-0.1-4,0.2-4.2
						c0.3-0.2,2.6,0,2.6,0c1.4,0,2.9,0,4.3,0c4.1,0,8.2,0.1,12.3,0.1c1.3,0,2.7-0.1,4,0c0.7,0.1,0.6-0.1,0.6,0.8
						c0,1.4,0,2.8-0.1,4.1c0,0.1,0.2,0,0.2-0.1c0-1.5-0.2-3.4,0.2-4.9c0-0.1-0.2-0.2-0.3-0.2c-3.6,0-7.1,0-10.7,0
						c-2.5,0-4.9,0-7.4,0c-1.9,0-3.9,0.2-5.8-0.2C3.1,24.8,3,25,3,25c0,1.6,0.1,3.3-0.2,4.8C2.9,29.9,3,30,3,30c8,0,16,0,24,0
						C27.1,30,27,29.8,26.9,29.8z"/>
					<path class="st9" d="M26.9,29.6c0,0.1,0,0.2,0,0.3c0,0,0.1,0.1,0.1,0.1c0-0.1,0-0.2,0-0.3C27.1,29.6,26.9,29.6,26.9,29.6z"/>
					<path class="st9" d="M26.4,29.7c-8,0-16,0-24,0c0.1,0.1,0.2,0.2,0.3,0.2c0-0.9,0.1-1.7,0.1-2.6c0-0.6-0.2-1.9,0.2-2.3
						c0.3-0.2,0.7-0.2,1.2,0C5.3,25,6.5,25,7.6,25c2.4,0.1,4.8,0.1,7.2,0.1c2.4,0,4.8,0,7.2,0c1.1,0,2.3,0,3.4,0c0.3,0,0.7,0,1,0
						c0.3-0.1,0.4,0,0.3,0.3c0,0.2,0,0.5,0,0.7c-0.1,1.3-0.1,2.7-0.2,4c0,0.1,0.2,0,0.2-0.1c0.1-1.3,0.1-2.6,0.2-4
						c0-0.3,0-0.6,0.1-0.9c0.1-0.2,0-0.3-0.3-0.2c-0.3,0-0.7,0-1,0c-0.8,0-1.6,0-2.5,0c-4,0-8,0-12-0.1c-2.7,0-5.6,0.1-8.3-0.3
						c0,0-0.1,0-0.1,0c-0.1,1.5,0.3,3.6-0.3,4.9c0,0.1,0.2,0.3,0.3,0.3c8,0,16,0,24,0C26.7,29.9,26.5,29.7,26.4,29.7z"/>
					<path class="st9" d="M3.1,25.2c2.2,0.5,4.7,0.3,7,0.3c4.1,0.1,8.2,0.1,12.3,0.1c1.1,0,2.3,0,3.4,0c1.2,0,1-0.2,1.1,0.5
						c0.1,0.7-0.1,1.7-0.1,2.5c0,0.7,0,1.3-0.1,2c0,0.1,0.2-0.1,0.2-0.2c0-1.5-0.1-3.3,0.3-4.8c0,0-0.1-0.2-0.2-0.2
						c-8,0-16.1,0.3-24.1-0.3C3,25.1,3.1,25.1,3.1,25.2z"/>
					<path class="st9" d="M27.1,29.7c-6.4,0-12.8,0-19.2,0c-1.1,0-2.3,0-3.4,0c-1.2,0-1,0.2-1.2-0.5c-0.1-0.4-0.1-4,0.3-4.2
						c0.3-0.2,2.6,0,2.6,0c1.4,0,2.9,0,4.3,0.1c4.1,0.1,8.2,0.1,12.3,0.1c1.3,0,2.7-0.2,4,0c0.8,0.1,0.6-0.1,0.6,0.8
						c0,1.4,0,2.7-0.1,4.1c0,0.1,0.1,0,0.1,0c0-1.5-0.3-3.5,0.3-4.9c0-0.1-0.2-0.2-0.3-0.2c-3.6,0-7.1,0-10.7,0c-2.5,0-4.9,0-7.4,0
						c-1.9,0-4,0.2-5.8-0.2c-0.1,0-0.1,0.2-0.1,0.2c0,1.6,0,3.3-0.2,4.9c0,0,0.1,0.1,0.1,0.1c8,0,16,0,24,0
						C27.2,29.9,27.2,29.7,27.1,29.7z"/>
					<path class="st9" d="M26.5,29.5c-8,0-16,0-24,0c0.1,0.1,0.2,0.2,0.3,0.3c0-0.9,0-1.7,0-2.6c0-0.6-0.2-2,0.2-2.3
						c0.4-0.2,0.7-0.2,1.2,0c1.1,0,2.3,0.1,3.4,0.1c2.4,0,4.8,0.1,7.2,0.1c2.4,0,4.8,0,7.2,0c1.1,0,2.3,0,3.4,0c0.3,0,0.7,0,1,0
						c0.5,0.4,0.2,1.3,0.2,1.9c0,1-0.1,2-0.2,3.1c0,0.1,0.1,0,0.1-0.1c0.1-1.7,0.1-3.4,0.3-5c0,0,0,0,0,0c-4,0-8,0-12-0.1
						c-2.4,0-4.8,0-7.3-0.1c-1.5,0-3.3,0.1-4.8-0.2c-0.1,0-0.1,0.1-0.1,0.1c0,1.5,0.3,3.4-0.3,4.8c0,0.1,0.2,0.3,0.3,0.3
						c8,0,16,0,24,0C26.9,29.9,26.6,29.5,26.5,29.5z"/>
					<path class="st9" d="M26.8,29.5c-8,0-16,0-24,0C2.9,29.6,3,29.7,3,29.8c0-0.9,0-1.7,0-2.6c0-0.6-0.2-2,0.2-2.3
						c0.4-0.1,0.7-0.1,1.1,0c1.2,0,2.3,0,3.5,0c2.4,0,4.9,0,7.3,0.1c2.4,0,4.8,0,7.2,0c1.1,0,2.3,0,3.4,0c0.3,0,0.7,0,1,0
						c0.5,0.3,0.2,1.4,0.1,1.9c0,1-0.1,2-0.1,3.1c0,0.1,0.1,0,0.1-0.1c0.1-1.6,0-3.3,0.2-4.9c0,0-0.1-0.1-0.1-0.1c-4,0-8,0-12,0
						c-2.4,0-4.8,0-7.3,0c-1.5,0-3.3,0.2-4.7-0.2c-0.1,0-0.2,0.2-0.2,0.2c0,1.5,0.2,3.3-0.2,4.8c0,0.1,0.2,0.3,0.3,0.3
						c8,0,16,0,24,0C27.1,29.8,26.9,29.5,26.8,29.5z"/>
					<path class="st9" d="M27.1,29.9c-4.9,0-9.7,0-14.6,0c-2.7,0-5.4,0-8.1,0c-1.4,0-1.3-0.1-1.2-1.4c0-0.7,0-1.4,0.1-2.1
						c0-0.3,0-0.6,0.2-0.9c0-0.4,0.2-0.6,0.7-0.4c0.8-0.2,2.2,0.1,3,0.1c1.5,0,3,0.1,4.5,0.1c5.3,0.1,10.6,0,15.8,0.1
						c-0.1-0.1-0.2-0.2-0.3-0.2c0,1.7,0,3.5-0.1,5.2c0,0.1,0.2,0,0.2-0.1c0-1.4-0.3-3.5,0.3-4.9c0-0.1-0.2-0.3-0.3-0.3
						c-4,0-8,0-11.9,0c-2.4,0-4.8,0-7.2,0c-1.5,0-3.2,0.1-4.7-0.2c-0.1,0-0.1,0.1-0.1,0.1c-0.1,1.7-0.1,3.3-0.2,5c0,0,0,0,0,0
						c8,0,16,0,24,0C27.1,30,27.1,29.9,27.1,29.9z"/>
					<path class="st9" d="M26.5,29.8c-6.4,0-12.8,0-19.2,0c-1.3,0-2.6,0.1-3.9,0c-0.8-0.1-0.7,0-0.6-0.9c0.1-0.9-0.3-3.5,0.5-3.9
						c0.5-0.2,2,0.1,2.5,0.1c2.2,0.1,4.4,0.1,6.6,0.1c3.6,0,7.2,0,10.8,0.1c0.8,0,1.6,0,2.5,0c0.3,0,0.7,0,1,0
						c0.5,0.4,0.1,0,0.2,0.6c0.2,0.7-0.1,1.7-0.1,2.4c0,0.7-0.1,1.3-0.1,2c0,0.1,0.2,0,0.2-0.1c0.1-1.6,0-3.3,0.2-4.9c0,0,0,0,0,0
						c-4,0-8,0-12-0.1c-4,0-8.1,0.1-12.1-0.3c0,0,0,0,0,0c-0.1,1.5,0.2,3.5-0.3,5c0,0,0.1,0.2,0.2,0.2c8,0,16,0,24,0
						C26.7,30,26.5,29.8,26.5,29.8z"/>
				</g>
			</g>
		</g>
		<g>
			<linearGradient id="SVGID_2_" gradientUnits="userSpaceOnUse" x1="5.5533" y1="26.4905" x2="5.9007" y2="28.4605">
				<stop  offset="0" style="stop-color:#FFFFFF"/>
				<stop  offset="1" style="stop-color:#000000"/>
			</linearGradient>
			<circle class="st10" cx="5.7" cy="27.5" r="1"/>
			<g>
				<g>
					<path class="st9" d="M6.5,28c-1.4-0.7-1.7-1.1-0.9-1.1c0.6-0.2,1,0.2,1.2,1c0,0.1,0.1,0,0.1,0c-0.4-2.1-3-0.6-2,0.7
						c0.7,0.9,1.6,0.2,1.8-0.6C6.8,27.7,6.6,27.9,6.5,28z"/>
					<path class="st9" d="M6.3,27.8c0.1,0,0.1-0.1,0.2-0.1c0,0.1,0.1,0.1,0.1,0c-0.4-1.8-2.7-1.1-2.1,0.4c0.5,1.3,1.8,0.4,2.1-0.5
						C6.7,27.4,6.3,27.7,6.3,27.8z"/>
					<path class="st9" d="M6.4,27.4c0,0.1-2.4,1-1.7-0.4c0.1-0.4,0.3-0.5,0.8-0.4c0.7-0.4,1.1-0.1,1.1,0.7c0,0,0.1,0,0.1,0
						c-0.5-2.1-3.1-0.7-2,0.7c0.7,0.9,1.6,0.3,1.8-0.6C6.5,27.3,6.4,27.3,6.4,27.4z"/>
					<path class="st9" d="M6.6,27.7c-1.8,0.9-1.8,0.9,0.2-0.1c0,0.1,0.1,0.1,0.1,0c-0.3-1.2-2.1-1.7-2.2-0.1
						c-0.1,1.6,1.8,1.3,2.1,0.1C6.9,27.4,6.6,27.6,6.6,27.7z"/>
					<path class="st9" d="M6.1,28.1c-3.1,0.6,0-4.2,0.7-0.8c0,0,0.1,0,0.1,0c-0.2-0.9-1-1.6-1.9-0.8c-1.1,1,0.1,2,1.1,1.8
						C6.1,28.2,6.1,28.1,6.1,28.1z"/>
					<path class="st9" d="M6.1,27.6C4.4,27.3,4,27,5,26.7c0.6-0.4,1.1-0.2,1.3,0.9c0,0,0.1,0,0.1,0c-0.4-1.7-2.8-1.1-2.2,0.4
						c0.5,1.3,1.8,0.5,2-0.4C6.4,27.4,6.1,27.6,6.1,27.6z"/>
					<path class="st9" d="M6.3,28c-1.8,0.8-1.8,0.8,0.3-0.1c0,0.1,0.1,0,0.1,0c-0.3-1.5-2.4-1.4-2.2,0.2c0.3,1.5,1.8,0.8,2.1-0.2
						C6.7,27.7,6.4,28,6.3,28z"/>
					<path class="st9" d="M6.7,27.6c0.1,0,0.1,0,0.2-0.1c0,0.1,0.1,0,0.1,0c-0.3-1.2-2.2-1.6-2.2,0c-0.1,1.5,1.7,1.3,2.1,0.1
						C6.9,27.5,6.8,27.5,6.7,27.6z"/>
					<path class="st9" d="M6.2,27.5c-1.4,1-1.7,1-0.7-0.1c0.4-1.1,0.7-1.1,1,0.1c0,0,0.1,0,0.1,0c-0.4-1.7-2.8-1.1-2.2,0.4
						c0.5,1.3,1.8,0.5,2-0.4C6.5,27.3,6.3,27.4,6.2,27.5z"/>
					<path class="st9" d="M6.5,27.5c-1.5,0.8-2,0.7-1.4-0.3c0.1-1.1,0.7-1,1.7,0.2c0,0.1,0.1,0,0.1,0c-0.1-0.6-0.4-1.1-1.1-1.1
						c-0.7,0-1.3,0.6-1.2,1.3c0.2,1.5,1.8,0.9,2.1-0.1C6.7,27.3,6.5,27.4,6.5,27.5z"/>
					<path class="st9" d="M6.7,27.8c0.1,0,0.1-0.1,0.2-0.1c0,0.1,0.1,0,0.1,0c-0.3-1.3-2.2-1.6-2.2,0c-0.1,1.5,1.7,1.3,2.1,0.1
						C6.9,27.6,6.7,27.7,6.7,27.8z"/>
					<path class="st9" d="M6.1,27.8c0.1,0,0.2-0.1,0.3-0.1c0,0.1,0.1,0,0.1,0c-0.4-1.8-2.8-1.1-2.1,0.4c0.5,1.3,1.8,0.5,2.1-0.4
						C6.5,27.5,6.1,27.7,6.1,27.8z"/>
				</g>
			</g>
		</g>
		<g>
			<linearGradient id="SVGID_3_" gradientUnits="userSpaceOnUse" x1="14.4708" y1="26.6239" x2="14.8181" y2="28.5939">
				<stop  offset="0" style="stop-color:#FFFFFF"/>
				<stop  offset="1" style="stop-color:#000000"/>
			</linearGradient>
			<circle class="st11" cx="14.6" cy="27.6" r="1"/>
			<g>
				<g>
					<path class="st9" d="M15.5,28.1c-1.4-0.7-1.7-1.1-0.9-1.1c0.6-0.2,1,0.2,1.2,1c0,0.1,0.1,0,0.1,0c-0.4-2.1-3-0.6-2,0.7
						c0.7,0.9,1.6,0.2,1.8-0.6C15.7,27.9,15.5,28,15.5,28.1z"/>
					<path class="st9" d="M15.2,27.9c0.1,0,0.1-0.1,0.2-0.1c0,0.1,0.1,0.1,0.1,0c-0.4-1.8-2.7-1.1-2.1,0.4c0.5,1.3,1.8,0.4,2.1-0.5
						C15.6,27.5,15.2,27.8,15.2,27.9z"/>
					<path class="st9" d="M15.3,27.5c0,0.1-2.4,1-1.7-0.4c0.1-0.4,0.3-0.5,0.8-0.4c0.7-0.4,1.1-0.1,1.1,0.7c0,0,0.1,0,0.1,0
						c-0.5-2.1-3.1-0.7-2,0.7c0.7,0.9,1.6,0.3,1.8-0.6C15.4,27.4,15.3,27.4,15.3,27.5z"/>
					<path class="st9" d="M15.5,27.8c-1.8,0.9-1.8,0.9,0.2-0.1c0,0.1,0.1,0.1,0.1,0c-0.3-1.2-2.1-1.7-2.2-0.1
						c-0.1,1.6,1.8,1.3,2.1,0.1C15.8,27.5,15.5,27.7,15.5,27.8z"/>
					<path class="st9" d="M15,28.3c-3.1,0.6,0-4.2,0.7-0.8c0,0,0.1,0,0.1,0c-0.2-0.9-1-1.6-1.9-0.8c-1.1,1,0.1,2,1.1,1.8
						C15.1,28.4,15,28.2,15,28.3z"/>
					<path class="st9" d="M15,27.8c-1.7-0.3-2.1-0.7-1.1-1c0.6-0.4,1.1-0.2,1.3,0.9c0,0,0.1,0,0.1,0c-0.4-1.7-2.8-1.1-2.2,0.4
						c0.5,1.3,1.8,0.5,2-0.4C15.3,27.5,15,27.7,15,27.8z"/>
					<path class="st9" d="M15.3,28.2C13.4,29,13.5,29,15.5,28c0,0.1,0.1,0,0.1,0c-0.3-1.5-2.4-1.4-2.2,0.2c0.3,1.5,1.8,0.8,2.1-0.2
						C15.6,27.8,15.3,28.1,15.3,28.2z"/>
					<path class="st9" d="M15.7,27.7c0.1,0,0.1,0,0.2-0.1c0,0.1,0.1,0,0.1,0c-0.3-1.2-2.2-1.6-2.2,0c-0.1,1.5,1.7,1.3,2.1,0.1
						C15.8,27.7,15.7,27.7,15.7,27.7z"/>
					<path class="st9" d="M15.2,27.6c-1.4,1-1.7,1-0.7-0.1c0.4-1.1,0.7-1.1,1,0.1c0,0,0.1,0,0.1,0c-0.4-1.7-2.8-1.1-2.2,0.4
						c0.5,1.3,1.8,0.5,2-0.4C15.4,27.4,15.2,27.6,15.2,27.6z"/>
					<path class="st9" d="M15.4,27.6c-1.5,0.8-2,0.7-1.4-0.3c0.1-1.1,0.7-1,1.7,0.2c0,0.1,0.1,0,0.1,0c-0.1-0.6-0.4-1.1-1.1-1.1
						c-0.7,0-1.3,0.6-1.2,1.3c0.2,1.5,1.8,0.9,2.1-0.1C15.6,27.4,15.4,27.5,15.4,27.6z"/>
					<path class="st9" d="M15.6,27.9c0.1,0,0.1-0.1,0.2-0.1c0,0.1,0.1,0,0.1,0c-0.3-1.3-2.2-1.6-2.2,0c-0.1,1.5,1.7,1.3,2.1,0.1
						C15.8,27.8,15.6,27.9,15.6,27.9z"/>
					<path class="st9" d="M15,27.9c0.1,0,0.2-0.1,0.3-0.1c0,0.1,0.1,0,0.1,0c-0.4-1.8-2.8-1.1-2.1,0.4c0.5,1.3,1.8,0.5,2.1-0.4
						C15.4,27.6,15.1,27.9,15,27.9z"/>
				</g>
			</g>
		</g>
		<g>
			<linearGradient id="SVGID_4_" gradientUnits="userSpaceOnUse" x1="24.2938" y1="26.4905" x2="24.6411" y2="28.4605">
				<stop  offset="0" style="stop-color:#FFFFFF"/>
				<stop  offset="1" style="stop-color:#000000"/>
			</linearGradient>
			<circle class="st12" cx="24.5" cy="27.5" r="1"/>
			<g>
				<g>
					<path class="st9" d="M25.3,28c-1.4-0.7-1.7-1.1-0.9-1.1c0.6-0.2,1,0.2,1.2,1c0,0.1,0.1,0,0.1,0c-0.4-2.1-3-0.6-2,0.7
						c0.7,0.9,1.6,0.2,1.8-0.6C25.6,27.7,25.3,27.9,25.3,28z"/>
					<path class="st9" d="M25,27.8c0.1,0,0.1-0.1,0.2-0.1c0,0.1,0.1,0.1,0.1,0c-0.4-1.8-2.7-1.1-2.1,0.4c0.5,1.3,1.8,0.4,2.1-0.5
						C25.4,27.4,25.1,27.7,25,27.8z"/>
					<path class="st9" d="M25.1,27.4c0,0.1-2.4,1-1.7-0.4c0.1-0.4,0.3-0.5,0.8-0.4c0.7-0.4,1.1-0.1,1.1,0.7c0,0,0.1,0,0.1,0
						c-0.5-2.1-3.1-0.7-2,0.7c0.7,0.9,1.6,0.3,1.8-0.6C25.2,27.3,25.1,27.3,25.1,27.4z"/>
					<path class="st9" d="M25.3,27.7c-1.8,0.9-1.8,0.9,0.2-0.1c0,0.1,0.1,0.1,0.1,0c-0.3-1.2-2.1-1.7-2.2-0.1
						c-0.1,1.6,1.8,1.3,2.1,0.1C25.6,27.4,25.3,27.6,25.3,27.7z"/>
					<path class="st9" d="M24.8,28.1c-3.1,0.6,0-4.2,0.7-0.8c0,0,0.1,0,0.1,0c-0.2-0.9-1-1.6-1.9-0.8c-1.1,1,0.1,2,1.1,1.8
						C24.9,28.2,24.9,28.1,24.8,28.1z"/>
					<path class="st9" d="M24.9,27.6c-1.7-0.3-2.1-0.7-1.1-1c0.6-0.4,1.1-0.2,1.3,0.9c0,0,0.1,0,0.1,0c-0.4-1.7-2.8-1.1-2.2,0.4
						c0.5,1.3,1.8,0.5,2-0.4C25.1,27.4,24.9,27.6,24.9,27.6z"/>
					<path class="st9" d="M25.1,28c-1.8,0.8-1.8,0.8,0.3-0.1c0,0.1,0.1,0,0.1,0c-0.3-1.5-2.4-1.4-2.2,0.2c0.3,1.5,1.8,0.8,2.1-0.2
						C25.4,27.7,25.1,28,25.1,28z"/>
					<path class="st9" d="M25.5,27.6c0.1,0,0.1,0,0.2-0.1c0,0.1,0.1,0,0.1,0c-0.3-1.2-2.2-1.6-2.2,0c-0.1,1.5,1.7,1.3,2.1,0.1
						C25.6,27.5,25.5,27.5,25.5,27.6z"/>
					<path class="st9" d="M25,27.5c-1.4,1-1.7,1-0.7-0.1c0.4-1.1,0.7-1.1,1,0.1c0,0,0.1,0,0.1,0c-0.4-1.7-2.8-1.1-2.2,0.4
						c0.5,1.3,1.8,0.5,2-0.4C25.2,27.3,25,27.4,25,27.5z"/>
					<path class="st9" d="M25.2,27.5c-1.5,0.8-2,0.7-1.4-0.3c0.1-1.1,0.7-1,1.7,0.2c0,0.1,0.1,0,0.1,0c-0.1-0.6-0.4-1.1-1.1-1.1
						c-0.7,0-1.3,0.6-1.2,1.3c0.2,1.5,1.8,0.9,2.1-0.1C25.4,27.3,25.2,27.4,25.2,27.5z"/>
					<path class="st9" d="M25.4,27.8c0.1,0,0.1-0.1,0.2-0.1c0,0.1,0.1,0,0.1,0c-0.3-1.3-2.2-1.6-2.2,0c-0.1,1.5,1.7,1.3,2.1,0.1
						C25.6,27.6,25.4,27.7,25.4,27.8z"/>
					<path class="st9" d="M24.9,27.8c0.1,0,0.2-0.1,0.3-0.1c0,0.1,0.1,0,0.1,0c-0.4-1.8-2.8-1.1-2.1,0.4c0.5,1.3,1.8,0.5,2.1-0.4
						C25.2,27.5,24.9,27.7,24.9,27.8z"/>
				</g>
			</g>
		</g>
	</g>
</g>
</svg>
