<?xml version="1.0" encoding="utf-8"?>
<!-- Generator: Adobe Illustrator 21.0.2, SVG Export Plug-In . SVG Version: 6.00 Build 0)  -->
<svg version="1.1" id="Layer_1" xmlns="http://www.w3.org/2000/svg" xmlns:xlink="http://www.w3.org/1999/xlink" x="0px" y="0px"
	 viewBox="0 0 30 30" style="enable-background:new 0 0 30 30;" xml:space="preserve">
<style type="text/css">
	.st0{fill:#D1154B;}
	.st1{opacity:0.1091;fill:#070707;}
	.st2{fill:url(#SVGID_1_);}
	.st3{opacity:0.1091;fill:#111111;}
	.st4{fill:url(#SVGID_2_);}
	.st5{fill:url(#SVGID_3_);}
	.st6{fill:url(#SVGID_4_);}
	.st7{fill:#F4BDCF;}
	.st8{opacity:0.1091;fill:#F4BDCF;}
	.st9{fill:#510B24;}
	.st10{opacity:0.1091;fill:#681533;}
	.st11{fill:#E84279;}
	.st12{opacity:0.1797;fill:#E84279;}
</style>
<g>
	<g>
		<path class="st0" d="M21,29.9H9c-2.2,0-5-1.8-5-4c0,0-0.3-4,0.8-8s0.8-8.1,4.2-8c4.1-0.9,9.6,0.4,12,0c3.3,0.8,3.4,1.3,4,4
			c1,4.2,1.1,12.1,1.1,12.1C26.1,28.3,23.2,29.9,21,29.9z"/>
		<g>
			<g>
				<path class="st1" d="M20.7,30c-2.6,0-5.2,0-7.8,0c-3,0-5.5,0.3-8-1.7c0,0-0.1,0.1-0.1,0.1c1.2,1,2.2,1.6,3.8,1.7
					c0.8,0.1,1.7,0,2.6,0c3.1,0,6.3,0,9.4,0C20.7,30.1,20.8,30,20.7,30z"/>
				<path class="st1" d="M20.4,29.7c-3.9,0-7.9,0.3-11.8,0c-1.9-0.1-1.6-0.4-3.2-2.2c-1.3-0.7-1.9-1.7-1.7-2.9c0-0.4,0-0.9,0.1-1.3
					c0.2-3,1.1-5.9,1.7-8.8c0,0-0.1-0.1-0.1-0.1c-0.8,3.7-2.1,7.5-1.8,11.4c0.1,1.1,0.4,1.7,1.1,2.5c1.7,1.8,4.1,1.7,6.5,1.7
					c3.1,0,6.3,0,9.4,0C20.7,30,20.5,29.7,20.4,29.7z"/>
				<path class="st1" d="M20.3,29.5c-2,0-4,0-6,0c-1.4,0-2.7,0-4.1,0c-0.9,0-2.4,0.2-3.2-0.2c-0.1,0-3.3-4-3.4-4
					c-0.3-1.1,0.2-3.5,0.4-4.8c0.2-1.6,0.7-3,1-4.6c0.4-1.9,0.6-3.6,1.7-5.3c0,0-0.1-0.1-0.1-0.1C5.6,12.1,5.4,14,5,15.9
					c-0.6,2.4-1.2,4.7-1.4,7.2c-0.1,1.5-0.4,3.1,0.6,4.4c1.2,1.7,3.2,2.3,5.2,2.3c3.7,0,7.5,0,11.2,0C20.7,29.8,20.4,29.5,20.3,29.5
					z"/>
				<path class="st1" d="M8.9,9.9c0,0,0-0.1,0-0.1C8.9,9.7,8.9,9.9,8.9,9.9z"/>
				<path class="st1" d="M15.5,9.8c0,0,0-0.1,0-0.1C15.5,9.7,15.5,9.8,15.5,9.8z"/>
				<path class="st1" d="M20.5,29.2c-2.6,0-5.2,0-7.8,0c-3.8,0-9,0.5-8.8-5.3c0.1-2.6,0.5-5,1.2-7.5c0.2-0.8,0.4-1.6,0.6-2.5
					c0-1.3,0.6-2.3,1.9-2.9c0.9-1.4,2.1-1.9,3.7-1.7c1.1,0,2.2,0,3.3,0.1c2.2,0.2,4.3,0.4,6.5,0.3c0,0,0.1-0.1,0.1-0.1
					c-4,0.2-8-0.6-12-0.2c-1.1,0.1-1.4,0-2.2,0.8c-1.1,1.1-1.3,3.2-1.6,4.6c-0.6,2.9-1.4,5.7-1.5,8.7c0,1.1-0.2,2.1,0.2,3.1
					c0.6,1.3,2.1,2.4,3.4,2.7c1.8,0.4,3.8,0.2,5.6,0.2c2.6,0,5.2,0,7.8,0C20.9,29.6,20.7,29.2,20.5,29.2z"/>
				<path class="st1" d="M20.8,29.2c-3.1,0-6.3,0-9.4,0c-1.5,0-3.1,0.1-4.6-0.5c-3.2-1.4-2.8-4.9-2.4-7.7c0.2-1.9,0.8-3.7,1.2-5.5
					c0.7-2.7,0.4-5,3.7-6c2.2,0,4.5,0,6.7,0c1.3,0.1,2.6,0.2,3.9,0.3c1.9,0.2,3.6,0.1,4.7,1.9c0,0,0.1-0.1,0.1-0.1
					c-1.4-2.4-4.2-1.9-6.6-2.1c-2.9-0.2-5.7-0.4-8.7-0.2c-1.1,0.1-1.5,0-2.3,0.8c-0.9,1-1.2,2.6-1.4,3.8c-0.4,1.8-0.9,3.6-1.2,5.4
					c-0.4,2.1-0.9,4.9-0.2,7c0.3,0.9,1.3,1.8,2.1,2.2c1.7,0.9,3.5,0.8,5.3,0.8c3.1,0,6.3,0,9.4,0C21.1,29.5,20.9,29.2,20.8,29.2z"/>
				<path class="st1" d="M4.1,26c0.2-3,0.5-5.9,1.2-8.8c0.6-2.6,1.9-4.9,4-6.9c1.5-0.1,3-0.1,4.4-0.2c2.1,0,4.1,0.5,6.2,0.5
					c0.5,0,1,0,1.4-0.1c1.7,0.1,2.5,1.2,2.7,3.1c1.1,1.4,1.6,3,1.5,4.7c0.1,0.7,0.1,1.3,0.2,2c0.1,1.7,0.2,3.4,0.2,5.1
					c0,2.6,0.2,4.2-5,4.8c-0.1,0-0.1,0.2,0,0.1c1.8-0.2,3.9-0.7,4.9-2.5c0.9-1.6,0.4-4.2,0.3-5.9c-0.2-3.1-0.1-6.7-1.3-9.6
					c-0.3-0.7-0.6-1-1.2-1.4c-1.2-0.8-2.4-0.7-3.8-0.7c-2.8,0-5.5-0.6-8.3-0.4c-1.4,0.1-3.3-0.1-4.3,1c-1.3,1.3-1.3,3.8-1.7,5.4
					c-0.4,1.9-1,3.7-1.2,5.5C4.1,23.2,4.1,24.6,4,26C4,26,4.1,26,4.1,26z"/>
				<path class="st1" d="M20.6,29.7c-3.7,0-7.5,0.1-11.2,0c-0.4,0-0.9,0-1.3-0.1c-1.2,0-2.1-0.7-2.5-2.1c-1.7-2.1-1.8-1.6-1.7-3.6
					c0.2-3.2,1-6.3,1.7-9.5c0.1-0.5,0.2-1,0.3-1.5C7,12,8,11,9,10.1c2-0.7,4.7-0.2,6.7,0c1.3,0.1,2.6,0.3,3.9,0.3c0.5,0,1,0,1.4-0.1
					c1.2,0.9,2.3,1.8,3.5,2.8c0.6,1.5,0.6,3.4,0.8,5c0.2,1.6,0.2,3.2,0.3,4.8c0.1,3.4,0.9,6.4-4.9,7.1c-0.2,0-0.2,0.2,0,0.1
					c1.7-0.2,3.3-0.6,4.4-2.1c0.5-0.7,0.7-1.2,0.8-2.1c0.1-0.8,0-1.7-0.1-2.5c-0.1-1.9-0.2-3.8-0.4-5.7c-0.2-1.8-0.3-3.9-1-5.6
					c-0.1-0.3-0.3-0.6-0.5-0.8c-0.7-0.8-2-1.2-3-1.3c-0.8,0.1-1.6,0.1-2.4,0c-1,0-2-0.1-3-0.2c-1.1-0.1-2.2-0.2-3.3-0.2
					c-0.7,0-1.4,0-2.2,0.1C9.3,9.9,8.6,10,7.8,10c-0.2,0.1-0.3,0.2-0.5,0.3c-1.1,0.8-1.4,2.1-1.7,3.4c-0.7,3.2-1.6,6.3-1.8,9.6
					c-0.1,1.2-0.3,2.5,0.2,3.7c0.7,1.9,3,2.8,4.8,3c1.7,0.2,3.5,0,5.1,0c2.3,0,4.6,0,6.9,0C20.9,30,20.7,29.7,20.6,29.7z"/>
				<path class="st1" d="M25.1,15.6c0.3,2.5,0.5,5.1,0.5,7.7c0.1,3.2,0.7,5.8-5,6.3c-0.1,0-0.1,0.2,0,0.1c1.8-0.2,3.9-0.6,4.9-2.5
					c0.6-1.1,0.3-2.8,0.3-4c-0.1-2.6-0.3-5.1-0.5-7.7C25.2,15.6,25.1,15.6,25.1,15.6z"/>
				<path class="st1" d="M20.9,29.7c-3.7,0-7.5,0.1-11.2,0c-0.7,0-1.4,0-2.1-0.2c-1.1-1.3-2.3-2.7-3.4-4c-0.2-1.2,0.1-2.8,0.2-3.9
					c0.3-2.7,1.1-5.3,1.7-7.9c0.1-0.5,0.2-0.9,0.4-1.4C6.6,11.5,7,11,7.9,10.8c1-0.9,2.1-1.2,3.5-0.9c1.1-0.2,2.3-0.2,3.4,0
					c1.7,0.1,3.4,0.4,5,0.4c1,0,1.9-0.1,2.8,0.3c0.9,1.8,1.8,3.6,2.7,5.3c0.1,0.7,0.2,1.3,0.2,2c0.1,1.3,0.2,2.6,0.3,4
					c0.1,1.2,0.1,2.4,0.1,3.6c0,2.4,0.1,3.8-5,4.4c-0.2,0-0.1,0.2,0,0.1c1.9-0.2,3.9-0.8,4.9-2.6c0.4-0.8,0.3-1.7,0.3-2.6
					c0-1.1-0.1-2.1-0.1-3.2c-0.1-2.9-0.4-5.9-1.1-8.7c-0.4-1.5-1-2.1-2.4-2.7C21,9.7,19.4,10,17.8,9.9c-1.4-0.1-2.9-0.2-4.3-0.3
					c-0.5,0-1.5,0-2.3,0c-0.9,0.1-2.4,0-3.2,0.4c-2.5,1.1-2.5,4.8-3,7.1c-0.6,2.3-1,4.6-1.1,7c0,0.9-0.2,2.1,0.2,3
					c0.8,1.8,2.9,2.8,4.8,2.9c4,0.2,8,0,12,0C21.2,29.9,21,29.7,20.9,29.7z"/>
				<path class="st1" d="M23.6,28.9c-0.9,0.4-1.8,0.6-2.7,0.6c-0.1,0,0,0.2,0,0.1c1,0,1.9-0.2,2.8-0.6C23.7,29,23.6,28.9,23.6,28.9z
					"/>
				<path class="st1" d="M23.7,11.4c1.4,2.4,1.4,5.8,1.5,8.5c0.1,1.7,0.2,3.4,0.2,5.1c0,2.6,0.1,4.3-5,4.8c-0.2,0-0.2,0.2,0,0.1
					c1.7-0.2,4.1-0.7,4.9-2.6c0.3-0.8,0.3-1.7,0.3-2.5c0-1.7-0.1-3.4-0.2-5.1c-0.2-2.7-0.2-6.1-1.6-8.5
					C23.8,11.3,23.7,11.4,23.7,11.4z"/>
				<path class="st1" d="M8,10.4c1.1-0.1,2.2-0.2,3.3-0.3c2.2,0,4.4,0.2,6.6,0.4c1.1,0.1,2.2,0.2,3.3,0.1c2.6,1.4,3.9,3.3,3.9,5.9
					c0.3,2.5,0.5,5,0.6,7.6c0,0.8,0,1.6,0,2.4c0,2.2-1.6,3.5-5,3.9c-0.1,0-0.1,0.2,0,0.1c1.9-0.2,4-0.8,4.9-2.6
					c0.8-1.6,0.3-4,0.2-5.7c-0.1-2.7-0.4-5.5-1-8.1c-0.2-1.1-0.4-2.1-1.5-2.8c-1.9-1.2-4.5-0.7-6.6-0.9C13.7,10,11,10,7.9,10.3
					C7.9,10.3,7.9,10.4,8,10.4z"/>
				<path class="st1" d="M21.1,29.6c-3.7,0-7.5,0-11.2,0c-1.7,0-0.7,0-3.2-2.1C4,25,4.2,25.8,4.5,22.9c0.2-3,1-5.8,1.7-8.6
					c0.2-0.9,0.3-2,0.8-2.8c0.8-0.5,1.6-1,2.5-1.6c1.5-0.1,3-0.2,4.5-0.2c1.5,0,2.9,0.2,4.4,0.4c1.1,0.1,2.2-0.1,3.3,0.1
					c0.4,0.1,0.9,0.3,1.3,0.4c0.9,1.8,1.8,3.6,2.6,5.4c0.4,1.5,0.3,3.4,0.4,4.9c0.2,3.7,1.3,8.4-4.9,9c-0.1,0-0.1,0.2,0,0.1
					c2.2-0.2,4.9-1.1,5.2-3.7c0.2-1.4,0-3.1-0.1-4.5c-0.1-2.6-0.3-5.2-0.8-7.7c-0.3-1.6-0.6-2.9-2.2-3.6c-1.2-0.5-2.1-0.5-3.3-0.5
					c-1.7,0-3.4-0.2-5.1-0.3c-2.1-0.1-3.9,0-5.9,0.2c-1.7,0.2-2.3,1.5-2.8,3.1c-0.4,1.3-0.5,2.7-0.9,4c-0.4,1.6-0.8,3.1-0.9,4.7
					c-0.1,1.3-0.3,2.7-0.2,4.1c0.2,2.5,2.6,4,4.9,4.1c4,0.2,8,0,12,0C21.2,29.8,21.2,29.6,21.1,29.6z"/>
				<path class="st1" d="M20.4,29.4c-2,0-4,0-6,0c-2,0-4,0.2-6,0c-0.9-0.3-1.7-0.5-2.6-0.8c-0.7-1.1-1.4-2.2-2-3.3
					c-0.4-1.4,0.3-4.5,0.6-5.9c0.3-1.8,0.8-3.5,1.2-5.3c0.1-0.5,0.2-1,0.3-1.5c0.9-2,2.3-3,4.2-3c3.1-0.3,6.3,0.1,9.4,0.4
					c2.4,0.2,4.3,0.3,5,2.8c0.7,2.9,0.9,5.9,1,8.9c0.1,3.6,1.1,7.4-4.9,8c-0.2,0-0.2,0.2,0,0.1c1.8-0.2,3.9-0.7,4.8-2.5
					c0.4-0.8,0.4-1.8,0.4-2.6c-0.1-2.7-0.2-5.4-0.5-8.1C25,15,25,12.5,23.9,11.1c-0.8-1-2.4-1.4-3.7-1.3c-3,0.1-6.1-0.5-9.2-0.5
					c-1.2,0-3.3,0-4.3,1c-1.1,1.1-1.3,3.2-1.6,4.6c-0.4,2.1-1.1,4.2-1.3,6.4c-0.2,1.4-0.7,4,0,5.5c0.9,1.8,3,2.9,5,2.9
					c3.9,0.1,7.9,0,11.8,0C20.9,29.7,20.5,29.4,20.4,29.4z"/>
				<path class="st1" d="M20.7,29.4c-3.7,0-7.5,0-11.2,0c-1,0-2.6-0.2-3.4-0.8c-0.7-1.1-1.4-2.2-2.1-3.3c0-0.4,0-0.7,0-1.1
					C4.2,21,5,18.1,5.6,14.9c0.2-1,0.4-2,0.7-3c0.1-0.8,0.6-1.3,1.5-1.4c1.3-1.1,2.8-1.4,4.6-0.8c1.5-0.1,3-0.1,4.4,0.1
					c1,0.1,1.9,0.2,2.9,0.2c1.6,0.9,3.3,1.8,4.9,2.7c0.1,0.4,0.2,0.8,0.3,1.2c0.5,2.5,0.7,5.1,0.8,7.7c0.1,1.2,0.1,2.4,0.1,3.6
					c0,2.4,0.1,3.8-5,4.4c-0.2,0-0.1,0.2,0,0.1c1.8-0.2,4-0.7,4.9-2.5c0.7-1.6,0.3-4.1,0.2-5.7c-0.2-2.9-0.3-6-1.1-8.8
					c-0.4-1.7-1.3-2.3-3-2.8c-0.8-0.2-1.3-0.1-2.1-0.1c-1.7,0-3.4-0.3-5-0.4c-2.1-0.1-4,0-6.1,0.2c-2.3,0.2-2.7,2.7-3.1,4.6
					c-0.6,2.9-1.4,5.8-1.6,8.8c-0.1,1.1-0.2,2.5,0.2,3.6c0.7,1.9,3,3,4.9,3.1c4,0.2,8,0,12,0C21.1,29.7,20.8,29.4,20.7,29.4z"/>
				<path class="st1" d="M21.1,29.8c-3.7,0-7.5,0-11.2,0c-0.7,0-1.5,0-2.1-0.2c-1.2-1.4-2.3-2.7-3.5-4.1c0-0.3,0-0.6,0-0.9
					c0.1-3.2,1-6.2,1.6-9.3c0.2-1,0.4-2,0.7-2.9c0.1-0.8,0.6-1.3,1.5-1.4c1-0.9,2.2-1.2,3.5-0.9c2.3-0.1,4.3,0.1,6.6,0.2
					c1.1,0.1,2.2-0.1,3.3,0.1c0.5,0.1,0.9,0.3,1.4,0.4c0.9,1.8,1.8,3.6,2.6,5.4c0.5,1.9,0.4,4,0.5,6c0.1,1.2,0.1,2.4,0.1,3.6
					c0,2.4,0.1,3.8-5,4.4c-0.1,0-0.1,0.2,0,0.1c1.8-0.2,4-0.7,4.9-2.6c0.8-1.6,0.3-4.1,0.2-5.7c-0.1-2.5-0.3-5.1-0.8-7.6
					c-0.2-1-0.3-2.1-1-2.9c-0.9-1-2.6-1.4-3.8-1.3c-3,0.2-6-0.6-9-0.3c-2.2,0.2-3.9,0-4.9,2.1c-0.5,1-0.7,2.5-0.9,3.6
					c-0.3,1.5-0.7,3-1,4.5c-0.4,1.8-0.6,3.8-0.5,5.7C4.3,28.2,6.5,29.8,9,30c4,0.2,8,0,12,0C21.1,30,21.2,29.8,21.1,29.8z"/>
				<path class="st1" d="M11,9.8c2.2,0,4.4,0.2,6.5,0.4c1.1,0.1,2.2-0.1,3.3,0c1.2,0.9,2.3,1.9,3.5,2.8c0.1,0.7,0.3,1.4,0.4,2.1
					c0.4,2.5,0.5,5.1,0.6,7.7c0.1,3.4,0.8,6.4-4.9,7.1c-0.1,0-0.2,0.2-0.1,0.2c1.5-0.1,2.9-0.4,4.1-1.5c0.8-0.7,1.1-1.4,1.2-2.4
					c0.2-1.7-0.1-3.7-0.2-5.4c-0.1-2.4-0.4-4.8-0.9-7.2c-0.1-0.7-0.3-1.6-0.8-2.2c-0.4-0.5-1-0.7-1.6-0.9c-1.5-0.6-3.2-0.4-4.8-0.5
					c-2.2-0.2-4.3-0.3-6.5-0.4C11,9.7,11,9.8,11,9.8z"/>
			</g>
		</g>
	</g>
	<g>
		<g>
			<linearGradient id="SVGID_1_" gradientUnits="userSpaceOnUse" x1="14.2106" y1="23.0233" x2="15.7894" y2="31.9767">
				<stop  offset="0" style="stop-color:#FFFFFF"/>
				<stop  offset="1" style="stop-color:#000000"/>
			</linearGradient>
			<rect x="3" y="25" class="st2" width="24" height="5"/>
			<g>
				<g>
					<path class="st3" d="M26.8,30.1c-4.4,0-8.9,0-13.3,0c-2.6,0-5.3,0-7.9,0c-0.8,0-1.7,0-2.5,0c-0.4-0.2-0.4-0.5-0.2-1
						c0,0-0.1,0-0.1,0c0,0.3,0,0.7-0.1,1c0,0,0,0,0,0c8,0,16,0,24,0C26.7,30.2,26.8,30.1,26.8,30.1z"/>
					<path class="st3" d="M26.6,29.4c-8,0-16,0-24,0c0.1,0.1,0.2,0.2,0.3,0.3C2.9,28.4,3,27.2,3,26c0-0.4-0.1-1.1,0.2-1.3
						c0.4-0.2,2.6,0.1,2.7,0.1c6.6,0.2,13.2,0.1,19.8,0.1c0,0,0.1-0.1,0.1-0.1c-4.4,0-8.8,0-13.3-0.1c-2.2,0-4.4,0-6.7-0.1
						c-0.9,0-1.9,0.1-2.8-0.2c-0.1,0-0.1,0.1-0.1,0.2c0,1.5,0.2,3.4-0.3,4.8c0,0.1,0.2,0.3,0.3,0.3c8,0,16,0,24,0
						C27,29.7,26.7,29.4,26.6,29.4z"/>
					<path class="st3" d="M27,25.2c0,0,0.1-0.1,0.1-0.1C27,25.1,27,25.2,27,25.2z"/>
					<path class="st3" d="M26.9,29.4c-5.3,0-10.5,0-15.8,0c-2.4,0-4.9,0.1-7.4,0c-0.8,0-0.4,0.1-0.6-0.5c-0.2-0.6,0.1-2,0.1-2.5
						c0-0.3-0.1-1.5,0.1-1.7c0.2-0.2,1.1,0,1.3,0c2.7,0.1,5.5,0.1,8.2,0.1c3.6,0,7.2,0,10.8,0.1c1,0,2-0.1,3,0c0.8,0.1,0.8,0,0.7,1
						c0,0,0.1,0,0.1,0c0-0.3,0-0.7,0.1-1c0,0,0,0,0,0c-3.6,0-7.2,0-10.7-0.1c-2.5,0-4.9-0.1-7.4-0.1c-1.8,0-4.2,0.4-5.9-0.3
						c-0.1,0-0.2,0.2-0.2,0.2c0,1.6,0.1,3.3-0.2,4.8c0,0.1,0.1,0.2,0.2,0.2c8,0,16,0,24,0C27.1,29.6,26.9,29.4,26.9,29.4z"/>
					<path class="st3" d="M27,30.1c-6.4,0-12.8,0-19.2,0c-0.9,0-1.8,0-2.7,0c-0.6,0-1.2,0-1.7,0c-0.4-0.2-0.2,0.1-0.3-0.3
						c-0.1-0.3,0.1-1.6,0.1-1.7c0-0.7-0.1-1.7,0.1-2.4c0.3-0.7,0.2-0.5,1.3-0.5c1.5,0.1,3.1,0.1,4.6,0.1c4.1,0.1,8.2,0.1,12.3,0.1
						c1.5,0,3.1,0,4.6,0c0.3,0,0.7,0,1,0c0.1,0.1,0.2,0.3,0.1,0.5c0.3,0.5,0,1.9-0.1,2.5c0,0.7,0,1.3-0.1,2c0,0.1,0.2,0,0.2-0.1
						c0-1.4-0.2-3.5,0.3-4.9c0-0.1-0.2-0.2-0.3-0.2c-4,0-8,0-11.9,0c-4,0-8,0.2-12-0.2c0,0,0,0,0,0c-0.1,1.3-0.1,2.7-0.2,4
						c0,0.3,0,0.7-0.1,1c0.3,0,0.6,0,0.8,0c1.3,0,2.6,0,3.9,0C14,30.2,20.5,30.2,27,30.1C26.9,30.2,26.9,30.1,27,30.1z"/>
					<path class="st3" d="M26.6,29.8c-6,0-12.1,0-18.1,0c-1.5,0-3,0-4.5,0c-0.3,0-0.9,0.1-1.1-0.1c-0.3-0.3,0.1-1.9,0.1-2.3
						c0-0.5-0.2-2,0.4-2.4c0.4-0.3,2.1,0.1,2.5,0.1c1.8,0,3.6,0.1,5.4,0.1c3.7,0,7.4,0.1,11,0.1c1.3,0,2.6-0.1,3.9,0
						c0.8,0.1,0.7-0.1,0.7,0.9c0,1.4,0,2.7-0.2,4.1c0,0.2,0.2-0.1,0.2-0.2c0-1.6-0.1-3.3,0.2-4.8c0,0-0.1-0.2-0.1-0.2c-4,0-8,0-12,0
						c-3.9,0-8.1,0.3-12-0.2c0,0-0.1,0.1-0.1,0.1c0,1.6,0.2,3.4-0.3,4.9c0,0.1,0.2,0.2,0.2,0.2c8,0,16,0,24,0
						C26.9,30.1,26.7,29.8,26.6,29.8z"/>
					<path class="st3" d="M26.8,27.9c0,0.7,0,1.3-0.1,2c0,0,0.1,0.1,0.1,0c0-0.7,0.1-1.3,0.1-2C26.9,27.9,26.8,27.9,26.8,27.9z"/>
					<path class="st3" d="M26.9,29.8c-6.4,0-12.8,0-19.2,0c-1.1,0-2.3,0-3.4,0c-1.2,0-1,0.2-1.1-0.5c-0.1-0.4-0.1-4,0.2-4.2
						c0.3-0.2,2.6,0,2.6,0c1.4,0,2.9,0,4.3,0c4.1,0,8.2,0.1,12.3,0.1c1.3,0,2.7-0.1,4,0c0.7,0.1,0.6-0.1,0.6,0.8
						c0,1.4,0,2.8-0.1,4.1c0,0.1,0.2,0,0.2-0.1c0-1.5-0.2-3.4,0.2-4.9c0-0.1-0.2-0.2-0.3-0.2c-3.6,0-7.1,0-10.7,0
						c-2.5,0-4.9,0-7.4,0c-1.9,0-3.9,0.2-5.8-0.2C3.1,24.8,3,25,3,25c0,1.6,0.1,3.3-0.2,4.8C2.9,29.9,3,30,3,30c8,0,16,0,24,0
						C27.1,30,27,29.8,26.9,29.8z"/>
					<path class="st3" d="M26.9,29.6c0,0.1,0,0.2,0,0.3c0,0,0.1,0.1,0.1,0.1c0-0.1,0-0.2,0-0.3C27.1,29.6,26.9,29.6,26.9,29.6z"/>
					<path class="st3" d="M26.4,29.7c-8,0-16,0-24,0c0.1,0.1,0.2,0.2,0.3,0.2c0-0.9,0.1-1.7,0.1-2.6c0-0.6-0.2-1.9,0.2-2.3
						c0.3-0.2,0.7-0.2,1.2,0C5.3,25,6.5,25,7.6,25c2.4,0.1,4.8,0.1,7.2,0.1c2.4,0,4.8,0,7.2,0c1.1,0,2.3,0,3.4,0c0.3,0,0.7,0,1,0
						c0.3-0.1,0.4,0,0.3,0.3c0,0.2,0,0.5,0,0.7c-0.1,1.3-0.1,2.7-0.2,4c0,0.1,0.2,0,0.2-0.1c0.1-1.3,0.1-2.6,0.2-4
						c0-0.3,0-0.6,0.1-0.9c0.1-0.2,0-0.3-0.3-0.2c-0.3,0-0.7,0-1,0c-0.8,0-1.6,0-2.5,0c-4,0-8,0-12-0.1c-2.7,0-5.6,0.1-8.3-0.3
						c0,0-0.1,0-0.1,0c-0.1,1.5,0.3,3.6-0.3,4.9c0,0.1,0.2,0.3,0.3,0.3c8,0,16,0,24,0C26.7,29.9,26.5,29.7,26.4,29.7z"/>
					<path class="st3" d="M3.1,25.2c2.2,0.5,4.7,0.3,7,0.3c4.1,0.1,8.2,0.1,12.3,0.1c1.1,0,2.3,0,3.4,0c1.2,0,1-0.2,1.1,0.5
						c0.1,0.7-0.1,1.7-0.1,2.5c0,0.7,0,1.3-0.1,2c0,0.1,0.2-0.1,0.2-0.2c0-1.5-0.1-3.3,0.3-4.8c0,0-0.1-0.2-0.2-0.2
						c-8,0-16.1,0.3-24.1-0.3C3,25.1,3.1,25.1,3.1,25.2z"/>
					<path class="st3" d="M27.1,29.7c-6.4,0-12.8,0-19.2,0c-1.1,0-2.3,0-3.4,0c-1.2,0-1,0.2-1.2-0.5c-0.1-0.4-0.1-4,0.3-4.2
						c0.3-0.2,2.6,0,2.6,0c1.4,0,2.9,0,4.3,0.1c4.1,0.1,8.2,0.1,12.3,0.1c1.3,0,2.7-0.2,4,0c0.8,0.1,0.6-0.1,0.6,0.8
						c0,1.4,0,2.7-0.1,4.1c0,0.1,0.1,0,0.1,0c0-1.5-0.3-3.5,0.3-4.9c0-0.1-0.2-0.2-0.3-0.2c-3.6,0-7.1,0-10.7,0c-2.5,0-4.9,0-7.4,0
						c-1.9,0-4,0.2-5.8-0.2c-0.1,0-0.1,0.2-0.1,0.2c0,1.6,0,3.3-0.2,4.9c0,0,0.1,0.1,0.1,0.1c8,0,16,0,24,0
						C27.2,29.9,27.2,29.7,27.1,29.7z"/>
					<path class="st3" d="M26.5,29.5c-8,0-16,0-24,0c0.1,0.1,0.2,0.2,0.3,0.3c0-0.9,0-1.7,0-2.6c0-0.6-0.2-2,0.2-2.3
						c0.4-0.2,0.7-0.2,1.2,0c1.1,0,2.3,0.1,3.4,0.1c2.4,0,4.8,0.1,7.2,0.1c2.4,0,4.8,0,7.2,0c1.1,0,2.3,0,3.4,0c0.3,0,0.7,0,1,0
						c0.5,0.4,0.2,1.3,0.2,1.9c0,1-0.1,2-0.2,3.1c0,0.1,0.1,0,0.1-0.1c0.1-1.7,0.1-3.4,0.3-5c0,0,0,0,0,0c-4,0-8,0-12-0.1
						c-2.4,0-4.8,0-7.3-0.1c-1.5,0-3.3,0.1-4.8-0.2c-0.1,0-0.1,0.1-0.1,0.1c0,1.5,0.3,3.4-0.3,4.8c0,0.1,0.2,0.3,0.3,0.3
						c8,0,16,0,24,0C26.9,29.9,26.6,29.5,26.5,29.5z"/>
					<path class="st3" d="M26.8,29.5c-8,0-16,0-24,0C2.9,29.6,3,29.7,3,29.8c0-0.9,0-1.7,0-2.6c0-0.6-0.2-2,0.2-2.3
						c0.4-0.1,0.7-0.1,1.1,0c1.2,0,2.3,0,3.5,0c2.4,0,4.9,0,7.3,0.1c2.4,0,4.8,0,7.2,0c1.1,0,2.3,0,3.4,0c0.3,0,0.7,0,1,0
						c0.5,0.3,0.2,1.4,0.1,1.9c0,1-0.1,2-0.1,3.1c0,0.1,0.1,0,0.1-0.1c0.1-1.6,0-3.3,0.2-4.9c0,0-0.1-0.1-0.1-0.1c-4,0-8,0-12,0
						c-2.4,0-4.8,0-7.3,0c-1.5,0-3.3,0.2-4.7-0.2c-0.1,0-0.2,0.2-0.2,0.2c0,1.5,0.2,3.3-0.2,4.8c0,0.1,0.2,0.3,0.3,0.3
						c8,0,16,0,24,0C27.1,29.8,26.9,29.5,26.8,29.5z"/>
					<path class="st3" d="M27.1,29.9c-4.9,0-9.7,0-14.6,0c-2.7,0-5.4,0-8.1,0c-1.4,0-1.3-0.1-1.2-1.4c0-0.7,0-1.4,0.1-2.1
						c0-0.3,0-0.6,0.2-0.9c0-0.4,0.2-0.6,0.7-0.4c0.8-0.2,2.2,0.1,3,0.1c1.5,0,3,0.1,4.5,0.1c5.3,0.1,10.6,0,15.8,0.1
						c-0.1-0.1-0.2-0.2-0.3-0.2c0,1.7,0,3.5-0.1,5.2c0,0.1,0.2,0,0.2-0.1c0-1.4-0.3-3.5,0.3-4.9c0-0.1-0.2-0.3-0.3-0.3
						c-4,0-8,0-11.9,0c-2.4,0-4.8,0-7.2,0c-1.5,0-3.2,0.1-4.7-0.2c-0.1,0-0.1,0.1-0.1,0.1c-0.1,1.7-0.1,3.3-0.2,5c0,0,0,0,0,0
						c8,0,16,0,24,0C27.1,30,27.1,29.9,27.1,29.9z"/>
					<path class="st3" d="M26.5,29.8c-6.4,0-12.8,0-19.2,0c-1.3,0-2.6,0.1-3.9,0c-0.8-0.1-0.7,0-0.6-0.9c0.1-0.9-0.3-3.5,0.5-3.9
						c0.5-0.2,2,0.1,2.5,0.1c2.2,0.1,4.4,0.1,6.6,0.1c3.6,0,7.2,0,10.8,0.1c0.8,0,1.6,0,2.5,0c0.3,0,0.7,0,1,0
						c0.5,0.4,0.1,0,0.2,0.6c0.2,0.7-0.1,1.7-0.1,2.4c0,0.7-0.1,1.3-0.1,2c0,0.1,0.2,0,0.2-0.1c0.1-1.6,0-3.3,0.2-4.9c0,0,0,0,0,0
						c-4,0-8,0-12-0.1c-4,0-8.1,0.1-12.1-0.3c0,0,0,0,0,0c-0.1,1.5,0.2,3.5-0.3,5c0,0,0.1,0.2,0.2,0.2c8,0,16,0,24,0
						C26.7,30,26.5,29.8,26.5,29.8z"/>
				</g>
			</g>
		</g>
		<g>
			<linearGradient id="SVGID_2_" gradientUnits="userSpaceOnUse" x1="5.5533" y1="26.4905" x2="5.9007" y2="28.4605">
				<stop  offset="0" style="stop-color:#FFFFFF"/>
				<stop  offset="1" style="stop-color:#000000"/>
			</linearGradient>
			<circle class="st4" cx="5.7" cy="27.5" r="1"/>
			<g>
				<g>
					<path class="st3" d="M6.5,28c-1.4-0.7-1.7-1.1-0.9-1.1c0.6-0.2,1,0.2,1.2,1c0,0.1,0.1,0,0.1,0c-0.4-2.1-3-0.6-2,0.7
						c0.7,0.9,1.6,0.2,1.8-0.6C6.8,27.7,6.6,27.9,6.5,28z"/>
					<path class="st3" d="M6.3,27.8c0.1,0,0.1-0.1,0.2-0.1c0,0.1,0.1,0.1,0.1,0c-0.4-1.8-2.7-1.1-2.1,0.4c0.5,1.3,1.8,0.4,2.1-0.5
						C6.7,27.4,6.3,27.7,6.3,27.8z"/>
					<path class="st3" d="M6.4,27.4c0,0.1-2.4,1-1.7-0.4c0.1-0.4,0.3-0.5,0.8-0.4c0.7-0.4,1.1-0.1,1.1,0.7c0,0,0.1,0,0.1,0
						c-0.5-2.1-3.1-0.7-2,0.7c0.7,0.9,1.6,0.3,1.8-0.6C6.5,27.3,6.4,27.3,6.4,27.4z"/>
					<path class="st3" d="M6.6,27.7c-1.8,0.9-1.8,0.9,0.2-0.1c0,0.1,0.1,0.1,0.1,0c-0.3-1.2-2.1-1.7-2.2-0.1
						c-0.1,1.6,1.8,1.3,2.1,0.1C6.9,27.4,6.6,27.6,6.6,27.7z"/>
					<path class="st3" d="M6.1,28.1c-3.1,0.6,0-4.2,0.7-0.8c0,0,0.1,0,0.1,0c-0.2-0.9-1-1.6-1.9-0.8c-1.1,1,0.1,2,1.1,1.8
						C6.1,28.2,6.1,28.1,6.1,28.1z"/>
					<path class="st3" d="M6.1,27.6C4.4,27.3,4,27,5,26.7c0.6-0.4,1.1-0.2,1.3,0.9c0,0,0.1,0,0.1,0c-0.4-1.7-2.8-1.1-2.2,0.4
						c0.5,1.3,1.8,0.5,2-0.4C6.4,27.4,6.1,27.6,6.1,27.6z"/>
					<path class="st3" d="M6.3,28c-1.8,0.8-1.8,0.8,0.3-0.1c0,0.1,0.1,0,0.1,0c-0.3-1.5-2.4-1.4-2.2,0.2c0.3,1.5,1.8,0.8,2.1-0.2
						C6.7,27.7,6.4,28,6.3,28z"/>
					<path class="st3" d="M6.7,27.6c0.1,0,0.1,0,0.2-0.1c0,0.1,0.1,0,0.1,0c-0.3-1.2-2.2-1.6-2.2,0c-0.1,1.5,1.7,1.3,2.1,0.1
						C6.9,27.5,6.8,27.5,6.7,27.6z"/>
					<path class="st3" d="M6.2,27.5c-1.4,1-1.7,1-0.7-0.1c0.4-1.1,0.7-1.1,1,0.1c0,0,0.1,0,0.1,0c-0.4-1.7-2.8-1.1-2.2,0.4
						c0.5,1.3,1.8,0.5,2-0.4C6.5,27.3,6.3,27.4,6.2,27.5z"/>
					<path class="st3" d="M6.5,27.5c-1.5,0.8-2,0.7-1.4-0.3c0.1-1.1,0.7-1,1.7,0.2c0,0.1,0.1,0,0.1,0c-0.1-0.6-0.4-1.1-1.1-1.1
						c-0.7,0-1.3,0.6-1.2,1.3c0.2,1.5,1.8,0.9,2.1-0.1C6.7,27.3,6.5,27.4,6.5,27.5z"/>
					<path class="st3" d="M6.7,27.8c0.1,0,0.1-0.1,0.2-0.1c0,0.1,0.1,0,0.1,0c-0.3-1.3-2.2-1.6-2.2,0c-0.1,1.5,1.7,1.3,2.1,0.1
						C6.9,27.6,6.7,27.7,6.7,27.8z"/>
					<path class="st3" d="M6.1,27.8c0.1,0,0.2-0.1,0.3-0.1c0,0.1,0.1,0,0.1,0c-0.4-1.8-2.8-1.1-2.1,0.4c0.5,1.3,1.8,0.5,2.1-0.4
						C6.5,27.5,6.1,27.7,6.1,27.8z"/>
				</g>
			</g>
		</g>
		<g>
			<linearGradient id="SVGID_3_" gradientUnits="userSpaceOnUse" x1="14.4708" y1="26.6239" x2="14.8181" y2="28.5939">
				<stop  offset="0" style="stop-color:#FFFFFF"/>
				<stop  offset="1" style="stop-color:#000000"/>
			</linearGradient>
			<circle class="st5" cx="14.6" cy="27.6" r="1"/>
			<g>
				<g>
					<path class="st3" d="M15.5,28.1c-1.4-0.7-1.7-1.1-0.9-1.1c0.6-0.2,1,0.2,1.2,1c0,0.1,0.1,0,0.1,0c-0.4-2.1-3-0.6-2,0.7
						c0.7,0.9,1.6,0.2,1.8-0.6C15.7,27.9,15.5,28,15.5,28.1z"/>
					<path class="st3" d="M15.2,27.9c0.1,0,0.1-0.1,0.2-0.1c0,0.1,0.1,0.1,0.1,0c-0.4-1.8-2.7-1.1-2.1,0.4c0.5,1.3,1.8,0.4,2.1-0.5
						C15.6,27.5,15.2,27.8,15.2,27.9z"/>
					<path class="st3" d="M15.3,27.5c0,0.1-2.4,1-1.7-0.4c0.1-0.4,0.3-0.5,0.8-0.4c0.7-0.4,1.1-0.1,1.1,0.7c0,0,0.1,0,0.1,0
						c-0.5-2.1-3.1-0.7-2,0.7c0.7,0.9,1.6,0.3,1.8-0.6C15.4,27.4,15.3,27.4,15.3,27.5z"/>
					<path class="st3" d="M15.5,27.8c-1.8,0.9-1.8,0.9,0.2-0.1c0,0.1,0.1,0.1,0.1,0c-0.3-1.2-2.1-1.7-2.2-0.1
						c-0.1,1.6,1.8,1.3,2.1,0.1C15.8,27.5,15.5,27.7,15.5,27.8z"/>
					<path class="st3" d="M15,28.3c-3.1,0.6,0-4.2,0.7-0.8c0,0,0.1,0,0.1,0c-0.2-0.9-1-1.6-1.9-0.8c-1.1,1,0.1,2,1.1,1.8
						C15.1,28.4,15,28.2,15,28.3z"/>
					<path class="st3" d="M15,27.8c-1.7-0.3-2.1-0.7-1.1-1c0.6-0.4,1.1-0.2,1.3,0.9c0,0,0.1,0,0.1,0c-0.4-1.7-2.8-1.1-2.2,0.4
						c0.5,1.3,1.8,0.5,2-0.4C15.3,27.5,15,27.7,15,27.8z"/>
					<path class="st3" d="M15.3,28.2C13.4,29,13.5,29,15.5,28c0,0.1,0.1,0,0.1,0c-0.3-1.5-2.4-1.4-2.2,0.2c0.3,1.5,1.8,0.8,2.1-0.2
						C15.6,27.8,15.3,28.1,15.3,28.2z"/>
					<path class="st3" d="M15.7,27.7c0.1,0,0.1,0,0.2-0.1c0,0.1,0.1,0,0.1,0c-0.3-1.2-2.2-1.6-2.2,0c-0.1,1.5,1.7,1.3,2.1,0.1
						C15.8,27.7,15.7,27.7,15.7,27.7z"/>
					<path class="st3" d="M15.2,27.6c-1.4,1-1.7,1-0.7-0.1c0.4-1.1,0.7-1.1,1,0.1c0,0,0.1,0,0.1,0c-0.4-1.7-2.8-1.1-2.2,0.4
						c0.5,1.3,1.8,0.5,2-0.4C15.4,27.4,15.2,27.6,15.2,27.6z"/>
					<path class="st3" d="M15.4,27.6c-1.5,0.8-2,0.7-1.4-0.3c0.1-1.1,0.7-1,1.7,0.2c0,0.1,0.1,0,0.1,0c-0.1-0.6-0.4-1.1-1.1-1.1
						c-0.7,0-1.3,0.6-1.2,1.3c0.2,1.5,1.8,0.9,2.1-0.1C15.6,27.4,15.4,27.5,15.4,27.6z"/>
					<path class="st3" d="M15.6,27.9c0.1,0,0.1-0.1,0.2-0.1c0,0.1,0.1,0,0.1,0c-0.3-1.3-2.2-1.6-2.2,0c-0.1,1.5,1.7,1.3,2.1,0.1
						C15.8,27.8,15.6,27.9,15.6,27.9z"/>
					<path class="st3" d="M15,27.9c0.1,0,0.2-0.1,0.3-0.1c0,0.1,0.1,0,0.1,0c-0.4-1.8-2.8-1.1-2.1,0.4c0.5,1.3,1.8,0.5,2.1-0.4
						C15.4,27.6,15.1,27.9,15,27.9z"/>
				</g>
			</g>
		</g>
		<g>
			<linearGradient id="SVGID_4_" gradientUnits="userSpaceOnUse" x1="24.2938" y1="26.4905" x2="24.6411" y2="28.4605">
				<stop  offset="0" style="stop-color:#FFFFFF"/>
				<stop  offset="1" style="stop-color:#000000"/>
			</linearGradient>
			<circle class="st6" cx="24.5" cy="27.5" r="1"/>
			<g>
				<g>
					<path class="st3" d="M25.3,28c-1.4-0.7-1.7-1.1-0.9-1.1c0.6-0.2,1,0.2,1.2,1c0,0.1,0.1,0,0.1,0c-0.4-2.1-3-0.6-2,0.7
						c0.7,0.9,1.6,0.2,1.8-0.6C25.6,27.7,25.3,27.9,25.3,28z"/>
					<path class="st3" d="M25,27.8c0.1,0,0.1-0.1,0.2-0.1c0,0.1,0.1,0.1,0.1,0c-0.4-1.8-2.7-1.1-2.1,0.4c0.5,1.3,1.8,0.4,2.1-0.5
						C25.4,27.4,25.1,27.7,25,27.8z"/>
					<path class="st3" d="M25.1,27.4c0,0.1-2.4,1-1.7-0.4c0.1-0.4,0.3-0.5,0.8-0.4c0.7-0.4,1.1-0.1,1.1,0.7c0,0,0.1,0,0.1,0
						c-0.5-2.1-3.1-0.7-2,0.7c0.7,0.9,1.6,0.3,1.8-0.6C25.2,27.3,25.1,27.3,25.1,27.4z"/>
					<path class="st3" d="M25.3,27.7c-1.8,0.9-1.8,0.9,0.2-0.1c0,0.1,0.1,0.1,0.1,0c-0.3-1.2-2.1-1.7-2.2-0.1
						c-0.1,1.6,1.8,1.3,2.1,0.1C25.6,27.4,25.3,27.6,25.3,27.7z"/>
					<path class="st3" d="M24.8,28.1c-3.1,0.6,0-4.2,0.7-0.8c0,0,0.1,0,0.1,0c-0.2-0.9-1-1.6-1.9-0.8c-1.1,1,0.1,2,1.1,1.8
						C24.9,28.2,24.9,28.1,24.8,28.1z"/>
					<path class="st3" d="M24.9,27.6c-1.7-0.3-2.1-0.7-1.1-1c0.6-0.4,1.1-0.2,1.3,0.9c0,0,0.1,0,0.1,0c-0.4-1.7-2.8-1.1-2.2,0.4
						c0.5,1.3,1.8,0.5,2-0.4C25.1,27.4,24.9,27.6,24.9,27.6z"/>
					<path class="st3" d="M25.1,28c-1.8,0.8-1.8,0.8,0.3-0.1c0,0.1,0.1,0,0.1,0c-0.3-1.5-2.4-1.4-2.2,0.2c0.3,1.5,1.8,0.8,2.1-0.2
						C25.4,27.7,25.1,28,25.1,28z"/>
					<path class="st3" d="M25.5,27.6c0.1,0,0.1,0,0.2-0.1c0,0.1,0.1,0,0.1,0c-0.3-1.2-2.2-1.6-2.2,0c-0.1,1.5,1.7,1.3,2.1,0.1
						C25.6,27.5,25.5,27.5,25.5,27.6z"/>
					<path class="st3" d="M25,27.5c-1.4,1-1.7,1-0.7-0.1c0.4-1.1,0.7-1.1,1,0.1c0,0,0.1,0,0.1,0c-0.4-1.7-2.8-1.1-2.2,0.4
						c0.5,1.3,1.8,0.5,2-0.4C25.2,27.3,25,27.4,25,27.5z"/>
					<path class="st3" d="M25.2,27.5c-1.5,0.8-2,0.7-1.4-0.3c0.1-1.1,0.7-1,1.7,0.2c0,0.1,0.1,0,0.1,0c-0.1-0.6-0.4-1.1-1.1-1.1
						c-0.7,0-1.3,0.6-1.2,1.3c0.2,1.5,1.8,0.9,2.1-0.1C25.4,27.3,25.2,27.4,25.2,27.5z"/>
					<path class="st3" d="M25.4,27.8c0.1,0,0.1-0.1,0.2-0.1c0,0.1,0.1,0,0.1,0c-0.3-1.3-2.2-1.6-2.2,0c-0.1,1.5,1.7,1.3,2.1,0.1
						C25.6,27.6,25.4,27.7,25.4,27.8z"/>
					<path class="st3" d="M24.9,27.8c0.1,0,0.2-0.1,0.3-0.1c0,0.1,0.1,0,0.1,0c-0.4-1.8-2.8-1.1-2.1,0.4c0.5,1.3,1.8,0.5,2.1-0.4
						C25.2,27.5,24.9,27.7,24.9,27.8z"/>
				</g>
			</g>
		</g>
	</g>
	<g>
		<path class="st7" d="M8.9,12.1c1.2-0.5,1.3-1.1,7-1.1c-6,1.1-8.4,3.6-9.5,10.2C6.1,19.4,7.3,12.8,8.9,12.1z"/>
		<g>
			<g>
				<path class="st8" d="M9.3,12.6c2.2-1,4.5-1,7-1.1c-0.1-0.1-0.1-0.2-0.2-0.2c-2.7,0.7-5.5,1.4-7.3,3.7c-0.9,1.1-1,1.6-1.5,2.8
					c-0.4,0.9-0.6,1.8-0.9,2.7c0.1-1.1,0.3-2.1,0.5-3.2c0.4-1.8,0.8-3.7,2.3-5c0.1,0,0-0.2-0.1-0.1c-2.3,2-2.7,6.4-2.8,9.2
					c0,0.1,0.1,0.1,0.1,0c0.7-3.1,1.6-6.5,4.5-8.4c1.7-1,3.4-1.3,5.4-1.7c0.1,0-0.2-0.2-0.2-0.2c-2.6,0-4.7,0.1-7,1.1
					C9,12.5,9.3,12.6,9.3,12.6z"/>
				<path class="st8" d="M9,12.4c0.7-0.3,1.4-0.7,2.2-0.8c0.9-0.1,1.8-0.2,2.6-0.2c-0.6,0.7-1.4,1.1-2.3,1.1
					c-1.9,0.9-3.2,2.2-4.1,4.1c-0.7,2.7-1,2.9-0.8,0.6c0.3-1.8,1-3.5,2.2-4.9c0.1-0.1,0-0.2-0.1-0.1c-0.8,0.7-1.2,1.5-1.6,2.5
					c-0.7,2.1-1.1,4.4-1.2,6.7c0,0.1,0.2,0,0.2,0c0.5-2.1,0.9-4.7,2.3-6.4c1.9-2.3,4.6-3,7.4-3.6c0.1,0,0-0.2-0.1-0.2
					c-2.5,0-4.7,0.1-7,1.1C8.8,12.3,8.9,12.4,9,12.4z"/>
				<path class="st8" d="M9,12c1.3-0.6,2.6-0.9,4.1-1c1.7-0.1,0,0.5-0.5,0.7c-1.1,0.4-1.8,0.6-2.8,1.4c-1,0.8-1.8,1.9-2.3,3
					c0,0-0.8,2.1-0.8,2.2c-0.7,0.8,0.2-2.1,0.3-2.4c0.4-1.5,0.8-3,2.1-4.1c0,0,0-0.1-0.1-0.1c-1.3,1.1-1.7,2.5-2.1,4.2
					c-0.4,1.7-0.7,3.4-0.7,5.1c0,0.1,0.1,0.1,0.1,0.1c0.6-2.6,1.1-5.2,3.1-7.2c1.7-1.8,4.4-2.4,6.7-3c0,0,0-0.1,0.1-0.1
					c-2.6,0-4.7,0.1-7,1.1C9,11.9,9,12,9,12z"/>
				<path class="st8" d="M9.3,12.3c2.3-1,4.5-1.1,7-1.1C16.2,11.1,16.1,11,16,11c-2.5,0.6-4.8,1.2-6.6,3.1c-0.7,0.7-1.3,1.5-1.7,2.4
					c0.2,1.3-0.1,2.1-0.9,2.2c-0.6,0.2-0.6-0.3,0.2-1.6c0.2-1.9,0.9-3.6,2.3-5c0.1-0.1-0.2-0.1-0.2,0c-2.3,2-2.5,6.3-2.6,9.1
					c0,0.1,0.2,0,0.2,0c1.3-5.8,2.5-8.5,9.8-10.1c0.1,0-0.2-0.2-0.2-0.2c-2.6,0-4.7,0.1-7.1,1.1C8.9,12.1,9.2,12.3,9.3,12.3z"/>
				<path class="st8" d="M9.3,12c0.9-0.4,1.8-0.7,2.8-0.9c0.6-0.1,2.9-0.6,1.8,0.2c-0.8,0.6-2,0.8-2.9,1.3c-0.8,0.5-1.5,1.1-2.2,1.8
					c-0.4,0.5-0.8,1.1-1,1.7c-0.3,0.7-0.5,1.4-0.8,2.1c0,0-0.3,0.1-0.3,0.1c0.1-0.8,0.3-1.7,0.5-2.5c0.3-1.5,1-2.9,2.1-4.1
					c0.1-0.1,0-0.1-0.1-0.1c-1,0.9-1.5,2-1.8,3.3c-0.6,1.9-0.9,3.9-0.9,5.9c0,0,0.1,0.1,0.1,0.1c0.3-3.1,1.5-5.8,3.8-7.9
					c1.9-1.2,3.9-1.9,6.1-2.2c0.1,0,0.1-0.1,0-0.1c-2.6,0-4.7,0.1-7,1.1C9.1,11.9,9.2,12,9.3,12z"/>
				<path class="st8" d="M13.5,11.6c-1.3,0.5-2.8,0.9-3.8,1.8c-1.3,1.1-2.2,2.5-2.8,4.1c-0.2,0.6-1.3,4.8-0.7,1.1
					c0.4-2.3,0.7-5,2.6-6.5c0,0,0-0.1,0-0.1c-2.4,2-2.7,6.4-2.9,9.3c0,0.1,0.2,0.1,0.2,0c0.4-2,0.8-3.8,1.8-5.6c1.3-2.2,2.9-3,5.5-4
					C13.4,11.7,13.5,11.6,13.5,11.6z"/>
				<path class="st8" d="M9.1,12.6c0.9-0.4,1.8-0.7,2.8-0.9c0.4-0.1,0.9-0.1,1.3-0.1c0.8-0.2,1-0.2,0.6,0.1
					c-0.3,0.3-0.7,0.5-1.2,0.6c-1,0.3-1.9,0.8-2.8,1.4c-1,0.9-1.8,1.8-2.4,3.1c-0.4,0.8-1.7,6.2-1,2.1c0.4-2.2,0.7-5,2.5-6.5
					c0,0,0-0.1-0.1-0.1c-2.4,2-2.7,6.4-2.9,9.3c0,0.1,0.1,0.1,0.2,0c0.7-3.1,1.5-6.5,4.5-8.3c1.7-1,3.4-1.3,5.3-1.7
					c0.1,0,0-0.2-0.1-0.2c-2.5,0-4.7,0.1-7,1.1C8.9,12.5,9,12.7,9.1,12.6z"/>
				<path class="st8" d="M9.5,12.3c2.2-1,4.5-1.1,7-1.1c-0.1-0.1-0.2-0.2-0.2-0.2c-3.5,0.9-6.7,2.1-8.3,5.5c0,0,0,0,0,0
					c0.2,1.3-0.2,2-1.1,2.3c0.1-0.5,0.2-1.1,0.3-1.6c0.2-2,1-3.6,2.3-5c0.1-0.1-0.2-0.1-0.2,0c-2.3,2-2.6,6.3-2.7,9.1
					c0,0.1,0.1,0.1,0.1,0.1c0.2-1.6,0.6-3.1,1.5-4.5c0.4-1.4,1.1-2.5,2.3-3.3c1.8-1.4,3.9-1.8,6.1-2.2c0.1,0-0.2-0.2-0.2-0.2
					c-2.6,0-4.7,0.1-7.1,1.1C9,12.1,9.4,12.3,9.5,12.3z"/>
				<path class="st8" d="M8.9,12.1c0.9-0.4,1.8-0.7,2.8-0.9c0.4-0.1,0.9-0.1,1.3-0.1c0.7-0.3,0.9-0.2,0.6,0.2c0,0.1-0.1,0.2-0.1,0.2
					c-0.7,0.2-1.4,0.5-2,0.8c-1.2,0.6-2.3,1.3-3.1,2.4c-0.4,0.6-0.7,1.2-1.1,1.7c-0.3,0.7-0.5,1.4-0.8,2.2c-0.7,0.8,0.2-2.1,0.3-2.4
					c0.4-1.5,0.8-3,2-4.1c0,0,0-0.1-0.1-0.1c-2.4,2.1-2.7,6.3-2.8,9.3c0,0.1,0.1,0.1,0.2,0C6.6,19,7,16.4,8.5,14.7
					c2-2.4,4.4-3,7.4-3.7c0,0,0.1-0.1,0.1-0.1c-2.5,0-4.7,0.1-7,1.1C8.9,12,8.9,12.1,8.9,12.1z"/>
				<path class="st8" d="M9.1,12.1c0.7-0.3,1.4-0.7,2.2-0.8c0.6-0.1,2.1-0.5,2.6-0.2c-0.1,0.1-0.2,0.2-0.4,0.4c-1,0.3-2,0.7-2.9,1.3
					c-1.2,0.7-2,1.6-2.7,2.7c-0.2,0.3-1.4,3.1-1.5,3.1c-0.3-0.1,0.2-2,0.4-2.4c0.4-1.5,0.8-3,2-4.1c0.1-0.1-0.1-0.1-0.2,0
					c-2.3,2-2.6,6.3-2.7,9.2c0,0.1,0.1,0.1,0.2,0c0.6-2.6,1.1-5.1,3-7.1c1.9-1.9,4.2-2.4,6.8-2.9c0.1,0,0-0.2-0.1-0.2
					c-2.6,0-4.7,0.1-7,1.1C8.9,12,9.1,12.1,9.1,12.1z"/>
				<path class="st8" d="M9.5,12.4c2.5-1.1,3.7-1,7-1.1c-0.1-0.1-0.2-0.2-0.3-0.3c-2.7,0.7-5.4,1.5-7.3,3.8c-0.3,0.6-0.7,1.2-1,1.7
					C7.5,17.3,7.2,18,7,18.8c-0.1,0-0.2,0.1-0.3,0.1c0.2-2.5,1.1-4.7,2.6-6.6c0.1-0.1-0.1-0.1-0.2,0c-1,0.9-1.4,2-1.8,3.2
					c-0.6,1.9-0.8,3.9-0.9,5.9c0,0.1,0.1,0.1,0.1,0.1c0.7-3.1,1.6-6.5,4.5-8.4c1.7-1,3.4-1.3,5.4-1.7c0.1,0-0.2-0.3-0.3-0.3
					c-2.5,0-4.7,0.1-7,1.1C9,12.3,9.4,12.5,9.5,12.4z"/>
				<path class="st8" d="M8.8,12.4c0.9-0.4,1.8-0.7,2.8-0.9c0.4-0.1,0.9-0.1,1.3-0.1c0.7-0.3,0.9-0.2,0.6,0.2c0,0.1-0.1,0.2-0.1,0.2
					c-0.7,0.2-1.4,0.5-2,0.8c-2.6,1.4-4.1,3.5-4.9,6.3c-0.1,0.5-0.3,1-0.4,1.6c0.1-1.4,0.4-2.7,0.7-4c0.4-1.5,0.8-3,2-4.1
					c0,0,0-0.1,0-0.1c-2.4,2.1-2.7,6.3-2.9,9.3c0,0.1,0.2,0,0.2,0c0.5-2.1,0.9-4.7,2.3-6.4c2-2.4,4.3-3,7.4-3.6c0,0,0.1-0.1,0-0.1
					c-2.5,0-4.7,0.1-7,1.1C8.8,12.3,8.8,12.4,8.8,12.4z"/>
			</g>
		</g>
	</g>
	<g>
		<path class="st9" d="M25.3,24.5c-1,0.5-2.5,0.2-7,0.1c4.8-0.7,5.5-0.5,6.5-7.1C25.1,19.3,25.8,22.8,25.3,24.5z"/>
		<g>
			<g>
				<path class="st10" d="M25.2,24.7c-1,0.3-1.8,0.3-2.9,0.2c-0.7,0.1-1.4,0-2.1-0.2c-0.8-0.1-0.5-0.2,1-0.3
					c0.3-0.1,0.8-0.2,1.1-0.4c0.7-0.3,1.1-0.6,1.5-1.3c0.2-0.4,0.4-0.8,0.6-1.2c0-0.9,0.3-1.7,1-2.2c0.5,0,0.1,5.2,0.1,5.5
					c0,0.1,0.1,0.1,0.1,0c0.3-2.4,0-4.7-0.3-7.1c0-0.1-0.1-0.1-0.1,0c-0.2,1.2-0.4,3.9-1.3,5c-0.8,0.5-1.7,1.1-2.5,1.6
					c-1,0.2-2,0.3-3,0.4c0,0-0.1,0.1-0.1,0.1c2.2,0.1,4.8,0.6,7,0C25.2,24.8,25.2,24.7,25.2,24.7z"/>
				<path class="st10" d="M24.9,24.5c-1.4,0.5-3.1,0.3-4.6,0.1c-1.3-0.2,0.2-0.2,0.7-0.3c0.3-0.1,0.7-0.2,1-0.3
					c1.4-0.6,1.9-1.9,2.3-3.3c0-0.5,0.1-0.8,0.5-1.1c0.4-0.6,0.5-0.3,0.4,0.7c0.2,1.5,0.2,2.9,0,4.5c0,0.1,0.1,0.1,0.1,0
					c0.3-2.4,0-4.7-0.3-7.1c0-0.1-0.1-0.1-0.1,0c-0.3,1.7-0.4,4-1.6,5.4c-1.2,1.5-3.5,1.4-5.2,1.6c-0.2,0,0.1,0.2,0.2,0.2
					c2.2,0.1,4.9,0.6,7.1-0.1C25.3,24.6,24.9,24.5,24.9,24.5z"/>
				<path class="st10" d="M24.8,24.1c-2.1,0.7-4.8,0.1-7,0c0.1,0.1,0.1,0.2,0.2,0.2c1.8-0.3,3.9-0.3,5.1-1.7
					c0.6-0.7,0.8-1.6,1.1-2.4c0.1-1.3,0.5-1.1,0.9,0.6c0.1,1.2,0.1,2.3-0.1,3.5c0,0,0.1,0.1,0.1,0.1c0.3-2.4,0-4.8-0.3-7.2
					c0-0.1-0.1-0.1-0.1,0c-0.1,0.7-0.3,1.5-0.4,2.2c0,1.4-0.7,2.4-1.9,3.1c-0.5,1-1.2,1.5-2.2,1.5c-0.8,0.1-1.7,0.2-2.5,0.2
					c-0.1,0,0.2,0.2,0.2,0.2c2.2,0.1,4.8,0.6,7-0.1C25.2,24.2,24.9,24.1,24.8,24.1z"/>
				<path class="st10" d="M25.1,24.4c-1.4,0.4-3.2,0.4-4.6,0.1c-1.1-0.1-0.9-0.2,0.6-0.4c0.7-0.1,1.3-0.4,1.9-0.8
					c0.6-0.5,0.9-1.3,1.2-2c0-0.9,0.3-1.6,0.9-2.2c0.3,1.8,0.4,3.6,0.2,5.4c0,0.1,0.1,0.1,0.1,0c0.3-2.4-0.1-4.7-0.4-7.1
					c0-0.1-0.2,0-0.2,0.1c-0.2,1.2-0.4,3.8-1.2,4.9c-1.3,1.8-3.4,1.8-5.4,2c-0.2,0,0,0.2,0.1,0.2c2.3,0.1,4.8,0.6,7-0.1
					C25.4,24.5,25.2,24.4,25.1,24.4z"/>
				<path class="st10" d="M25.1,24.1c-1.4,0.4-3.2,0.4-4.6,0.1c-1.7-0.3,1.4-0.5,1.8-0.7c1.1-0.5,1.6-1.4,2-2.5
					c0-0.9,0.3-1.7,0.9-2.2c0.4,1.8,0.4,3.7,0.1,5.5c0,0,0.1,0.1,0.1,0c0.3-2.4,0-4.8-0.3-7.2c0-0.1-0.2-0.1-0.2,0
					c-0.3,1.8-0.4,4.5-1.9,5.8c-1.3,1.1-3.4,1-5,1.2c-0.2,0,0,0.2,0.1,0.2c2.2,0.1,4.8,0.6,7-0.1C25.3,24.2,25.2,24,25.1,24.1z"/>
				<path class="st10" d="M24.6,24.3c-2.1,0.7-4.8,0.1-6.9,0c0.1,0.1,0.2,0.2,0.2,0.2c1.2-0.2,2.8-0.3,4-0.8c1.1-0.5,1.6-1.4,2-2.5
					c0.2-0.5,0.6-1.5,0.4-1.7c0.3,0.5,0.5,0.9,0.8,1.4c0.1,1.2,0.1,2.4-0.2,3.5c0,0,0.1,0.1,0.1,0c0.3-2.4,0-4.7-0.3-7.1
					c0,0-0.1-0.1-0.1-0.1c-0.3,1.8-0.5,5.3-2.7,6.4c-1.3,0.6-2.9,0.5-4.3,0.6c-0.1,0,0.2,0.2,0.2,0.2c2.2,0.1,4.9,0.6,7.1-0.1
					C25,24.5,24.7,24.3,24.6,24.3z"/>
				<path class="st10" d="M24.9,24.7c-1.5,0.3-3.1,0.3-4.6,0.1c-1.2-0.2-0.9-0.3,0.6-0.4c1-0.2,1.6-0.5,2.2-1.2
					c0.1-0.1,0.2-0.3,0.3-0.4c0.5-0.9,0.8-1.8,1-2.8c0.8-1.1,1.1-0.7,0.7,1.4c0.1,1.2,0.1,2.4-0.2,3.5c0,0.1,0.1,0.1,0.1,0
					c0.3-2.4,0-4.7-0.3-7.1c0,0-0.1-0.2-0.1-0.1c-0.4,2-0.6,5.4-2.8,6.4c-1.2,0.5-2.8,0.5-4,0.7c0,0-0.1,0.1,0,0.1
					c2.2,0.1,4.9,0.6,7.1-0.1C25.1,24.8,25,24.7,24.9,24.7z"/>
				<path class="st10" d="M25.3,24.4c-0.9,0.3-1.9,0.4-2.9,0.2c-0.8,0.1-1.7,0-2.5-0.3c0.5,0.4,2.8-0.6,3.2-1c0.6-0.5,1-1.3,1.2-2
					c0-0.9,0.3-1.6,0.9-2.2c0.3,1.8,0.4,3.6,0.1,5.4c0,0,0.1,0.1,0.1,0c0.3-2.4-0.1-4.7-0.3-7.1c0-0.1-0.2,0-0.2,0.1
					c-0.3,2-0.4,4.2-2,5.6c-1.4,1.3-2.7,1.1-4.7,1.4c-0.1,0-0.1,0.1,0,0.1c2.2,0.1,4.9,0.6,7-0.1C25.4,24.5,25.4,24.4,25.3,24.4z"/>
				<path class="st10" d="M24.7,24.2c-2.1,0.7-4.8,0.1-7,0c0.1,0.1,0.2,0.2,0.3,0.3c1.8-0.3,3.8-0.3,5.1-1.7c0.8-1,0.6-2.3,1.3-3.3
					c0.8-1.2,1-0.7,0.7,1.4c0.1,1.2,0.1,2.4-0.1,3.5c0,0,0.1,0.1,0.1,0c0.3-2.4,0-4.7-0.3-7.2c0,0-0.1-0.1-0.1,0
					c-0.1,0.7-0.3,1.5-0.4,2.2c0,1.4-0.7,2.4-1.9,3.1c-0.5,1-1.2,1.5-2.2,1.5c-0.8,0.1-1.7,0.2-2.5,0.2c-0.1,0,0.2,0.3,0.3,0.3
					c2.2,0.1,4.9,0.6,7-0.1C25.2,24.4,24.8,24.2,24.7,24.2z"/>
				<path class="st10" d="M25,24.2c-2.1,0.7-4.8,0.1-7,0.1c0.1,0.1,0.1,0.2,0.2,0.2c2.3-0.4,4.6-0.4,5.6-2.7c0.2-0.4,1-2.3,0.7-2.3
					c1.3-0.1,0.7,4.3,0.6,4.9c0,0,0.1,0.1,0.1,0c0.3-2.4-0.1-4.7-0.3-7.1c0-0.1-0.2,0-0.2,0c-0.4,1.6-0.8,3.3-1.2,4.9
					c-0.3,0.7-0.8,1.1-1.5,1.2c-1.3,0.6-2.6,0.6-4,0.8c-0.1,0,0.2,0.2,0.2,0.2c2.2,0.1,4.8,0.6,7-0.1C25.4,24.3,25.1,24.2,25,24.2z"
					/>
				<path class="st10" d="M25.3,24.5c-1.4,0.4-3.2,0.4-4.6,0.2c-1.2-0.2-1-0.3,0.6-0.4c0.7-0.1,1.4-0.3,1.9-0.8c0.6-0.5,1-1.3,1.2-2
					c0-0.9,0.3-1.6,0.9-2.2c0.3,1.8,0.4,3.6,0.1,5.5c0,0,0.1,0.1,0.1,0c0.3-2.4,0-4.7-0.3-7.1c0-0.1-0.2,0-0.2,0
					c-0.4,2-0.6,5.2-2.7,6.2c-1.2,0.6-2.7,0.6-4,0.7c0,0-0.1,0.1,0,0.1c2.2,0.1,4.8,0.6,7-0.1C25.3,24.7,25.3,24.5,25.3,24.5z"/>
				<path class="st10" d="M24.7,24.5c-1.4,0.5-3.1,0.3-4.6,0.1c-1.3-0.2,0.3-0.2,0.8-0.3c0.7-0.1,1.4-0.3,1.9-0.8
					c0.8-0.7,1.1-1.8,1.4-2.8c0-0.5,0.1-0.9,0.5-1.1c0.4-0.6,0.5-0.3,0.4,0.7c0.1,1.6,0.1,3-0.1,4.5c0,0,0.1,0.1,0.1,0
					c0.3-2.4,0-4.7-0.3-7.1c0,0-0.1-0.1-0.1-0.1c-0.4,2-0.6,5.3-2.7,6.4c-1.2,0.6-2.9,0.5-4.2,0.7c-0.2,0,0.1,0.2,0.1,0.2
					c2.3,0.1,4.9,0.6,7.1-0.1C25.1,24.6,24.7,24.5,24.7,24.5z"/>
			</g>
		</g>
	</g>
	<g>
		<path class="st7" d="M8.1,11.3c0.5-0.2,0.5-0.4,3-0.8c-2.6,0.8-4,1.8-4.2,3.6C6.7,13.6,7.4,11.6,8.1,11.3z"/>
		<g>
			<g>
				<path class="st8" d="M8.3,11.4c0.3-0.1,0.5-0.3,0.8-0.3c1.2-0.3-1.1,1-0.9,0.9c0,0-0.9,1-0.9,1c-0.4,0.8-0.4,0.8-0.2,0.2
					C7.3,12.5,7.6,11.9,8.3,11.4C8.2,11.4,8.2,11.3,8.3,11.4c-0.9,0.7-1.3,1.6-1.4,2.7c0,0,0,0,0,0c0.1-1,0.6-1.7,1.5-2.1
					c0.8-0.8,1.7-1.3,2.9-1.5c0,0-0.1-0.1-0.1-0.1C10.1,10.8,9.1,10.9,8.3,11.4C8.1,11.4,8.2,11.5,8.3,11.4z"/>
				<path class="st8" d="M8.1,11.4c0.3-0.2,0.7-0.3,1-0.4c2-0.6-1,0.9-1.1,0.9c-0.3,0.3-1.4,1.8-0.9,1C5.5,15.5,10.1,9.4,8.1,11.4
					C8.1,11.3,8.1,11.3,8.1,11.4c-0.9,0.7-1.3,1.6-1.3,2.7c0,0,0,0,0,0c0.9-2,2.3-3.2,4.3-3.5c0,0,0-0.1,0-0.1
					C10.1,10.7,9.1,10.9,8.1,11.4C8.1,11.3,8.1,11.4,8.1,11.4z"/>
				<path class="st8" d="M8.2,11.2c0.2-0.1,1.8-0.7,1.8-0.6c0,0.1-1.3,0.8-1.2,0.7c-0.2,0.1-2,1.1-1.6,1.4
					C6.7,12.4,7.9,11.4,8.2,11.2C8.1,11.2,8.1,11.1,8.2,11.2c-0.9,0.7-1.3,1.6-1.4,2.7c0,0,0,0,0,0c0.4-2,1.8-3.2,4.3-3.6
					c0,0,0,0,0,0C10.1,10.6,9.1,10.8,8.2,11.2C8.1,11.2,8.1,11.3,8.2,11.2z"/>
				<path class="st8" d="M8.2,11.3c0.3-0.2,0.7-0.3,1-0.4c1.9-0.6-0.2,0.4-0.5,0.5c-0.2,0.1-0.5,0.2-0.6,0.4c-0.5,0.4-0.8,0.8-1,1.3
					c-0.3,0.6-0.2,0.4,0.1-0.5C7.4,12.1,7.7,11.6,8.2,11.3c0-0.1-0.1-0.1-0.1-0.1c-0.8,0.8-1.2,1.7-1.2,2.8c0,0,0,0,0,0
					c0.4-2,1.8-3.2,4.3-3.5c0,0-0.1-0.1-0.1-0.1c-1,0.2-2,0.4-3,0.8C8.1,11.3,8.2,11.4,8.2,11.3z"/>
				<path class="st8" d="M8.2,11.2c0.3-0.2,0.7-0.3,1-0.4c0.3-0.1,0.5-0.1,0.8-0.2c-0.4,0.3-0.8,0.5-1.2,0.7
					c-0.2,0.1-0.4,0.3-0.7,0.4c-0.4,0.2-0.7,0.6-0.9,1c0,0,0,0,0,0C7.1,12.1,7.4,11.6,8.2,11.2C8.2,11.2,8.2,11.1,8.2,11.2
					c-0.9,0.7-1.3,1.6-1.4,2.7c0,0,0,0,0,0c0.9-2,2.3-3.2,4.3-3.6c0,0,0-0.1,0,0C10.2,10.6,9.2,10.7,8.2,11.2
					C8.2,11.2,8.2,11.3,8.2,11.2z"/>
				<path class="st8" d="M8.1,11.3c0.3-0.2,0.7-0.3,1-0.4c0.3-0.1,0.5-0.1,0.8-0.2c-0.4,0.3-0.8,0.5-1.2,0.7
					c-0.5,0.2-0.8,0.5-1.1,0.9C7.2,12.7,7,13,6.8,13.5c0.1-0.3,0.2-0.6,0.3-0.9C7.3,12.1,7.6,11.6,8.1,11.3
					C8.1,11.3,8,11.2,8.1,11.3c-0.8,0.7-1.3,1.6-1.3,2.7c0,0,0,0,0,0c0.1-1,0.6-1.7,1.5-2.1c0.8-0.8,1.7-1.3,2.8-1.5c0,0,0,0,0,0
					C10.1,10.7,9.1,10.8,8.1,11.3C8.1,11.3,8.1,11.3,8.1,11.3z"/>
				<path class="st8" d="M8.2,11.5c0.3-0.2,0.7-0.3,1-0.4c2.1-0.7-1.1,1-1.1,0.9c-0.3,0.3-0.6,0.7-0.9,1c-0.1,0.1-0.1,0.2-0.2,0.3
					c-0.3,0.6-0.2,0.4,0.1-0.5C7.3,12.2,7.7,11.7,8.2,11.5C8.1,11.4,8.1,11.4,8.2,11.5c-0.9,0.7-1.3,1.6-1.4,2.7c0,0,0,0,0,0
					c0.9-2,2.3-3.2,4.3-3.6c0,0,0-0.1,0-0.1C10.1,10.8,9.1,11,8.2,11.5C8.1,11.4,8.2,11.5,8.2,11.5z"/>
				<path class="st8" d="M8.3,11.3c0.3-0.1,0.5-0.2,0.8-0.3c0.4-0.1,1.7-0.7,0.4,0.1c0,0-1.3,0.8-1.3,0.8C8,12,7.9,12.2,7.7,12.4
					C6.9,13.3,7.1,13,8.3,11.3c0-0.1-0.1-0.1-0.1-0.1C7.4,12,7,13,6.9,14.1c0,0,0,0,0,0c0.4-2.1,1.8-3.2,4.3-3.6
					c0,0-0.1-0.1-0.1-0.1c-1,0.2-2,0.4-3,0.8C8.1,11.3,8.3,11.4,8.3,11.3z"/>
				<path class="st8" d="M8.1,11.3c0.2-0.1,1.8-0.6,1.8-0.6c0,0-2.6,1.8-1.8,1.1c1.7-1.4-2.1,2-1.2,1.6c0.1-0.3,0.2-0.6,0.3-0.9
					C7.3,12,7.6,11.6,8.1,11.3C8.1,11.2,8.1,11.2,8.1,11.3C7.3,12,6.8,12.9,6.8,14c0,0,0,0,0,0c0.4-2,1.8-3.2,4.3-3.6c0,0,0,0,0,0
					C10.1,10.6,9.1,10.8,8.1,11.3C8.1,11.3,8.1,11.3,8.1,11.3z"/>
				<path class="st8" d="M8.2,11.3c0.3-0.2,0.7-0.3,1-0.4c0.3-0.1,0.5-0.1,0.8-0.2c-0.4,0.2-0.8,0.5-1.2,0.7c-0.7,0.4-1,0.5-1.5,1.4
					C5.6,15.4,10.1,9.4,8.2,11.3C8.2,11.2,8.1,11.2,8.2,11.3C7.3,12,6.9,12.9,6.8,14c0,0,0,0,0,0c0.9-2,2.3-3.2,4.3-3.6
					c0,0,0-0.1,0-0.1C10.1,10.6,9.1,10.8,8.2,11.3C8.1,11.2,8.2,11.3,8.2,11.3z"/>
				<path class="st8" d="M8.3,11.4c0.3-0.2,0.7-0.3,1-0.4c0.4-0.1,1.4-0.6,0.2,0.1c0,0-1.3,0.8-1.3,0.8c-0.3,0.3-0.6,0.7-0.9,1
					C6.6,14.3,6.9,13.7,8.3,11.4c0-0.1-0.1-0.1-0.1-0.1C7.4,12.1,7,13,6.9,14.1c0,0,0,0,0,0c0.4-2.1,1.8-3.2,4.3-3.6
					c0,0-0.1-0.1-0.1-0.1c-1,0.2-2,0.4-3,0.8C8.1,11.3,8.3,11.4,8.3,11.4z"/>
				<path class="st8" d="M8.1,11.4c0.3-0.2,0.7-0.3,1-0.4c1.9-0.6-0.1,0.4-0.4,0.6c-0.3,0.1-0.5,0.2-0.7,0.4
					c-0.5,0.3-0.8,0.8-1.1,1.3c-0.3,0.6-0.3,0.4,0.1-0.6C7.3,12.1,7.6,11.7,8.1,11.4C8.1,11.3,8.1,11.3,8.1,11.4
					c-0.9,0.7-1.3,1.6-1.4,2.7c0,0,0,0,0,0c0.4-2,1.8-3.2,4.3-3.6c0,0,0,0,0,0C10.1,10.7,9.1,10.9,8.1,11.4
					C8.1,11.3,8.1,11.4,8.1,11.4z"/>
			</g>
		</g>
	</g>
	<g>
		<polygon class="st11" points="16.7,14.5 10.2,21 10.7,21.5 		"/>
		<g>
			<g>
				<path class="st12" d="M15.5,14.9c-2.2,2.2-4.3,4.3-6.5,6.5c-0.1,0.1,0,0.3,0.1,0.4c0.2,0.4,0.5,0.7,0.8,1.1
					c0.1,0.1,0.3,0.2,0.4,0.1c2.7-2.3,5.1-5,7.8-7.3c0.5-0.4-0.7-0.8-1-0.5c-1.1,1-2.2,2.1-3.2,3.2c-1,1-2.1,2.1-3.2,3
					c-0.6,0.5-0.5,0.6-1.2-0.1c0,0.2,0,0.4,0,0.6c2.2-2.2,4.4-4.3,6.6-6.5C16.4,15.1,15.8,14.6,15.5,14.9z"/>
				<path class="st12" d="M14.8,14.6c-2.1,2.1-4.3,4.2-6.5,6.3c-0.1,0.1-0.2,0.3,0,0.4c0.4,0.3,0.8,0.6,1.2,1c0.1,0.1,0.2,0.1,0.3,0
					c2.7-2.1,4.7-5.1,7.4-7.2c0.4-0.3-0.3-0.8-0.6-0.5c-0.7,0.6-1.4,1.2-2,1.9c-1.3,1.5-3,2.8-4.2,4.3c0.4-0.4,1.8-1.6,2.4-2.3
					c1.3-1.3,2.6-2.6,4-3.8c0.3-0.3-0.5-0.4-0.5-0.4C15.8,14.2,15.1,14.4,14.8,14.6z"/>
				<path class="st12" d="M15,13.4c-2.2,2.2-4.4,4.3-6.6,6.4c-0.1,0.1-0.1,0.3,0,0.4c0.4,0.4,0.9,0.7,1.4,1.1c0.1,0,0.1,0,0.2,0
					c1.5-1,2.9-2.4,4.2-3.6c1.2-1.2,2.4-2.4,3.5-3.6c0.2-0.2-0.2-0.7-0.5-0.5c-2.3,2.5-4.7,5.3-7.6,7.1c0.1,0.1,0.2,0.1,0.4,0.2
					c-0.3-0.5-0.2-0.6,0.1-1c0.5-0.7,1.5-1.4,2.1-2c1.3-1.2,2.5-2.5,3.8-3.7C16.5,13.8,15.2,13.2,15,13.4z"/>
				<path class="st12" d="M15.9,14.2c-2.2,2.1-4.4,4.3-6.6,6.4c-0.1,0.1-0.1,0.3,0,0.4c0.3,0.2,0.6,0.5,0.8,0.8
					c0.1,0.1,0.3,0.1,0.4,0c1.4-1,2.4-2.5,3.7-3.8c1.1-1.1,2.3-2.2,3.6-3.2c0.7-0.6-1.1-0.5-1.4-0.3c-0.3,0.2-0.5,0.4-0.8,0.6
					c-1,0.7-1.5,1.4-2.2,2.4c-0.2,0.3-2.8,3.4-3,3c0,0.1,0,0.3,0,0.4c2.2-2,4.4-4.1,6.5-6.2C17.4,14.2,16.2,14,15.9,14.2z"/>
				<path class="st12" d="M15.6,13.4c-2.1,2.1-4.2,4.2-6.4,6.3c-0.1,0.1-0.2,0.4-0.1,0.5c0.2,0.2,0.5,0.5,0.7,0.7
					c0.1,0.1,0.5,0.3,0.6,0.2c0.7-0.5,1.4-1.1,2.1-1.7c0.9-0.8,1.7-1.5,2.6-2.3c1.1-1,2-2,3-3c0.5-0.5-0.4-0.6-0.8-0.2
					c-0.9,0.9-1.8,1.9-2.8,2.8c-0.8,0.7-1.5,1.5-2.3,2.2c-0.7,0.8-1.6,1.5-2.5,2c0.2,0.1,0.4,0.1,0.6,0.2c-0.6-0.6-0.6-0.9,0-1.4
					c0.8-0.8,1.6-1.6,2.4-2.4c1.1-1.1,2.1-2.1,3.2-3.2C16.2,13.7,15.9,13.2,15.6,13.4z"/>
				<path class="st12" d="M13.7,14.1c-2.2,2.2-4.4,4.4-6.6,6.5C7,20.8,7,20.9,7.1,21C7.8,21.3,8.4,21.7,9,22c0.1,0,0.2,0,0.3-0.1
					c3-2,5.3-4.8,7.8-7.3c0.1-0.1-0.2-0.6-0.1-0.6c-2.2,2.5-4.8,5.2-7.7,7.1c0.2,0,0.3,0,0.5,0c-0.3-0.3-0.2-0.3-0.1-0.6
					c0.2-0.2,0.4-0.3,0.6-0.5c0.5-0.4,0.9-0.8,1.4-1.2c1.4-1.4,2.9-2.8,4.3-4.2C16.5,14.2,14.1,13.8,13.7,14.1z"/>
				<path class="st12" d="M16.1,13.9c-2.2,2.2-4.4,4.4-6.6,6.5c0,0-0.3,0.6-0.2,0.6c0.2,0.3,0.5,0.6,0.8,0.9c0,0,0.1,0,0.1,0
					c1.8-0.6,3.3-2.5,4.7-3.7c1.4-1.2,2.7-2.6,4.1-3.8c0.3-0.2,0-0.4-0.2-0.5c-0.3-0.1-1.2,0.3-1.4,0.4c-2.4,2.4-4.8,5-7.3,7.3
					c0.2-0.1,0.3-0.1,0.5-0.2c-0.4-0.3-0.8-0.7-1.1-1.1c-0.1,0.2-0.1,0.4-0.2,0.6c2.2-2.2,4.4-4.4,6.6-6.5
					C16,14.4,16.1,13.9,16.1,13.9z"/>
			</g>
		</g>
	</g>
	<g>
		<path class="st11" d="M20.9,14.7c-5.4,6.9-4.7,5.9-5.4,6.9c0.7-1-0.2,0.2,6.1-6.4L20.9,14.7z"/>
		<g>
			<g>
				<path class="st12" d="M19.7,14.6c-1.8,2.3-3.8,4.5-5.4,6.9c-0.2,0.3,0.8,0.3,0.9,0.1c0.3-0.4,0.6-0.6,0.9-0.8
					c0.1-0.1,0-0.3,0.1-0.3c-0.6,0.4-1.1,0.7-1.8,1c0.3,0.1,0.5,0.1,0.8,0.2c1.7-2.4,3.6-4.6,5.4-6.9C20.8,14.5,19.8,14.5,19.7,14.6
					z"/>
				<path class="st12" d="M20.2,14.3c-1.8,2.3-3.8,4.5-5.4,6.9c-0.2,0.2,0.2,0.5,0.3,0.3c0.4-0.6,1.2-1,1.7-1.4c0,0-0.3-0.2-0.3-0.1
					c-0.6,0.5-1,0.9-1.7,1.2c0.1,0.1,0.2,0.2,0.3,0.3c1.7-2.4,3.6-4.6,5.4-6.9C20.8,14.4,20.4,14.2,20.2,14.3z"/>
				<path class="st12" d="M20.5,14.9c-1.8,2.3-3.7,4.5-5.4,6.9c-0.1,0.1,0.1,0.3,0.3,0.2c2.2-2.2,4.6-4.3,6.8-6.5
					c0-0.1,0.1-0.2,0.1-0.2c-0.3-0.3-0.6-0.5-0.9-0.8c-0.1,0-0.1,0.3,0,0.3c0.2,0.2,0.3,0.3,0.5,0.5c-1.2,1.5-2.6,3-4,4.3
					c-0.8,0.8-1.8,1.3-2.6,2.1c0.1,0.1,0.2,0.1,0.3,0.2c1.7-2.4,3.6-4.6,5.4-6.9C20.9,14.9,20.6,14.7,20.5,14.9z"/>
				<path class="st12" d="M20.2,14.8c-1.8,2.3-3.7,4.5-5.4,6.9c-0.3,0.4,0.5,0.2,0.7,0.1c0.4-0.5,0.8-0.8,1.3-1.2
					c1.7-1.7,3.4-3.4,5.1-5.1c0,0,0.1-0.2,0-0.3c-0.2-0.1-0.5-0.3-0.7-0.5c-0.1-0.1-0.4,0-0.3,0.1c1.3,0.6-4.5,5.8-4.7,6
					c-0.5,0.3-0.9,0.7-1.4,1c0.2,0,0.4,0.1,0.7,0.1c1.7-2.4,3.6-4.6,5.4-6.9C21.1,14.5,20.3,14.6,20.2,14.8z"/>
				<path class="st12" d="M18.7,18.5c1.1-1.1,2.2-2.3,3.3-3.4c0,0,0-0.1,0-0.1c-0.2-0.3-0.5-0.5-0.8-0.8c-0.1-0.2-0.4,0.1-0.3,0.2
					c0.2,0.1,0.4,0.3,0.6,0.4c-0.9,1.3-1.9,2.4-3,3.5C18.4,18.3,18.6,18.5,18.7,18.5z"/>
				<path class="st12" d="M20.6,14.6c-1.8,2.3-3.7,4.5-5.4,6.9c-0.2,0.2,0.3,0.4,0.4,0.2c0.4-0.5,0.9-0.9,1.3-1.3
					c1.8-1.6,3.4-3.3,5.1-5c0.1-0.1,0.1-0.2,0-0.3c-0.3-0.2-0.5-0.3-0.8-0.5c-0.2-0.1-0.4,0.1-0.2,0.3c0.9,0.6-4.7,5.7-5.8,6.7
					c0.1,0.1,0.3,0.1,0.4,0.2c1.7-2.4,3.6-4.6,5.4-6.9C21.1,14.6,20.7,14.5,20.6,14.6z"/>
				<path class="st12" d="M20.6,14.4c-1.8,2.3-3.7,4.5-5.4,6.9c-0.1,0.1-0.1,0.4,0.1,0.2c0.5-0.5,1.2-0.9,1.8-1.4
					c1.8-1.6,3.5-3.4,5.2-5.2c0.1-0.1,0-0.2-0.1-0.2c-0.3-0.2-0.5-0.4-0.7-0.7c-0.2-0.2-0.4,0.2-0.3,0.3c0.2,0.1,0.5,0.3,0.6,0.5
					c0.1,0.2-3.5,3.8-4.2,4.4c-0.6,0.6-1.3,1.3-2,1.8c-0.3,0.3,0.1-0.1,0.2-0.2c0.2-0.2,0.4-0.5,0.5-0.7c1.5-1.9,3-3.7,4.5-5.6
					C20.7,14.5,20.7,14.2,20.6,14.4z"/>
				<path class="st12" d="M19.9,17.2c0.6-0.6,1.2-1.3,1.8-1.9c0,0,0,0,0,0c-0.2-0.4-0.4-0.6-0.8-0.9c0,0-0.3,0.1-0.3,0.2
					c0.3,0.3,0.7,0.5,1,0.7c0-0.1-0.1-0.2-0.1-0.3c-0.6,0.7-1.3,1.3-1.9,2C19.7,17,19.9,17.2,19.9,17.2z"/>
				<path class="st12" d="M20.8,14.5c-1.8,2.3-3.7,4.5-5.4,6.9c0,0.1,0,0.3,0,0.3c0.2-0.2,0.3-0.3,0.5-0.5c-0.1,0-0.2,0.1-0.3,0.1
					c0.7-0.1,1-0.5,1.5-1c1.9-1.7,3.7-3.4,5.4-5.2c0.1-0.1,0-0.2,0-0.3c-0.3-0.2-0.7-0.4-1-0.7c-0.2-0.1-0.3,0.2-0.2,0.3
					c0.7,0.6-4.5,6.1-6,6.9c0,0.1,0,0.2,0,0.3c1.7-2.4,3.6-4.6,5.4-6.9C20.8,14.8,20.8,14.5,20.8,14.5z"/>
			</g>
		</g>
	</g>
</g>
</svg>
