<?xml version="1.0" encoding="utf-8"?>
<!-- Generator: Adobe Illustrator 21.0.2, SVG Export Plug-In . SVG Version: 6.00 Build 0)  -->
<svg version="1.1" id="Layer_1" xmlns="http://www.w3.org/2000/svg" xmlns:xlink="http://www.w3.org/1999/xlink" x="0px" y="0px"
	 viewBox="0 0 30 30" style="enable-background:new 0 0 30 30;" xml:space="preserve">
<style type="text/css">
	.st0{opacity:0.85;}
	.st1{fill:#3F3B3C;}
	.st2{fill:#D1154B;}
	.st3{opacity:0.1091;fill:#070707;}
	.st4{fill:#F4BDCF;}
	.st5{opacity:0.1091;fill:#F4BDCF;}
	.st6{fill:#510B24;}
	.st7{opacity:0.1091;fill:#681533;}
	.st8{fill:#E84279;}
	.st9{opacity:0.1797;fill:#E84279;}
	.st10{fill:url(#SVGID_1_);}
	.st11{opacity:0.1091;fill:#111111;}
	.st12{fill:url(#SVGID_2_);}
	.st13{fill:url(#SVGID_3_);}
	.st14{fill:url(#SVGID_4_);}
</style>
<g>
	<g>
		<g>
			<g>
				<g>
					<g class="st0">
						<g>
							<path class="st1" d="M14.9,3.7C14.9,3.7,14.9,3.8,14.9,3.7C14.9,3.8,14.9,3.8,14.9,3.7C14.8,3.7,14.9,3.7,14.9,3.7z"/>
							<path class="st1" d="M14.9,3.9C14.9,3.9,14.9,3.9,14.9,3.9C14.9,3.9,14.9,3.9,14.9,3.9C14.9,3.9,14.9,3.9,14.9,3.9z"/>
							<path class="st1" d="M14.8,4C14.8,4,14.8,4,14.8,4C14.9,4,14.9,4,14.8,4z"/>
							<path class="st1" d="M14.8,3.9C14.8,3.9,14.9,3.9,14.8,3.9C14.9,3.9,14.9,3.9,14.8,3.9C14.9,3.9,14.9,3.9,14.8,3.9
								C14.8,3.9,14.8,3.9,14.8,3.9z"/>
							<path class="st1" d="M14.8,3.9C14.8,3.9,14.8,3.9,14.8,3.9C14.8,3.9,14.8,3.9,14.8,3.9z"/>
							<path class="st1" d="M14.7,3.9C14.7,3.9,14.7,3.9,14.7,3.9c0,0.1,0,0.2,0,0.2c0,0,0,0.1,0,0.1c0,0.1-0.1,0.2-0.1,0.1
								C14.6,4.2,14.6,4.1,14.7,3.9c0,0,0-0.1,0-0.2c0,0,0-0.1,0-0.1c0,0,0,0.1,0,0.1C14.7,3.8,14.7,3.8,14.7,3.9z"/>
							<path class="st1" d="M14.8,3.1C14.8,3.1,14.8,3.2,14.8,3.1c0,0.1,0,0.2,0,0.2c0,0,0,0,0,0c0,0,0,0,0,0
								C14.8,3.3,14.8,3.2,14.8,3.1C14.8,3.1,14.8,3.1,14.8,3.1z"/>
							<path class="st1" d="M14.8,3.1C14.8,3.1,14.8,3.1,14.8,3.1C14.8,3.1,14.8,3.1,14.8,3.1C14.8,3.1,14.8,3.1,14.8,3.1
								C14.8,3.1,14.8,3.1,14.8,3.1z"/>
							<path class="st1" d="M14.8,4.3c0,0.2,0,0.4,0,0.5c0,0,0,0,0,0c0,0,0,0,0,0c0,0,0,0,0,0.1c0,0,0,0,0,0c0,0,0,0,0,0
								c0,0,0,0,0,0c0,0,0,0,0,0c0,0,0,0,0,0c0,0,0,0,0,0c0,0,0,0,0,0.1c0,0,0-0.1,0-0.1c0,0,0,0,0,0c0,0,0,0,0,0c0,0.1,0,0.1,0,0.2
								c0,0,0,0,0,0c0,0,0,0.1,0,0.1c0,0,0,0,0,0c0,0,0,0,0,0c0,0,0,0,0,0c0,0,0,0.1,0,0.1c0,0,0,0.1,0,0.1c0,0,0,0,0,0c0,0,0,0,0,0
								c0,0,0,0,0-0.1c0,0,0.1-0.1,0-0.1c0,0,0,0.1,0,0.1c0,0,0,0,0,0.1c0,0,0,0.1,0,0.1c0-0.1,0-0.1,0-0.1c0,0,0,0,0,0c0,0,0,0,0,0
								c0,0,0-0.1,0-0.1c0,0.1,0,0.2,0,0.3c0,0.6,0,1.1,0,1.6c0,0.3,0,0.6,0,0.9c0,0.6,0,1.1,0.1,1.7c0,0.2,0,0.7,0,0.9
								c-0.1,0.3-0.3,0.1-0.3,0.1c-0.2-0.2-0.1-0.3-0.2-0.7c0.1,0.3,0.1-0.2,0-0.4c-0.2-0.3,0-0.8-0.1-1.3c0-0.1,0-0.2,0-0.3
								c-0.1-0.7,0-1.3,0-2c0-0.2,0.1-0.3,0.1-0.5c0-0.1,0-0.2,0-0.3c0-0.1,0-0.3,0-0.4c0,0.1,0,0.2,0,0.4c0,0.1,0.1-0.1,0.1-0.1
								c0,0,0-0.1,0-0.1c0-0.1,0-0.1,0-0.2c0,0,0,0,0,0c0-0.1,0.1-0.2,0.1-0.2c0,0,0-0.1,0-0.1c0,0,0,0,0-0.1c0,0,0,0,0,0
								c0,0,0,0,0.1,0c0,0,0-0.1,0-0.1c0,0,0,0.1,0,0.1c0,0,0,0-0.1,0C14.7,4.5,14.7,4.3,14.8,4.3C14.7,4.2,14.7,4.2,14.8,4.3
								c-0.1,0-0.1,0.1,0,0.1c0,0,0,0,0,0c0,0,0,0,0,0C14.8,4.4,14.8,4.4,14.8,4.3C14.8,4.3,14.8,4.3,14.8,4.3
								C14.8,4.2,14.7,4.2,14.8,4.3c-0.1-0.1-0.1-0.1-0.1-0.1C14.8,4.2,14.8,4.3,14.8,4.3z"/>
							<path class="st1" d="M14.8,5.1C14.8,5.1,14.8,5,14.8,5.1c0,0,0,0.1,0,0.1C14.8,5.1,14.8,5.1,14.8,5.1z"/>
						</g>
					</g>
				</g>
			</g>
		</g>
	</g>
	<g>
		<g>
			<g>
				<g>
					<g class="st0">
						<g>
							<path class="st1" d="M23.2,5.1C23.1,5.1,23.1,5.1,23.2,5.1C23.1,5.1,23.1,5.1,23.2,5.1C23.1,5.1,23.1,5.1,23.2,5.1z"/>
							<path class="st1" d="M23.1,5.2C23.1,5.2,23.1,5.2,23.1,5.2C23.1,5.2,23.1,5.2,23.1,5.2C23.1,5.2,23.1,5.2,23.1,5.2z"/>
							<path class="st1" d="M23,5.3C23,5.3,23,5.3,23,5.3C23,5.3,23,5.3,23,5.3z"/>
							<path class="st1" d="M23,5.2C23,5.2,23.1,5.2,23,5.2C23.1,5.2,23.1,5.2,23,5.2C23.1,5.2,23,5.2,23,5.2C23,5.2,23,5.2,23,5.2z
								"/>
							<path class="st1" d="M23,5.2C23,5.2,23,5.2,23,5.2C23,5.2,23,5.2,23,5.2z"/>
							<path class="st1" d="M22.9,5.1C22.9,5.2,22.9,5.2,22.9,5.1c0,0.1-0.1,0.1-0.1,0.2c0,0,0,0.1,0,0.1c0,0-0.2,0.2-0.1,0.1
								C22.7,5.4,22.7,5.3,22.9,5.1C22.9,5.1,23,5,23,5c0,0,0-0.1,0-0.1c0,0,0,0.1,0,0.1C23,5.1,22.9,5.1,22.9,5.1z"/>
							<path class="st1" d="M23.4,4.6C23.4,4.6,23.4,4.6,23.4,4.6c0,0.1-0.1,0.1-0.1,0.2c0,0,0,0,0,0c0,0,0,0,0,0
								C23.3,4.6,23.4,4.6,23.4,4.6C23.4,4.5,23.4,4.5,23.4,4.6z"/>
							<path class="st1" d="M23.5,4.5C23.4,4.5,23.4,4.5,23.5,4.5C23.4,4.5,23.4,4.5,23.5,4.5C23.4,4.5,23.4,4.5,23.5,4.5
								C23.5,4.5,23.5,4.5,23.5,4.5z"/>
							<path class="st1" d="M22.8,5.5c-0.1,0.2-0.2,0.3-0.3,0.5c0,0,0,0,0,0c0,0,0,0,0,0c0,0,0,0,0,0.1c0,0,0,0,0,0c0,0,0,0,0,0
								c0,0,0,0,0,0c0,0,0,0,0,0c0,0,0,0,0,0c0,0,0,0,0,0c0,0,0,0,0,0.1c0,0,0,0,0-0.1c0,0,0,0,0,0c0,0,0,0,0,0c0,0-0.1,0.1-0.1,0.1
								c0,0,0,0,0,0c0,0-0.1,0.1,0,0.1c0,0,0,0,0,0c0,0,0,0,0,0c0,0,0,0,0,0c0,0,0,0.1-0.1,0.1c0,0,0,0-0.1,0.1c0,0,0,0,0,0
								c0,0,0,0,0,0c0,0,0-0.1,0-0.1c0,0,0.1,0,0.1-0.1c0,0.1-0.1,0-0.1,0.1c0,0,0,0,0,0.1c0,0,0,0.1-0.1,0.1c0,0,0.1-0.1,0.1-0.1
								c0,0,0,0,0,0c0,0,0,0,0,0c0,0,0,0,0.1-0.1c0,0.1-0.1,0.1-0.1,0.2c-0.3,0.5-0.5,0.9-0.8,1.4C21.1,8.5,21,8.8,20.8,9
								c-0.3,0.5-0.6,1-0.8,1.5c-0.1,0.2-0.3,0.6-0.4,0.7c-0.2,0.2-0.3,0-0.3-0.1c-0.1-0.3,0.1-0.3,0.2-0.7
								c-0.1,0.2,0.2-0.1,0.2-0.4c0-0.4,0.4-0.7,0.6-1.1c0-0.1,0.1-0.2,0.2-0.3c0.3-0.6,0.7-1.1,1-1.7c0.1-0.2,0.2-0.3,0.3-0.4
								c0.1-0.1,0.1-0.2,0.2-0.3c0.1-0.1,0.2-0.2,0.2-0.3c-0.1,0.1-0.1,0.2-0.2,0.3c-0.1,0.1,0.1,0,0.1-0.1c0,0,0-0.1,0-0.1
								c0-0.1,0.1-0.1,0.1-0.1c0,0,0,0,0-0.1C22.3,6,22.4,6,22.4,5.9c0,0,0-0.1,0-0.1c0,0,0,0,0-0.1c0,0,0,0,0,0c0,0,0,0,0,0
								c0,0,0-0.1,0-0.1c0,0,0,0.1,0,0.1c0,0,0,0,0,0c0.1-0.1,0.2-0.2,0.3-0.3c0,0,0,0,0,0c0,0.1-0.1,0.1-0.1,0.2c0,0,0,0,0,0
								c0,0,0,0,0,0C22.7,5.6,22.8,5.6,22.8,5.5C22.8,5.5,22.8,5.5,22.8,5.5c0-0.1,0-0.1,0-0.1c0,0,0,0,0,0
								C22.8,5.4,22.8,5.5,22.8,5.5z"/>
							<path class="st1" d="M22.4,6.2C22.4,6.2,22.4,6.2,22.4,6.2C22.4,6.2,22.4,6.2,22.4,6.2C22.4,6.2,22.4,6.2,22.4,6.2z"/>
						</g>
					</g>
				</g>
			</g>
		</g>
	</g>
	<g>
		<g>
			<g>
				<g>
					<g class="st0">
						<g>
							<path class="st1" d="M27.7,10.7C27.7,10.7,27.7,10.8,27.7,10.7C27.6,10.8,27.6,10.8,27.7,10.7C27.7,10.7,27.7,10.7,27.7,10.7
								z"/>
							<path class="st1" d="M27.6,10.8C27.6,10.8,27.6,10.8,27.6,10.8C27.6,10.8,27.6,10.8,27.6,10.8C27.6,10.8,27.6,10.8,27.6,10.8
								z"/>
							<path class="st1" d="M27.5,10.9C27.5,10.9,27.5,10.9,27.5,10.9C27.5,10.9,27.5,10.9,27.5,10.9z"/>
							<path class="st1" d="M27.5,10.8C27.5,10.8,27.5,10.8,27.5,10.8C27.6,10.8,27.6,10.8,27.5,10.8C27.5,10.8,27.5,10.9,27.5,10.8
								C27.5,10.8,27.5,10.8,27.5,10.8z"/>
							<path class="st1" d="M27.5,10.8C27.5,10.8,27.5,10.8,27.5,10.8C27.5,10.8,27.5,10.8,27.5,10.8z"/>
							<path class="st1" d="M27.4,10.7C27.4,10.7,27.4,10.7,27.4,10.7c-0.1,0.1-0.1,0.1-0.2,0.1c0,0,0,0.1-0.1,0.1
								c-0.1,0-0.2,0.1-0.2,0C27.1,10.9,27.2,10.8,27.4,10.7c0,0,0.1-0.1,0.2-0.1c0,0,0,0,0.1-0.1c0,0-0.1,0.1-0.1,0.1
								C27.6,10.7,27.5,10.7,27.4,10.7z"/>
							<path class="st1" d="M28.1,10.3C28.1,10.3,28.1,10.3,28.1,10.3c-0.1,0.1-0.1,0.1-0.2,0.1c0,0,0,0,0,0c0,0,0,0,0,0
								C28,10.4,28.1,10.3,28.1,10.3C28.1,10.3,28.1,10.3,28.1,10.3z"/>
							<path class="st1" d="M28.2,10.3C28.2,10.3,28.1,10.3,28.2,10.3C28.1,10.3,28.1,10.3,28.2,10.3C28.1,10.3,28.2,10.3,28.2,10.3
								C28.2,10.3,28.2,10.3,28.2,10.3z"/>
							<path class="st1" d="M27.2,11c-0.1,0.1-0.3,0.2-0.4,0.3c0,0,0,0,0,0c0,0,0,0,0,0c0,0,0,0-0.1,0c0,0,0,0,0,0c0,0,0,0,0,0
								c0,0,0,0,0,0c0,0,0,0,0,0c0,0,0,0,0,0c0,0,0,0,0,0c0,0,0,0-0.1,0c0,0,0,0,0.1,0c0,0,0,0,0,0c0,0,0,0,0,0c0,0-0.1,0.1-0.1,0.1
								c0,0,0,0,0,0c0,0-0.1,0-0.1,0.1c0,0,0,0,0,0c0,0,0,0,0,0c0,0,0,0,0,0c0,0-0.1,0.1-0.1,0.1c0,0-0.1,0-0.1,0c0,0,0,0,0,0
								c0,0,0,0-0.1,0c0,0,0-0.1,0-0.1c0,0,0.1,0,0.1-0.1c0,0.1-0.1,0-0.1,0.1c0,0,0,0,0,0.1c0,0-0.1,0.1-0.1,0.1
								c0.1,0,0.1-0.1,0.1-0.1c0,0,0,0,0.1,0c0,0,0,0,0,0c0,0,0.1,0,0.1,0c-0.1,0.1-0.1,0.1-0.2,0.2c-0.4,0.4-0.8,0.7-1.3,1.1
								c-0.2,0.2-0.5,0.4-0.7,0.6c-0.4,0.4-0.9,0.7-1.3,1.2c-0.2,0.2-0.5,0.4-0.7,0.6c-0.3,0.1-0.3-0.1-0.3-0.2
								c0-0.3,0.2-0.3,0.4-0.6c-0.2,0.2,0.2,0,0.3-0.3c0.1-0.4,0.6-0.5,0.9-0.9c0.1-0.1,0.2-0.1,0.3-0.2c0.5-0.5,1-0.8,1.5-1.2
								c0.1-0.1,0.3-0.2,0.4-0.3c0.1-0.1,0.2-0.2,0.2-0.2c0.1-0.1,0.2-0.2,0.3-0.2c-0.1,0.1-0.2,0.1-0.3,0.2c-0.1,0.1,0.1,0,0.2,0
								c0,0,0-0.1,0.1-0.1c0,0,0.1-0.1,0.2-0.1c0,0,0,0,0-0.1c0.1,0,0.2,0,0.2-0.1c0,0,0.1-0.1,0.1-0.1c0,0,0,0,0.1,0c0,0,0,0,0,0
								c0,0,0,0,0,0.1c0,0,0,0,0.1-0.1c0,0,0,0-0.1,0.1c0,0,0,0,0-0.1c0.1,0,0.2-0.1,0.3-0.2C27.2,10.9,27.2,10.9,27.2,11
								c0-0.1-0.1,0-0.1,0.1c0,0,0,0,0,0c0,0,0,0,0,0C27.1,11.1,27.2,11.1,27.2,11C27.2,11,27.2,11,27.2,11C27.2,11,27.2,11,27.2,11
								c0-0.1,0.1-0.1,0.1-0.1C27.3,11,27.2,11,27.2,11z"/>
							<path class="st1" d="M26.6,11.5C26.6,11.5,26.6,11.5,26.6,11.5C26.6,11.5,26.6,11.6,26.6,11.5C26.5,11.6,26.6,11.5,26.6,11.5
								z"/>
						</g>
					</g>
				</g>
			</g>
		</g>
	</g>
	<g>
		<g>
			<g>
				<g>
					<g class="st0">
						<g>
							<path class="st1" d="M7.9,5C7.9,5,7.9,5,7.9,5C7.9,5,7.9,5,7.9,5C7.9,5,7.9,5,7.9,5z"/>
							<path class="st1" d="M8,5.1C8,5.1,8,5.1,8,5.1C8,5.1,8,5.1,8,5.1C8,5.1,8,5.1,8,5.1z"/>
							<path class="st1" d="M8,5.3C8,5.2,8,5.2,8,5.3C8,5.2,8,5.2,8,5.3z"/>
							<path class="st1" d="M8,5.2C8,5.2,8,5.2,8,5.2C8,5.1,8,5.1,8,5.2C8,5.2,8,5.2,8,5.2C8,5.2,8,5.2,8,5.2z"/>
							<path class="st1" d="M8,5.2C7.9,5.2,7.9,5.1,8,5.2C7.9,5.1,7.9,5.1,8,5.2z"/>
							<path class="st1" d="M7.8,5.2C7.8,5.3,7.8,5.2,7.8,5.2c0,0.1,0,0.2,0.1,0.2c0,0,0.1,0.1,0.1,0.1c0,0.1,0,0.2,0,0.2
								C7.8,5.5,7.8,5.5,7.8,5.2c0,0,0-0.1,0-0.2c0,0,0-0.1,0-0.1c0,0,0,0.1,0.1,0.1C7.8,5.1,7.8,5.2,7.8,5.2z"/>
							<path class="st1" d="M7.7,4.4C7.7,4.4,7.7,4.5,7.7,4.4c0,0.1,0.1,0.2,0.1,0.2c0,0,0,0,0,0c0,0,0,0,0,0
								C7.7,4.5,7.7,4.5,7.7,4.4C7.7,4.4,7.7,4.4,7.7,4.4z"/>
							<path class="st1" d="M7.7,4.4C7.7,4.4,7.7,4.4,7.7,4.4C7.7,4.4,7.7,4.4,7.7,4.4C7.7,4.4,7.7,4.4,7.7,4.4
								C7.7,4.4,7.7,4.4,7.7,4.4z"/>
							<path class="st1" d="M8,5.6c0.1,0.2,0.1,0.3,0.2,0.5c0,0,0,0,0,0c0,0,0,0,0,0c0,0,0,0,0,0.1c0,0,0,0,0,0c0,0,0,0,0,0
								c0,0,0,0,0,0c0,0,0,0,0,0c0,0,0,0,0,0c0,0,0,0,0,0c0,0,0,0,0,0.1c0,0,0-0.1,0-0.1c0,0,0,0,0,0c0,0,0,0,0,0
								c0,0.1,0,0.1,0.1,0.2c0,0,0,0,0,0c0,0,0,0.1,0,0.1c0,0,0,0,0,0c0,0,0,0,0,0c0,0,0,0,0,0c0,0,0,0.1,0,0.1c0,0,0,0.1,0,0.1
								c0,0,0,0,0,0c0,0,0,0,0,0.1c0,0,0,0-0.1,0c0,0,0-0.1,0-0.1c0.1,0,0,0.1,0,0.1c0,0,0,0,0.1,0c0,0,0,0.1,0.1,0.1
								c0-0.1,0-0.1-0.1-0.1c0,0,0,0,0-0.1c0,0,0,0,0,0c0,0,0-0.1,0-0.1c0,0.1,0.1,0.2,0.1,0.2c0.2,0.5,0.3,1,0.5,1.6
								C9.2,8.8,9.3,9,9.4,9.3c0.2,0.5,0.3,1.1,0.6,1.6c0.1,0.2,0.2,0.6,0.3,0.8C10.3,12,10,12,10,12c-0.2-0.1-0.2-0.3-0.4-0.6
								c0.1,0.2,0.1-0.2-0.1-0.4C9.2,10.7,9.2,10.2,9,9.8C9,9.7,9,9.6,8.9,9.5C8.7,8.8,8.6,8.2,8.4,7.6C8.3,7.4,8.3,7.2,8.3,7.1
								c0-0.1-0.1-0.2-0.1-0.3c0-0.1-0.1-0.3-0.1-0.4c0,0.1,0,0.2,0.1,0.4c0,0.1,0-0.1,0-0.2c0,0-0.1-0.1-0.1-0.1c0-0.1,0-0.1,0-0.2
								c0,0,0,0,0,0c0-0.1,0-0.2,0-0.2C8.1,6.1,8,6,8,6c0,0,0,0,0-0.1c0,0,0,0,0,0c0,0,0,0,0.1,0c0,0,0,0,0-0.1c0,0,0,0,0,0.1
								c0,0,0,0-0.1,0C8,5.8,8,5.6,8,5.6C8,5.5,8,5.5,8,5.6c-0.1,0,0,0.1,0,0.1c0,0,0,0,0,0c0,0,0,0,0,0C8.1,5.7,8,5.6,8,5.6
								C8,5.5,8,5.5,8,5.6C8,5.5,8,5.5,8,5.6C8,5.5,8,5.5,7.9,5.5C8,5.5,8,5.6,8,5.6z"/>
							<path class="st1" d="M8.3,6.3C8.3,6.3,8.3,6.3,8.3,6.3C8.3,6.3,8.3,6.3,8.3,6.3C8.3,6.4,8.3,6.3,8.3,6.3z"/>
						</g>
					</g>
				</g>
			</g>
		</g>
	</g>
	<g>
		<g>
			<g>
				<g>
					<g class="st0">
						<g>
							<path class="st1" d="M2.3,9.1C2.3,9.2,2.3,9.2,2.3,9.1C2.3,9.2,2.3,9.2,2.3,9.1C2.3,9.2,2.3,9.2,2.3,9.1z"/>
							<path class="st1" d="M2.4,9.3C2.4,9.3,2.4,9.3,2.4,9.3C2.4,9.3,2.4,9.3,2.4,9.3C2.4,9.3,2.4,9.3,2.4,9.3z"/>
							<path class="st1" d="M2.4,9.4C2.4,9.4,2.4,9.3,2.4,9.4C2.4,9.3,2.4,9.4,2.4,9.4z"/>
							<path class="st1" d="M2.4,9.3C2.4,9.3,2.4,9.3,2.4,9.3C2.4,9.3,2.4,9.3,2.4,9.3C2.4,9.3,2.4,9.3,2.4,9.3
								C2.4,9.3,2.4,9.3,2.4,9.3z"/>
							<path class="st1" d="M2.4,9.3C2.3,9.3,2.3,9.3,2.4,9.3C2.3,9.3,2.3,9.3,2.4,9.3z"/>
							<path class="st1" d="M2.2,9.4C2.2,9.4,2.3,9.4,2.2,9.4c0.1,0.1,0.1,0.1,0.1,0.2c0,0,0.1,0,0.1,0.1c0,0.1,0.1,0.2,0,0.2
								C2.4,9.7,2.3,9.6,2.2,9.4c0,0-0.1-0.1-0.1-0.2c0,0,0,0-0.1-0.1c0,0,0.1,0.1,0.1,0.1C2.2,9.3,2.2,9.4,2.2,9.4z"/>
							<path class="st1" d="M1.9,8.7C1.9,8.7,1.9,8.7,1.9,8.7C2,8.7,2,8.8,2,8.9c0,0,0,0,0,0c0,0,0,0,0,0C1.9,8.8,1.9,8.7,1.9,8.7
								C1.9,8.7,1.9,8.7,1.9,8.7z"/>
							<path class="st1" d="M1.8,8.6C1.9,8.6,1.9,8.7,1.8,8.6C1.9,8.7,1.9,8.7,1.8,8.6C1.9,8.7,1.8,8.6,1.8,8.6
								C1.8,8.6,1.8,8.6,1.8,8.6z"/>
							<path class="st1" d="M2.6,9.7c0.1,0.2,0.2,0.3,0.3,0.4c0,0,0,0,0,0c0,0,0,0,0,0c0,0,0,0,0,0.1c0,0,0,0,0,0c0,0,0,0,0,0
								c0,0,0,0,0,0c0,0,0,0,0,0c0,0,0,0,0,0c0,0,0,0,0,0c0,0,0,0,0,0.1c0,0,0,0,0-0.1c0,0,0,0,0,0c0,0,0,0,0,0c0,0,0.1,0.1,0.1,0.1
								c0,0,0,0,0,0c0,0,0,0.1,0.1,0.1c0,0,0,0,0,0c0,0,0,0,0,0c0,0,0,0,0,0c0,0,0.1,0.1,0.1,0.1c0,0,0,0.1,0,0.1c0,0,0,0,0,0
								c0,0,0,0,0,0.1c0,0-0.1,0-0.1,0c0,0,0-0.1-0.1-0.1c0.1,0,0,0.1,0.1,0.1c0,0,0,0,0.1,0c0,0,0.1,0.1,0.1,0.1
								c0-0.1-0.1-0.1-0.1-0.1c0,0,0,0,0-0.1c0,0,0,0,0,0c0,0,0-0.1,0-0.1c0.1,0.1,0.1,0.1,0.2,0.2c0.3,0.4,0.6,0.9,1,1.3
								c0.2,0.3,0.4,0.5,0.6,0.7c0.4,0.5,0.6,0.9,1.1,1.4c0.2,0.2,0.4,0.5,0.5,0.7c0.1,0.3-0.2,0.3-0.2,0.3c-0.3,0-0.2-0.2-0.5-0.5
								c0.2,0.2,0-0.2-0.2-0.3c-0.4-0.2-0.5-0.7-0.8-1c-0.1-0.1-0.1-0.2-0.2-0.3c-0.4-0.5-0.7-1.1-1.1-1.6c-0.1-0.2-0.2-0.3-0.2-0.5
								C3.2,11,3.1,10.9,3,10.8c-0.1-0.1-0.1-0.2-0.2-0.3C2.9,10.6,3,10.7,3,10.8c0.1,0.1,0-0.1,0-0.2c0,0-0.1,0-0.1-0.1
								c0-0.1,0-0.1-0.1-0.2c0,0,0,0,0,0c0-0.1,0-0.2-0.1-0.2c0,0-0.1-0.1-0.1-0.1c0,0,0,0,0-0.1c0,0,0,0,0,0c0,0,0,0,0.1,0
								c0,0,0,0-0.1-0.1c0,0,0,0,0.1,0.1c0,0,0,0-0.1,0c0-0.1-0.1-0.2-0.1-0.4C2.5,9.6,2.5,9.6,2.6,9.7c-0.1,0,0,0.1,0.1,0.1
								c0,0,0,0,0,0c0,0,0,0,0,0C2.6,9.8,2.6,9.7,2.6,9.7C2.5,9.7,2.5,9.6,2.6,9.7C2.5,9.6,2.5,9.6,2.6,9.7c-0.1,0-0.1-0.1-0.1-0.1
								C2.5,9.6,2.6,9.7,2.6,9.7z"/>
							<path class="st1" d="M3,10.3C3,10.3,3,10.3,3,10.3C3,10.3,3,10.3,3,10.3C3,10.4,3,10.3,3,10.3z"/>
						</g>
					</g>
				</g>
			</g>
		</g>
	</g>
	<g>
		<g>
			<path class="st2" d="M4.4,26.9c1.1-4,0.8-8.1,4.2-8c4.1-0.9,9.6,0.4,12,0c3.3,0.8,3.4,1.3,4,4c1,4.2,1.1,4.1,1.1,4.1L4.4,26.9z"
				/>
			<g>
				<g>
					<path class="st3" d="M5.1,23.4c0.1-0.5,0.2-1,0.3-1.5c0,0-0.1-0.1-0.1-0.1c-0.1,0.5-0.2,1-0.3,1.5C5,23.3,5.1,23.3,5.1,23.4z"
						/>
					<path class="st3" d="M4.6,26.4c0.4-1.6,0.6-3.3,1.1-4.9c0.1-0.4,0.3-0.9,0.4-1.3c1-1.2,2.3-1.7,3.7-1.7
						c3.6-0.4,7.2,0.5,10.8,0.3c0,0,0.1-0.1,0.1-0.1c-2.6,0.1-5.1-0.3-7.6-0.4c-1.5-0.1-2.9,0-4.4,0.2c-0.4,0-0.9,0-1.3,0.1
						c-0.8,0.3-1.2,0.9-1.6,1.6c-0.9,1.8-1,4.2-1.5,6.1C4.4,26.5,4.6,26.5,4.6,26.4z"/>
					<path class="st3" d="M4.9,26.3c0.3-1.4,0.6-2.7,0.9-4.1c0.2-2.1,1.9-2.8,5-2.2c2.2-1.3,4.5-1.7,6.9-1.3c2.2,0.2,5.2-0.2,6.5,2
						c0,0,0.1-0.1,0.1-0.1c-1-1.8-3-2-5-2.1C15.8,18.5,12.5,18,9,18.4c-1,0.1-1.5,0.1-2.3,0.8c-0.3,0.3-0.5,0.7-0.7,1.1
						c-0.9,1.8-1,4.2-1.5,6.1C4.5,26.6,4.9,26.4,4.9,26.3z"/>
					<path class="st3" d="M4.9,27.1c0.3-1.4,0.6-2.7,0.9-4.1C5.8,22.5,6,22,6.1,21.6c0.1-0.8,0.6-1.3,1.5-1.5c1.6-1.3,3.5-1.6,5.7-1
						c0.8,0.1,1.5,0.1,2.3,0.2c1.5,0.1,3.1,0.4,4.6,0.3c0.5-0.1,0.9,0,1.4,0.2c1,0.1,1.6,0.8,1.8,2c1,1,1.5,2.2,1.5,3.6
						c0.1,0.4,0.2,0.8,0.3,1.2c0.1,0.3,0.1,1,0.3,1.2c0-0.1,0.1-0.2,0.1-0.4c-3.6,0.1-7.2-0.2-10.8-0.3C11.4,27.1,7.9,27,4.4,27
						c0,0-0.1,0.1-0.1,0.1c3.1,0.1,6.3,0.1,9.4,0.2c2.4,0,4.7,0.1,7.1,0.1c1.5,0,3.4-0.2,4.9,0.4c0.1,0,0.2-0.3,0.1-0.4
						c-0.4-0.2-0.7-2.8-0.8-3.2c-0.2-0.9-0.3-1.9-0.7-2.8c-0.5-1.2-1.6-1.6-2.8-2c-1-0.3-2-0.1-3-0.2c-1.4-0.1-2.7-0.2-4.1-0.3
						c-1.1-0.1-2.2-0.1-3.3-0.1c-1,0.1-2.3,0-3.3,0.4c-0.3,0.1-0.8,0.4-1,0.7c-0.7,0.8-1,2-1.2,3c-0.3,1.4-0.6,2.7-0.9,4.1
						C4.7,27.2,4.9,27.2,4.9,27.1z"/>
					<path class="st3" d="M4.5,26.9c0.3-1.1,0.5-2.2,0.7-3.4c0.2-1,0.4-1.9,0.7-2.8c1.3-1.4,3-2,4.8-1.8c1.5-0.2,2.9-0.1,4.4,0.1
						c1.3,0.1,2.6,0.2,3.9,0.3c1.5-0.4,2.6,0.2,3.3,1.9c1.5,0.9,2.2,2.2,2.2,3.8c0.1,0.6,0.3,1.3,0.4,1.9c0.2,0.4,0.1,0.5-0.1,0.2
						c-0.3,0-0.7,0-1,0c-2.7-0.1-5.4-0.1-8.2-0.2c-4-0.1-7.9-0.1-11.9-0.2c-0.2,0,0,0.3,0.1,0.3c3.5,0.1,7.1,0.1,10.6,0.1
						c2.2,0,4.5,0.1,6.7,0.1c1.3,0,2.6,0,3.8,0.3c0.1,0,0.2-0.3,0.1-0.4c-0.5-0.7-0.6-2.4-0.8-3.2c-0.2-0.9-0.3-2-0.7-2.9
						c-0.5-1.2-1.6-1.5-2.7-1.9c-1-0.3-2-0.1-3-0.2c-1.4-0.1-2.7-0.2-4.1-0.3c-1.1-0.1-2.3-0.1-3.4-0.1c-1,0.1-2.4,0-3.3,0.4
						c-0.3,0.1-0.8,0.4-1,0.7c-0.7,0.7-1,2.1-1.2,3c-0.3,1.4-0.6,2.7-0.9,4.1C4.3,27,4.5,27,4.5,26.9z"/>
					<path class="st3" d="M25,25.8c0-0.2,0.3,1.1,0.3,1.2c-0.4-0.1-0.9-0.2-1.3-0.2c-1.1-0.1-2.3-0.1-3.4-0.2
						c-5.5-0.3-11-0.2-16.6-0.4c-0.2,0,0.1,0.3,0.2,0.3c7.1,0.2,14.2,0.1,21.2,0.5c0,0,0,0,0,0c-0.1-0.1-0.3-1.3-0.3-1.2
						C25.2,25.8,25,25.8,25,25.8z"/>
					<path class="st3" d="M4.9,26.7c0.3-1.1,0.5-2.2,0.7-3.4c0.3-3.4,2.9-5,7.7-4.6c2.1-0.1,4.1,0.4,6.2,0.5c1-0.2,1.9-0.1,2.8,0.3
						c1.6,1.5,2.6,3.3,2.8,5.4c0,0.1,0.7,2.1,0.5,2.3c0,0,0,0.1,0,0.1c-0.3-0.4-0.7-0.5-1.3-0.3c-2.3-0.1-4.6-0.1-6.9-0.2
						c-4.4-0.1-8.7-0.1-13.1-0.2c-0.2,0,0,0.2,0.1,0.2C8,26.9,11.5,27,15.1,27c2.2,0,4.5,0.1,6.7,0.1c1.3,0,2.6,0,3.9,0.3
						c0.1,0,0.2-0.3,0.1-0.3c-0.1-0.1-0.2-0.6-0.2-0.8c-0.2-0.8-0.4-1.6-0.6-2.4c-0.2-0.9-0.3-2-0.7-2.9c-1-2.2-3.9-1.9-5.9-2
						c-2.5-0.1-5-0.5-7.5-0.3c-1,0.1-2.4,0-3.3,0.4c-0.8,0.3-1.2,1-1.6,1.7c-0.9,1.8-1,4.2-1.5,6.2C4.4,27,4.8,26.8,4.9,26.7z"/>
					<path class="st3" d="M25.3,26.9c-7-0.6-14-0.4-21-0.7c-0.2,0,0,0.2,0.1,0.2c7,0.1,14,0.2,21,0.5C25.4,26.9,25.3,26.9,25.3,26.9
						z"/>
					<path class="st3" d="M23.3,20.4c1,1.8,1.1,4.1,1.6,6.1c0.3,1.3,0.3,0.7-1.1,0.6c-6.7-0.4-13.4-0.3-20-0.6
						c-0.2,0,0.1,0.3,0.2,0.3c3.1,0.1,6.2,0.1,9.4,0.1c2.3,0,4.7,0.1,7,0.1c1.6,0.1,3.3,0,4.8,0.3c0.1,0,0.2-0.1,0.1-0.2
						c-0.6-0.8-0.6-2.2-0.8-3.2c-0.3-1.3-0.4-2.5-1.1-3.7C23.4,20.3,23.3,20.4,23.3,20.4z"/>
					<path class="st3" d="M4.6,27.2c0.5-2.2,0.6-5.3,2.1-7.1c0.8-0.9,3.3-0.9,4.2-0.9c1.9-0.1,3.7,0.1,5.5,0.3
						c0.7,0.1,1.3,0.1,2,0.2c0.8,0.1,1.6,0.1,2.4,0c1.2,1.3,2.4,2.7,3.7,4c0.2,0.8,0.3,1.6,0.5,2.4c0.1,0.4,0.1,1.5,0.5,1.8
						c0-0.1,0.1-0.3,0.1-0.4c-3.6,0.1-7.2-0.2-10.8-0.3c-3.5-0.1-7.1-0.1-10.6-0.2c0,0-0.1,0.1-0.1,0.1c3.1,0.1,6.3,0.1,9.4,0.2
						c2.4,0,4.7,0.1,7.1,0.1c1.5,0,3.5-0.2,4.9,0.4c0.1,0,0.2-0.4,0.1-0.4c-0.1-0.4-0.3-0.7-0.3-1.1c-0.2-1-0.5-1.9-0.7-2.9
						c-0.1-0.6-0.2-1.5-0.5-2c-0.2-0.6-0.5-0.9-1.1-1.3c-1.7-1.1-3.7-0.7-5.6-0.8c-2.2-0.2-4.3-0.5-6.5-0.4c-1.9,0.1-4,0-4.9,1.9
						c-0.9,1.8-1,4.2-1.5,6.2C4.5,27.1,4.6,27.1,4.6,27.2z"/>
					<path class="st3" d="M5.1,26.7c0.7-3,0.5-6.1,3.9-7.7c2.3-0.3,4.6-0.3,6.8-0.1c1.3,0.1,2.6,0.2,3.9,0.3c1-0.2,1.9-0.1,2.8,0.3
						c1.6,1.5,2.5,3.3,2.7,5.4c0,0,0.5,1.9,0.5,2.1c-0.1,0.6,0.5-0.1-0.2,0.1c-0.8-0.1-1.7-0.1-2.5-0.1c-1.4-0.1-2.8-0.1-4.2-0.2
						c-4.8-0.1-9.5-0.1-14.3-0.2c-0.1,0-0.1,0.2,0,0.2c3.1,0.1,6.3,0.1,9.4,0.1c2.4,0,4.7,0.1,7.1,0.2c1.6,0.1,3.3,0,4.9,0.3
						c0.1,0,0.1-0.1,0.1-0.2c-0.9-1.9-0.7-4.3-1.5-6.2c-0.2-0.6-0.6-1-1.1-1.3c-1.5-0.9-3.1-0.7-4.8-0.8c-2.5-0.1-5-0.5-7.4-0.3
						c-0.9,0.1-2.5,0-3.3,0.4c-0.8,0.3-1.3,1-1.7,1.7c-0.9,1.8-1,4.2-1.5,6.2C4.6,27,5.1,26.8,5.1,26.7z"/>
					<path class="st3" d="M4.5,26.5c0.3-1.4,0.6-2.7,0.9-4.1C5.4,22,5.6,21.5,5.7,21c0.1-0.8,0.6-1.3,1.5-1.5c1-0.9,2.1-1.2,3.4-1
						c0.7,0,1.5,0,2.2,0c1.4,0.1,2.9,0.2,4.3,0.3c2,0.2,5.5-0.3,6.5,2c0.7,1.6,0.8,3.7,1.2,5.4c0,0,0.2,0.7,0.2,0.8
						c-0.2,0.3,1.2-0.5-0.3-0.1c-0.1,0-0.9-0.1-1-0.1c-0.8,0-1.7-0.1-2.5-0.1c-5.8-0.2-11.7-0.2-17.5-0.4c-0.1,0,0.2,0.3,0.3,0.3
						c7,0.3,14.2-0.4,21.2,0.5c0,0,0.1-0.1,0.1-0.1c-0.4-0.4-0.5-2-0.6-2.4c-0.3-1.2-0.4-2.7-0.9-3.9c-0.5-1.2-2-1.9-3.3-2
						c-0.5-0.1-1,0-1.5,0.1c-1,0-1.9-0.1-2.9-0.2c-2.6-0.2-5.1-0.3-7.7-0.1c-1.4,0.2-0.9-0.1-1.7,0.5c-0.7,0.4-0.6,0.4-1.1,1.3
						c-0.9,1.8-1,4.2-1.5,6.1C4.3,26.6,4.4,26.6,4.5,26.5z"/>
					<path class="st3" d="M4.7,26.5c0.7-3,0.6-6.2,4-7.7c2.2-0.3,4.5-0.3,6.7-0.1c0.7,0.1,1.4,0.1,2.1,0.2c2.6-0.1,4.8,0.8,6.7,2.9
						c0.2,1,0.4,2,0.6,3c0,0.1,0.7,2.1,0.6,2.3c0-0.1-1.2-0.1-1.2-0.1c-2.3-0.1-4.6-0.2-6.9-0.3c-4.4-0.1-8.7-0.1-13.1-0.3
						c-0.2,0,0.1,0.3,0.2,0.3c7,0.3,14.2-0.4,21.1,0.5c0.1,0,0.1-0.1,0-0.2c-0.1-0.1-0.2-0.6-0.2-0.8c-0.2-0.8-0.4-1.6-0.5-2.4
						c-0.2-1.1-0.3-2.7-1.1-3.6c-1.3-1.6-3.6-1.3-5.4-1.4c-2.5-0.1-5-0.5-7.5-0.4c-1,0.1-2.5,0-3.4,0.4c-0.7,0.3-1.2,1-1.6,1.7
						c-0.9,1.8-1,4.2-1.5,6.2C4.3,26.7,4.7,26.6,4.7,26.5z"/>
					<path class="st3" d="M5.1,26.9c0.3-1.1,0.5-2.2,0.7-3.4c0.3-3.4,2.9-5,7.7-4.6c2.1-0.1,4.1,0.5,6.2,0.5c1-0.2,1.9-0.1,2.8,0.3
						c1.4,1.3,2.3,2.8,2.5,4.5c0.1,0.7,0.3,1.4,0.5,2.1c0.1,0.4,0.2,0.7,0.3,1.1c0,0.1,0,0.1,0.1,0.1c-0.4-0.1-0.9-0.2-1.3-0.3
						C21.9,26.8,19,27,16.4,27c-3.9-0.1-7.9-0.1-11.8-0.2c0,0-0.1,0.1-0.1,0.1C8,27,11.5,27,15.1,27.1c2.3,0,4.6,0.1,6.8,0.2
						c1.3,0,2.7-0.1,3.9,0.3c0.1,0,0.2-0.2,0.1-0.3c-0.4-0.2-1-4.1-1-4.1c-0.1-0.6-0.2-1.4-0.5-2c-0.1-0.3-0.3-0.6-0.5-0.8
						c-1.1-1.2-3-1.2-4.5-1.2c-2.8,0-5.5-0.5-8.3-0.4c-0.9,0.1-2.5,0-3.3,0.4C7,19.5,6.5,20,6.2,20.8c-0.8,1.9-1,4.2-1.5,6.2
						C4.7,27.1,5,27,5.1,26.9z"/>
					<path class="st3" d="M12.9,18.9c2,0.1,4.1,0.2,6.1,0.5c5.3,0.7,4.9,2.9,5.7,6.4c0.1,0.4,0.1,1.7,0.5,1.9c0-0.1,0.1-0.2,0.1-0.3
						c-7.1-0.3-14.3-0.3-21.5-0.6c-0.2,0,0,0.2,0.1,0.2C7.5,27,11,27,14.6,27.1c2.3,0,4.5,0.1,6.8,0.2c1.3,0,2.6,0,3.9,0.3
						c0.1,0,0.2-0.2,0.1-0.3c-0.1-0.2-0.2-0.6-0.2-0.8c-0.3-1.1-0.5-2.2-0.7-3.3c-0.2-0.9-0.3-2-0.9-2.8c-0.6-0.7-1.4-0.9-2.2-1.1
						c-0.8-0.2-1.3-0.1-2.1-0.1c-2,0-4.1-0.3-6.2-0.5C12.9,18.7,12.9,18.9,12.9,18.9z"/>
				</g>
			</g>
		</g>
		<g>
			<path class="st4" d="M8,20c1.1-0.3,1.3-0.7,6.7-0.7C9,20,6.7,21.6,5.6,25.8C5.4,24.7,6.5,20.4,8,20z"/>
			<g>
				<g>
					<path class="st5" d="M8.4,20.4c0.7-0.2,1.4-0.4,2.1-0.5c0.3,0,2.5-0.3,2.5-0.2c0-0.1-3.2,1-3.7,1.3c-0.8,0.4-1.5,0.9-2.1,1.6
						c0,0-1,1.5-1,1.5c-0.5,0.2-0.2-0.4-0.2-0.6C6.5,22.2,7,21,8.3,20.2c0,0,0-0.1-0.1-0.1c-1.9,1.2-2.5,3.7-2.6,5.9
						c0,0,0.1,0.1,0.1,0c1.8-5.3,4.7-5.8,9.4-6.4c0.1,0-0.1-0.2-0.2-0.2c-2.3,0-4.5,0.1-6.7,0.7C8.1,20.3,8.3,20.4,8.4,20.4z"/>
					<path class="st5" d="M8.1,20.2c0.7-0.2,1.4-0.4,2.1-0.5c0.8-0.1,1.7-0.1,2.5-0.2c-0.6,0.2-1.1,0.4-1.7,0.6
						c-1.5,0.4-3,1-4.1,2.3c-0.9,2-1.2,2.1-0.9,0.2c0.3-1.1,0.9-2,1.9-2.6c0,0,0-0.1-0.1-0.1c-1.9,1.2-2.4,3.7-2.6,5.9
						c0,0.1,0.1,0.1,0.1,0c0.5-1.5,1-2.9,2.2-4c1.8-1.6,4.8-2.1,7.1-2.4c0.1,0,0-0.1-0.1-0.1c-2.3,0-4.5,0.1-6.7,0.7
						C7.9,20.1,8,20.3,8.1,20.2z"/>
					<path class="st5" d="M8.1,19.9c1.1-0.3,2.1-0.6,3.2-0.6c0.5,0,1,0,1.5-0.1c-0.8,0.5-1.7,0.8-2.7,0.9c-1.1,0.5-2.2,1-3,2
						c-0.1,1.2-0.5,1.7-1.3,1.5c0.3-1.5,1.1-2.8,2.4-3.9c0,0,0-0.1-0.1-0.1c-1.9,1.2-2.5,3.7-2.6,5.9c0,0,0.1,0.1,0.1,0.1
						c0.5-1.5,1-2.9,2.2-4c1.8-1.6,4.8-2,7.1-2.4c0,0,0-0.1,0.1-0.1C12.5,19.2,10.4,19.2,8.1,19.9C8.1,19.8,8.1,19.9,8.1,19.9z"/>
					<path class="st5" d="M8.3,20.2c0.7-0.2,1.4-0.4,2.1-0.5c0.6-0.1,3.2-0.3,0.8,0.4c-1.1,0.3-1.7,0.4-2.7,1.2
						c-1,0.7-1.7,1.6-2.2,2.7C6,22.3,6.7,21,8.2,20c0.1,0-0.1-0.1-0.2,0c-1.9,1.2-2.4,3.7-2.5,5.8c0,0.1,0.1,0.1,0.1,0
						c1.5-4.5,2.7-5.5,9.3-6.4c0.1,0-0.1-0.2-0.2-0.2c-2.3,0-4.5,0.1-6.7,0.7C8,20,8.2,20.2,8.3,20.2z"/>
					<path class="st5" d="M8.3,19.9c0.7-0.2,1.4-0.4,2.1-0.5c0.3,0,2.5-0.2,2.5-0.2c-0.2,0.1-0.4,0.2-0.6,0.3
						c-0.7,0.2-1.4,0.4-2.1,0.6c-1.5,0.6-2.7,1.4-3.5,2.8c-1,1.5-0.1,0.6-0.7,0.8c-0.6,0-0.5-0.4,0.3-1.2c0.2-1.1,0.9-2,1.9-2.6
						c0.1,0,0-0.1-0.1-0.1c-1.9,1.2-2.5,3.7-2.6,5.9c0,0,0,0.1,0.1,0.1c0.6-3,2.2-4.8,4.8-5.3c1.4-0.7,3-1,4.5-1.1
						c0.1,0,0.1-0.1,0-0.1c-2.3,0-4.5,0-6.7,0.7C8.2,19.8,8.2,19.9,8.3,19.9z"/>
					<path class="st5" d="M12.1,19.7c-2.3,0.6-4.3,1.2-5.7,3.4c-0.4,0.6-1,1.3-0.6,0.1c0.4-1.3,0.9-2.4,2.1-3.2c0,0,0-0.1,0-0.1
						c-2,1.2-2.5,3.7-2.7,5.9c0,0.1,0.1,0.1,0.1,0c0.3-1.3,0.8-2.4,1.6-3.4C8.2,20.9,9.9,20.1,12.1,19.7
						C12,19.8,12.1,19.7,12.1,19.7z"/>
					<path class="st5" d="M8.2,20.4c1.1-0.3,2.1-0.5,3.2-0.6c1.7-0.2,2-0.2,0.8,0.2c-1.4,0.3-2.7,0.8-3.9,1.5
						c0.5-0.3-3.3,2.6-2.2,2.7c-0.7,0-0.7-0.4,0.1-1.3c0.3-1.1,1-2,1.9-2.6c0,0,0-0.1,0-0.1c-2,1.2-2.5,3.7-2.6,5.9
						c0,0.1,0.1,0.1,0.1,0c1.8-5.3,4.7-5.7,9.4-6.4c0.1,0,0-0.2-0.1-0.2c-2.3,0-4.5,0.1-6.7,0.7C8,20.3,8.2,20.4,8.2,20.4z"/>
					<path class="st5" d="M8.5,20.1c0.7-0.2,1.4-0.4,2.1-0.5c0.8-0.1,1.7-0.1,2.5-0.2c-0.9,0.3-1.9,0.6-2.8,0.9
						c-0.6,0.3-1.2,0.6-1.7,0.9c-1,0.7-1.7,1.6-2.2,2.6C6.3,24,6.2,24,6,23.9C6.3,22.3,7.1,21,8.4,20c0.1,0-0.1-0.1-0.2,0
						c-1.9,1.2-2.4,3.7-2.5,5.8c0,0,0.1,0.1,0.1,0.1c0.5-2.6,2-4.5,4.5-5.4c1.6-0.5,3.2-0.9,4.9-1c0.1,0-0.1-0.2-0.2-0.2
						c-2.3,0-4.5,0-6.7,0.7C8.1,20,8.4,20.2,8.5,20.1z"/>
					<path class="st5" d="M8,20c0.7-0.2,1.4-0.4,2.1-0.5c0.3,0,3.8-0.7,2,0.1c-0.7,0.2-1.4,0.4-2.1,0.6c-1.2,0.4-2.2,1.1-3,2
						c-0.1,1.2-0.5,1.7-1.3,1.5C6,22.2,6.8,20.9,8,19.9c0,0,0-0.1-0.1-0.1C6,21,5.5,23.5,5.3,25.7c0,0.1,0.1,0.1,0.1,0
						c0.5-1.5,1-2.9,2.2-4c1.9-1.8,4.5-2,7.1-2.4c0,0,0.1-0.1,0-0.1C12.4,19.2,10.3,19.3,8,20C8,19.9,8,20,8,20z"/>
					<path class="st5" d="M8.2,20c0.7-0.2,1.4-0.4,2.1-0.5c0.5-0.1,3.8-0.6,1.9,0.1c-2,0.8-3.7,0.9-5.1,2.6c-0.9,2-1.2,2.1-0.9,0.3
						c0.3-1.1,1-2,1.9-2.6c0.1,0,0-0.1-0.1-0.1c-1.9,1.2-2.5,3.7-2.5,5.9c0,0.1,0.1,0.1,0.1,0c0.6-1.7,1.2-3.5,2.9-4.6
						c1.9-1.2,4.2-1.5,6.4-1.8c0.1,0,0-0.1-0.1-0.1c-2.3,0-4.5,0-6.7,0.7C8,19.9,8.2,20,8.2,20z"/>
					<path class="st5" d="M8.5,20.3c0.9-0.3,1.7-0.5,2.7-0.6c0.8-0.1,3-0.4,1.2,0.1c-2,0.6-1.6,0.4-2.9,1.1c-1.1,0.6-0.6,0.2-1.5,1
						c-0.2,0.2-0.4,0.4-0.6,0.6C7,23,6.7,23.5,6.4,24c0,0-0.4,0-0.4,0c-0.8-0.7,2.3-3.8,2.3-3.9c0.1-0.1,0-0.1-0.1-0.1
						c-1.9,1.2-2.5,3.7-2.6,5.9c0,0,0.1,0.1,0.1,0.1c1.9-5.5,5-5.8,9.4-6.4c0.1,0-0.2-0.2-0.2-0.2c-2.3,0-4.5,0.1-6.7,0.7
						C8.1,20.1,8.4,20.3,8.5,20.3z"/>
					<path class="st5" d="M8,20.2c0.7-0.2,1.4-0.4,2.1-0.5c0.3,0,2.5-0.2,2.5-0.2c0,0.2-2,0.7-1.7,0.6c-1.3,0.4-2.5,0.8-3.5,1.7
						c-0.3,0.2-1.7,2.1-1.7,2.1c-0.3-0.2,0.3-1.5,0.5-1.9c0.4-0.9,0.8-1.5,1.7-2c0,0,0-0.1,0-0.1c-1.9,1.2-2.5,3.8-2.7,5.9
						c0,0.1,0.1,0.1,0.1,0c0.5-1.5,1-2.9,2.2-4c1.9-1.8,4.5-2,7.1-2.4c0,0,0.1-0.1,0-0.1C12.4,19.5,10.2,19.5,8,20.2
						C8,20.2,7.9,20.2,8,20.2z"/>
				</g>
			</g>
		</g>
		<g>
			<path class="st6" d="M24.7,25.1c-0.8,0.2-1.9,0-5.3,0c3.6-0.2,4.2-0.1,5-2.5C24.6,23.2,25.1,24.4,24.7,25.1z"/>
			<g>
				<g>
					<path class="st7" d="M24.6,25.1c-0.9,0.1-2.7,0.3-3.5,0c-0.7-0.3,1-0.2,1.4-0.3c0.5-0.2,0.6-0.1,1-0.5c0.2-0.5,0.6-0.8,1.1-0.8
						c0.2,0.6,0.2,1.1,0,1.7c0,0,0.1,0,0.1,0c0.2-1,0-1.6-0.3-2.6c0,0,0,0,0,0c-1,2.3-2.9,2.3-5.1,2.4c0,0-0.1,0.1,0,0.1
						C21.1,25.1,22.9,25.4,24.6,25.1C24.6,25.2,24.7,25.1,24.6,25.1z"/>
					<path class="st7" d="M24.5,25c-0.7,0.1-1.4,0.1-2.2,0c-0.5,0-1,0-1.5-0.1c-0.8,0.6,2.4-0.5,2-0.3c0.2-0.1,0.4-0.1,0.6-0.4
						c0.2-0.5,0.5-0.8,1.1-0.9c0.2,0.6,0.2,1.1,0,1.7c0,0,0.1,0.1,0.1,0c0.2-1,0-1.6-0.3-2.5c0,0,0,0-0.1,0
						c-0.2,0.6-0.4,1.2-0.8,1.6c-1.4,0.6-2.8,0.8-4.3,0.7c-0.1,0,0.1,0.1,0.1,0.1c1.7,0.1,3.6,0.3,5.3,0.1
						C24.7,25.1,24.5,25,24.5,25z"/>
					<path class="st7" d="M24.5,24.8c-0.6,0.1-3.3,0.3-3.5,0c-0.1-0.2-1.9,0.4,1.1-0.1c0.6-0.1,1-0.2,1.5-0.6
						c0.2-0.2,0.3-0.4,0.5-0.7c0.2-0.5,0.4,0,0.6,1.5c0,0,0.1,0,0.1,0c0.2-1,0-1.7-0.3-2.6c0,0,0,0,0,0c-1.4,1.8-3.1,2.6-5.2,2.4
						c-0.1,0,0.1,0.2,0.1,0.2c1.7,0.1,3.5,0.3,5.3,0C24.7,24.9,24.5,24.8,24.5,24.8z"/>
					<path class="st7" d="M24.6,25c-0.7,0.1-1.4,0.1-2.2,0c-1.9-0.1-1.8,0-0.3-0.2c0.6-0.1,1-0.2,1.5-0.6c0,0,0,0,0,0
						C24.1,23.1,24.5,23.4,24.6,25c0.1,0.1,0.1,0.2,0.1,0.1c0.2-0.9,0-1.6-0.3-2.5c0,0-0.1,0-0.1,0c-1,2.4-2.8,2.3-5,2.3
						c-0.1,0,0,0.1,0.1,0.1c1.7,0.1,3.6,0.3,5.3,0.1C24.8,25,24.7,24.9,24.6,25z"/>
					<path class="st7" d="M24.6,24.8c-0.7,0.1-1.4,0.1-2.2,0c-2.8-0.1-0.8,0,0.1-0.3c0.6-0.2,0.8-0.5,1.3-0.8
						c0.2-0.4,0.4-0.5,0.9-0.5c0.2,0.6,0.2,1.2,0,1.7c0,0,0.1,0,0.1,0c0.2-1,0-1.6-0.3-2.6c0,0,0,0-0.1,0c-0.4,1-0.6,1.5-1.6,1.9
						c-1.2,0.5-2.3,0.4-3.5,0.4c-0.1,0,0,0.1,0.1,0.1C21.1,24.9,22.9,25.1,24.6,24.8C24.7,24.9,24.6,24.8,24.6,24.8z"/>
					<path class="st7" d="M24.4,24.9c-0.7,0.1-1.4,0.1-2.2,0c-2.3-0.1-1.3,0-0.2-0.2c0.5-0.1,1.1-0.2,1.5-0.6c0.8-0.7,1.6-2,1.1,0.9
						c0,0,0.1,0,0.1,0c0.2-1,0-1.6-0.3-2.6c0,0,0,0,0,0c-0.4,1-0.6,1.5-1.6,2c-1.2,0.5-2.3,0.4-3.6,0.4c-0.1,0,0.1,0.1,0.1,0.1
						c1.7,0.1,3.6,0.3,5.3,0.1C24.6,25,24.4,24.9,24.4,24.9z"/>
					<path class="st7" d="M24.5,25.1c-0.7,0.1-1.4,0.1-2.2,0c-1.7-0.1-2,0.1-0.3-0.2c0.6-0.1,1-0.2,1.5-0.6c0.2-0.2,0.3-0.4,0.5-0.7
						c0.3-0.5,0.5,0.1,0.6,1.5c0,0,0.1,0,0.1,0c0.2-1,0-1.7-0.3-2.6c0,0,0,0,0,0c-0.2,0.9-0.7,1.6-1.5,2.1c-1.2,0.2-2.4,0.3-3.6,0.3
						c0,0,0,0.1,0,0.1C21,25.2,22.8,25.4,24.5,25.1C24.6,25.2,24.6,25.1,24.5,25.1z"/>
					<path class="st7" d="M24.7,24.9C24,25,23.3,25,22.5,25c-1.7-0.1-1.9,0-0.4-0.2c0.6-0.1,1-0.1,1.5-0.6c0,0,0,0,0,0
						c0.5-1.1,0.9-0.8,1.1,0.9c0,0,0.1,0,0.1,0c0.2-1,0-1.7-0.3-2.6c0,0-0.1,0-0.1,0c-0.2,0.9-0.7,1.5-1.5,2
						c-1.2,0.2-2.4,0.4-3.6,0.3c-0.1,0,0,0.1,0,0.1C21.2,25,23,25.2,24.7,24.9C24.8,25,24.7,24.9,24.7,24.9z"/>
					<path class="st7" d="M24.4,24.8c-0.7,0.1-1.4,0.1-2.2,0c-2.3-0.1-1.3,0-0.2-0.2c0.6-0.1,1-0.2,1.5-0.6c0.2-0.2,0.3-0.4,0.5-0.7
						c0.3-0.5,0.5,0,0.6,1.5c0,0,0.1,0,0.1,0c0.2-1,0-1.7-0.3-2.6c0,0,0,0,0,0c-0.3,1.5-1.2,2.3-2.5,2.2c-0.9,0.2-1.8,0.2-2.7,0.2
						c-0.1,0,0.1,0.2,0.2,0.2c1.7,0.1,3.6,0.3,5.3,0.1C24.6,25,24.5,24.8,24.4,24.8z"/>
					<path class="st7" d="M24.5,24.8c-0.7,0-1.5,0-2.2,0c-0.5,0-0.9,0-1.4-0.1c0.4-0.1,1.4-0.1,2-0.3c1-0.4,2.3-2.9,1.7,0.5
						c0,0,0.1,0,0.1,0c0.2-1,0-1.6-0.3-2.6c0,0-0.1,0-0.1,0c-0.4,0.9-0.6,1.5-1.6,1.9c-1.1,0.5-2.3,0.4-3.5,0.4
						c-0.1,0,0.1,0.1,0.1,0.2c1.7,0.1,3.6,0.3,5.3,0C24.7,25,24.6,24.8,24.5,24.8z"/>
					<path class="st7" d="M24.7,25c-1,0.1-2.8-0.3-3.7-0.1c0.8-0.2,1.6,0,2.3-0.5c0.9-0.6,2-2.4,1.4,0.7c0,0,0.1,0,0.1,0
						c0.2-1,0-1.6-0.3-2.6c0,0-0.1,0-0.1,0c-0.4,1-0.8,1.8-1.9,2.1c-0.9,0.3-2.2,0.2-3.2,0.2c0,0,0,0.1,0,0.1
						C21.1,25.1,23,25.3,24.7,25C24.7,25.1,24.7,25,24.7,25z"/>
					<path class="st7" d="M24.4,25c-0.9,0.1-1.9,0.1-2.8,0c-1.2-0.1-0.8,0,0.4-0.1c0.5-0.1,1.1-0.2,1.5-0.6c0.1-0.5,0.4-0.7,0.8-0.8
						c0.8-0.3,0.9,0.2,0.3,1.6c0,0,0.1,0,0.1,0c0.2-1,0-1.6-0.3-2.6c0,0,0,0,0,0c-0.3,0.8-0.6,1.7-1.5,2c-1.1,0.5-2.6,0.3-3.7,0.3
						c-0.1,0,0,0.1,0.1,0.1c1.7,0.1,3.6,0.3,5.3,0.1C24.6,25.1,24.4,25,24.4,25z"/>
				</g>
			</g>
		</g>
		<g>
			<polygon class="st8" points="14.5,21.1 9.4,25.2 9.7,25.6 			"/>
			<g>
				<g>
					<path class="st9" d="M13.5,20.4c-1.7,1.4-3.4,2.8-5.1,4.1c-0.1,0-0.2,0.2-0.1,0.3C8.6,25,8.8,25.3,9,25.6c0,0,0.1,0,0.2,0
						c0.5-0.4,0.6-0.5,1.2-1c0,0,0.1-0.1,0,0c-0.1,0.1-1.2,0.8-1.2,0.3c0-0.2,1.4-1.3,1.4-1.2c1.2-0.9,2.3-1.9,3.5-2.8
						C14.4,20.6,13.7,20.2,13.5,20.4z"/>
					<path class="st9" d="M12.8,20.8c-1.7,1.4-3.4,2.7-5.1,4.1c-0.1,0.1,0,0.2,0.1,0.3c0.3,0.2,0.6,0.4,0.9,0.7
						c0.1,0.1,0.4,0,0.5-0.1c0.3-0.2,0.7-0.4,0.9-0.7c0.1-0.1-0.1-0.5-0.1-0.5c-0.4,0.3-0.8,0.6-1.3,0.8c0.2,0,0.3,0,0.5,0
						c-0.4-0.7,1.4-1.6,1.8-2c1-0.8,2-1.6,3-2.4C14.3,20.8,13,20.5,12.8,20.8z"/>
					<path class="st9" d="M14,21.1c-1.7,1.4-3.4,2.8-5.1,4.1c-0.1,0.1,0,0.2,0.1,0.4c0.1,0.2,0.2,0.3,0.3,0.5c0,0.1,0.3,0.2,0.4,0.2
						c1.9-1.5,3.5-3.3,5.5-4.6c0.3-0.2,0-0.6-0.2-0.4c-1.3,1.1-2.4,2.3-3.8,3.3c-0.3,0.2-0.6,0.5-0.9,0.7c-0.5,0.7-0.9,0.7-1.2,0
						c0,0.1,0,0.2,0.1,0.4c1.7-1.4,3.4-2.8,5.1-4.1C14.3,21.4,14.1,21,14,21.1z"/>
					<path class="st9" d="M13.5,21c-1.7,1.4-3.4,2.8-5.1,4.1c-0.1,0.1-0.1,0.2,0,0.3C8.6,25.6,8.8,25.8,9,26c0.1,0.1,0.3,0,0.4-0.1
						c2-1.3,3.3-3.3,5.3-4.6c0.2-0.1,0.2-0.6,0-0.4c-1.7,1.6-3.6,3.3-5.5,4.6c0.1,0,0.3,0,0.4,0c-0.4-0.6,1.8-1.9,2.2-2.2
						c0.8-0.7,1.7-1.4,2.5-2.1C14.8,20.9,13.8,20.8,13.5,21z"/>
					<path class="st9" d="M13.3,22.4c0.5-0.5,1.1-1,1.6-1.4c0.1-0.1-0.2-0.4-0.3-0.3c-0.6,0.5-1.2,1-1.7,1.5
						C12.9,22.2,13.3,22.5,13.3,22.4z"/>
					<path class="st9" d="M14.1,20.8c-1.7,1.4-3.4,2.8-5.1,4.1c-0.1,0.1-0.1,0.3,0,0.4c0.1,0.1,0.3,0.3,0.4,0.4
						c0.1,0.1,0.2,0.2,0.3,0.1c1.8-1.4,3.4-3.1,5.3-4.4c0.3-0.2-0.2-0.6-0.5-0.4c-0.8,0.7-1.5,1.5-2.3,2.2c-0.2,0.2-2.6,2.1-2.6,2.1
						c0-0.1,2.3-1.9,2.3-1.9c0.8-0.7,1.7-1.4,2.5-2.1C14.8,21,14.3,20.6,14.1,20.8z"/>
					<path class="st9" d="M14,20.5c-1.7,1.4-3.4,2.8-5.1,4.1c-0.1,0.1-0.2,0.2-0.2,0.3C9,25.2,9,25.3,9.3,25.6c0,0,0,0,0,0
						c1.2-1,2.5-1.7,3.6-2.8c0.7-0.6,1.4-1.3,2.2-1.9c0.2-0.1-0.1-0.5-0.2-0.4c-0.9,0.8-1.8,1.6-2.8,2.4c-0.4,0.4-2.4,2.6-3,1.7
						C9.1,24.8,9.1,24.9,9,25c1.7-1.4,3.4-2.8,5.1-4.1C14.3,20.7,14.3,20.3,14,20.5z"/>
					<path class="st9" d="M14,21.8c0.2-0.2,0.4-0.3,0.6-0.5c0.1-0.1-0.1-0.4,0-0.5c-0.3,0.3-0.7,0.7-1.1,1
						C13.6,21.7,13.9,21.9,14,21.8z"/>
					<path class="st9" d="M14.4,20.7c-1.7,1.4-3.4,2.8-5.1,4.1c0,0-0.3,0.3-0.2,0.4c0.9,1,2.2-0.6,2.9-1.3c1.2-1,2.3-2,3.6-2.8
						c0.3-0.2-0.3-0.6-0.5-0.3c-0.9,0.8-1.7,1.5-2.6,2.3c-0.9,0.8-1.9,1.9-3,2.4c0.1,0.1,0.2,0.2,0.3,0.3c-0.2-0.3-0.3-0.6-0.5-1
						c-0.1,0.1-0.1,0.3-0.2,0.4c1.7-1.4,3.4-2.8,5.1-4.1C14.2,21.1,14.3,20.7,14.4,20.7z"/>
				</g>
			</g>
		</g>
		<g>
			<path class="st8" d="M18.7,21.3c-5.4,6.9-4.7,5.9-5.4,6.9c0.7-1-0.2,0.2,6.1-6.4L18.7,21.3z"/>
			<g>
				<g>
					<path class="st9" d="M17.4,21.3c-1.8,2.3-3.8,4.5-5.4,6.9c-0.2,0.3,0.8,0.3,0.9,0.1c0.3-0.4,0.6-0.6,0.9-0.8
						c0.1-0.1,0-0.3,0.1-0.3c-0.6,0.4-1.1,0.7-1.8,1c0.3,0.1,0.5,0.1,0.8,0.2c1.7-2.4,3.6-4.6,5.4-6.9
						C18.5,21.1,17.6,21.1,17.4,21.3z"/>
					<path class="st9" d="M18,21c-1.8,2.3-3.8,4.5-5.4,6.9c-0.2,0.2,0.2,0.5,0.3,0.3c0.4-0.6,1.2-1,1.7-1.4c0,0-0.3-0.2-0.3-0.1
						c-0.6,0.5-1,0.9-1.7,1.2c0.1,0.1,0.2,0.2,0.3,0.3c1.7-2.4,3.6-4.6,5.4-6.9C18.5,21,18.1,20.8,18,21z"/>
					<path class="st9" d="M18.2,21.5c-1.8,2.3-3.7,4.5-5.4,6.9c-0.1,0.1,0.1,0.3,0.3,0.2c2.2-2.2,4.6-4.3,6.8-6.5
						c0-0.1,0.1-0.2,0.1-0.2c-0.3-0.3-0.6-0.5-0.9-0.8c-0.1,0-0.1,0.3,0,0.3c0.2,0.2,0.3,0.3,0.5,0.5c-1.2,1.5-2.6,3-4,4.3
						c-0.8,0.8-1.8,1.3-2.6,2.1c0.1,0.1,0.2,0.1,0.3,0.2c1.7-2.4,3.6-4.6,5.4-6.9C18.6,21.6,18.3,21.4,18.2,21.5z"/>
					<path class="st9" d="M17.9,21.4c-1.8,2.3-3.7,4.5-5.4,6.9c-0.3,0.4,0.5,0.2,0.7,0.1c0.4-0.5,0.8-0.8,1.3-1.2
						c1.7-1.7,3.4-3.4,5.1-5.1c0,0,0.1-0.2,0-0.3c-0.2-0.1-0.5-0.3-0.7-0.5c-0.1-0.1-0.4,0-0.3,0.1c1.3,0.6-4.5,5.8-4.7,6
						c-0.5,0.3-0.9,0.7-1.4,1c0.2,0,0.4,0.1,0.7,0.1c1.7-2.4,3.6-4.6,5.4-6.9C18.8,21.2,18,21.2,17.9,21.4z"/>
					<path class="st9" d="M16.4,25.1c1.1-1.1,2.2-2.3,3.3-3.4c0,0,0-0.1,0-0.1c-0.2-0.3-0.5-0.5-0.8-0.8c-0.1-0.2-0.4,0.1-0.3,0.2
						c0.2,0.1,0.4,0.3,0.6,0.4c-0.9,1.3-1.9,2.4-3,3.5C16.1,24.9,16.4,25.1,16.4,25.1z"/>
					<path class="st9" d="M18.3,21.3c-1.8,2.3-3.7,4.5-5.4,6.9c-0.2,0.2,0.3,0.4,0.4,0.2c0.4-0.5,0.9-0.9,1.3-1.3
						c1.8-1.6,3.4-3.3,5.1-5c0.1-0.1,0.1-0.2,0-0.3c-0.3-0.2-0.5-0.3-0.8-0.5c-0.2-0.1-0.4,0.1-0.2,0.3c0.9,0.6-4.7,5.7-5.8,6.7
						c0.1,0.1,0.3,0.1,0.4,0.2c1.7-2.4,3.6-4.6,5.4-6.9C18.8,21.2,18.4,21.1,18.3,21.3z"/>
					<path class="st9" d="M18.3,21c-1.8,2.3-3.7,4.5-5.4,6.9c-0.1,0.1-0.1,0.4,0.1,0.2c0.5-0.5,1.2-0.9,1.8-1.4
						c1.8-1.6,3.5-3.4,5.2-5.2c0.1-0.1,0-0.2-0.1-0.2c-0.3-0.2-0.5-0.4-0.7-0.7c-0.2-0.2-0.4,0.2-0.3,0.3c0.2,0.1,0.5,0.3,0.6,0.5
						c0.1,0.2-3.5,3.8-4.2,4.4c-0.6,0.6-1.3,1.3-2,1.8c-0.3,0.3,0.1-0.1,0.2-0.2c0.2-0.2,0.4-0.5,0.5-0.7c1.5-1.9,3-3.7,4.5-5.6
						C18.5,21.1,18.4,20.8,18.3,21z"/>
					<path class="st9" d="M17.6,23.8c0.6-0.6,1.2-1.3,1.8-1.9c0,0,0,0,0,0c-0.2-0.4-0.4-0.6-0.8-0.9c0,0-0.3,0.1-0.3,0.2
						c0.3,0.3,0.7,0.5,1,0.7c0-0.1-0.1-0.2-0.1-0.3c-0.6,0.7-1.3,1.3-1.9,2C17.4,23.6,17.6,23.8,17.6,23.8z"/>
					<path class="st9" d="M18.5,21.2c-1.8,2.3-3.7,4.5-5.4,6.9c0,0.1,0,0.3,0,0.3c0.2-0.2,0.3-0.3,0.5-0.5c-0.1,0-0.2,0.1-0.3,0.1
						c0.7-0.1,1-0.5,1.5-1c1.9-1.7,3.7-3.4,5.4-5.2c0.1-0.1,0-0.2,0-0.3c-0.3-0.2-0.7-0.4-1-0.7c-0.2-0.1-0.3,0.2-0.2,0.3
						c0.7,0.6-4.5,6.1-6,6.9c0,0.1,0,0.2,0,0.3c1.7-2.4,3.6-4.6,5.4-6.9C18.5,21.4,18.5,21.2,18.5,21.2z"/>
				</g>
			</g>
		</g>
		<g>
			<g>
				<linearGradient id="SVGID_1_" gradientUnits="userSpaceOnUse" x1="13.8054" y1="23.0233" x2="15.3842" y2="31.9767">
					<stop  offset="0" style="stop-color:#FFFFFF"/>
					<stop  offset="1" style="stop-color:#000000"/>
				</linearGradient>
				<rect x="2.6" y="25" class="st10" width="24" height="5"/>
				<g>
					<g>
						<path class="st11" d="M26.4,30.1c-4.4,0-8.9,0-13.3,0c-2.6,0-5.3,0-7.9,0c-0.8,0-1.7,0-2.5,0c-0.4-0.2-0.4-0.5-0.2-1
							c0,0-0.1,0-0.1,0c0,0.3,0,0.7-0.1,1c0,0,0,0,0,0c8,0,16,0,24,0C26.3,30.2,26.4,30.1,26.4,30.1z"/>
						<path class="st11" d="M26.2,29.4c-8,0-16,0-24,0c0.1,0.1,0.2,0.2,0.3,0.3c0-1.2,0.1-2.5,0.1-3.7c0-0.4-0.1-1.1,0.2-1.3
							c0.4-0.2,2.6,0.1,2.7,0.1c6.6,0.2,13.2,0.1,19.8,0.1c0,0,0.1-0.1,0.1-0.1c-4.4,0-8.8,0-13.3-0.1c-2.2,0-4.4,0-6.7-0.1
							c-0.9,0-1.9,0.1-2.8-0.2c-0.1,0-0.1,0.1-0.1,0.2c0,1.5,0.2,3.4-0.3,4.8c0,0.1,0.2,0.3,0.3,0.3c8,0,16,0,24,0
							C26.6,29.7,26.3,29.4,26.2,29.4z"/>
						<path class="st11" d="M26.6,25.2c0,0,0.1-0.1,0.1-0.1C26.6,25.1,26.6,25.2,26.6,25.2z"/>
						<path class="st11" d="M26.5,29.4c-5.3,0-10.5,0-15.8,0c-2.4,0-4.9,0.1-7.4,0c-0.8,0-0.4,0.1-0.6-0.5c-0.2-0.6,0.1-2,0.1-2.5
							c0-0.3-0.1-1.5,0.1-1.7c0.2-0.2,1.1,0,1.3,0c2.7,0.1,5.5,0.1,8.2,0.1c3.6,0,7.2,0,10.8,0.1c1,0,2-0.1,3,0c0.8,0.1,0.8,0,0.7,1
							c0,0,0.1,0,0.1,0c0-0.3,0-0.7,0.1-1c0,0,0,0,0,0c-3.6,0-7.2,0-10.7-0.1c-2.5,0-4.9-0.1-7.4-0.1c-1.8,0-4.2,0.4-5.9-0.3
							c-0.1,0-0.2,0.2-0.2,0.2c0,1.6,0.1,3.3-0.2,4.8c0,0.1,0.1,0.2,0.2,0.2c8,0,16,0,24,0C26.7,29.6,26.5,29.4,26.5,29.4z"/>
						<path class="st11" d="M26.6,30.1c-6.4,0-12.8,0-19.2,0c-0.9,0-1.8,0-2.7,0c-0.6,0-1.2,0-1.7,0c-0.4-0.2-0.2,0.1-0.3-0.3
							c-0.1-0.3,0.1-1.6,0.1-1.7c0-0.7-0.1-1.7,0.1-2.4C3.1,25,3,25.2,4.2,25.3c1.5,0.1,3.1,0.1,4.6,0.1c4.1,0.1,8.2,0.1,12.3,0.1
							c1.5,0,3.1,0,4.6,0c0.3,0,0.7,0,1,0c0.1,0.1,0.2,0.3,0.1,0.5c0.3,0.5,0,1.9-0.1,2.5c0,0.7,0,1.3-0.1,2c0,0.1,0.2,0,0.2-0.1
							c0-1.4-0.2-3.5,0.3-4.9c0-0.1-0.2-0.2-0.3-0.2c-4,0-8,0-11.9,0c-4,0-8,0.2-12-0.2c0,0,0,0,0,0c-0.1,1.3-0.1,2.7-0.2,4
							c0,0.3,0,0.7-0.1,1c0.3,0,0.6,0,0.8,0c1.3,0,2.6,0,3.9,0C13.6,30.2,20.1,30.2,26.6,30.1C26.5,30.2,26.5,30.1,26.6,30.1z"/>
						<path class="st11" d="M26.2,29.8c-6,0-12.1,0-18.1,0c-1.5,0-3,0-4.5,0c-0.3,0-0.9,0.1-1.1-0.1c-0.3-0.3,0.1-1.9,0.1-2.3
							c0-0.5-0.2-2,0.4-2.4c0.4-0.3,2.1,0.1,2.5,0.1c1.8,0,3.6,0.1,5.4,0.1c3.7,0,7.4,0.1,11,0.1c1.3,0,2.6-0.1,3.9,0
							c0.8,0.1,0.7-0.1,0.7,0.9c0,1.4,0,2.7-0.2,4.1c0,0.2,0.2-0.1,0.2-0.2c0-1.6-0.1-3.3,0.2-4.8c0,0-0.1-0.2-0.1-0.2
							c-4,0-8,0-12,0c-3.9,0-8.1,0.3-12-0.2c0,0-0.1,0.1-0.1,0.1c0,1.6,0.2,3.4-0.3,4.9c0,0.1,0.2,0.2,0.2,0.2c8,0,16,0,24,0
							C26.5,30.1,26.3,29.8,26.2,29.8z"/>
						<path class="st11" d="M26.4,27.9c0,0.7,0,1.3-0.1,2c0,0,0.1,0.1,0.1,0c0-0.7,0.1-1.3,0.1-2C26.5,27.9,26.4,27.9,26.4,27.9z"/>
						<path class="st11" d="M26.5,29.8c-6.4,0-12.8,0-19.2,0c-1.1,0-2.3,0-3.4,0c-1.2,0-1,0.2-1.1-0.5c-0.1-0.4-0.1-4,0.2-4.2
							c0.3-0.2,2.6,0,2.6,0c1.4,0,2.9,0,4.3,0c4.1,0,8.2,0.1,12.3,0.1c1.3,0,2.7-0.1,4,0c0.7,0.1,0.6-0.1,0.6,0.8
							c0,1.4,0,2.8-0.1,4.1c0,0.1,0.2,0,0.2-0.1c0-1.5-0.2-3.4,0.2-4.9c0-0.1-0.2-0.2-0.3-0.2c-3.6,0-7.1,0-10.7,0
							c-2.5,0-4.9,0-7.4,0c-1.9,0-3.9,0.2-5.8-0.2c-0.1,0-0.1,0.2-0.1,0.2c0,1.6,0.1,3.3-0.2,4.8c0,0,0.1,0.2,0.2,0.2c8,0,16,0,24,0
							C26.7,30,26.6,29.8,26.5,29.8z"/>
						<path class="st11" d="M26.5,29.6c0,0.1,0,0.2,0,0.3c0,0,0.1,0.1,0.1,0.1c0-0.1,0-0.2,0-0.3C26.6,29.6,26.5,29.6,26.5,29.6z"/>
						<path class="st11" d="M26,29.7c-8,0-16,0-24,0c0.1,0.1,0.2,0.2,0.3,0.2c0-0.9,0.1-1.7,0.1-2.6c0-0.6-0.2-1.9,0.2-2.3
							c0.3-0.2,0.7-0.2,1.2,0C4.9,25,6,25,7.2,25c2.4,0.1,4.8,0.1,7.2,0.1c2.4,0,4.8,0,7.2,0c1.1,0,2.3,0,3.4,0c0.3,0,0.7,0,1,0
							c0.3-0.1,0.4,0,0.3,0.3c0,0.2,0,0.5,0,0.7c-0.1,1.3-0.1,2.7-0.2,4c0,0.1,0.2,0,0.2-0.1c0.1-1.3,0.1-2.6,0.2-4
							c0-0.3,0-0.6,0.1-0.9c0.1-0.2,0-0.3-0.3-0.2c-0.3,0-0.7,0-1,0c-0.8,0-1.6,0-2.5,0c-4,0-8,0-12-0.1c-2.7,0-5.6,0.1-8.3-0.3
							c0,0-0.1,0-0.1,0c-0.1,1.5,0.3,3.6-0.3,4.9c0,0.1,0.2,0.3,0.3,0.3c8,0,16,0,24,0C26.3,29.9,26.1,29.7,26,29.7z"/>
						<path class="st11" d="M2.7,25.2c2.2,0.5,4.7,0.3,7,0.3c4.1,0.1,8.2,0.1,12.3,0.1c1.1,0,2.3,0,3.4,0c1.2,0,1-0.2,1.1,0.5
							c0.1,0.7-0.1,1.7-0.1,2.5c0,0.7,0,1.3-0.1,2c0,0.1,0.2-0.1,0.2-0.2c0-1.5-0.1-3.3,0.3-4.8c0,0-0.1-0.2-0.2-0.2
							c-8,0-16.1,0.3-24.1-0.3C2.6,25.1,2.7,25.1,2.7,25.2z"/>
						<path class="st11" d="M26.7,29.7c-6.4,0-12.8,0-19.2,0c-1.1,0-2.3,0-3.4,0c-1.2,0-1,0.2-1.2-0.5c-0.1-0.4-0.1-4,0.3-4.2
							c0.3-0.2,2.6,0,2.6,0c1.4,0,2.9,0,4.3,0.1c4.1,0.1,8.2,0.1,12.3,0.1c1.3,0,2.7-0.2,4,0c0.8,0.1,0.6-0.1,0.6,0.8
							c0,1.4,0,2.7-0.1,4.1c0,0.1,0.1,0,0.1,0c0-1.5-0.3-3.5,0.3-4.9c0-0.1-0.2-0.2-0.3-0.2c-3.6,0-7.1,0-10.7,0c-2.5,0-4.9,0-7.4,0
							c-1.9,0-4,0.2-5.8-0.2c-0.1,0-0.1,0.2-0.1,0.2c0,1.6,0,3.3-0.2,4.9c0,0,0.1,0.1,0.1,0.1c8,0,16,0,24,0
							C26.8,29.9,26.8,29.7,26.7,29.7z"/>
						<path class="st11" d="M26.1,29.5c-8,0-16,0-24,0c0.1,0.1,0.2,0.2,0.3,0.3c0-0.9,0-1.7,0-2.6c0-0.6-0.2-2,0.2-2.3
							c0.4-0.2,0.7-0.2,1.2,0c1.1,0,2.3,0.1,3.4,0.1c2.4,0,4.8,0.1,7.2,0.1c2.4,0,4.8,0,7.2,0c1.1,0,2.3,0,3.4,0c0.3,0,0.7,0,1,0
							c0.5,0.4,0.2,1.3,0.2,1.9c0,1-0.1,2-0.2,3.1c0,0.1,0.1,0,0.1-0.1c0.1-1.7,0.1-3.4,0.3-5c0,0,0,0,0,0c-4,0-8,0-12-0.1
							c-2.4,0-4.8,0-7.3-0.1c-1.5,0-3.3,0.1-4.8-0.2c-0.1,0-0.1,0.1-0.1,0.1c0,1.5,0.3,3.4-0.3,4.8c0,0.1,0.2,0.3,0.3,0.3
							c8,0,16,0,24,0C26.5,29.9,26.2,29.5,26.1,29.5z"/>
						<path class="st11" d="M26.4,29.5c-8,0-16,0-24,0c0.1,0.1,0.2,0.2,0.3,0.3c0-0.9,0-1.7,0-2.6c0-0.6-0.2-2,0.2-2.3
							c0.4-0.1,0.7-0.1,1.1,0c1.2,0,2.3,0,3.5,0c2.4,0,4.9,0,7.3,0.1c2.4,0,4.8,0,7.2,0c1.1,0,2.3,0,3.4,0c0.3,0,0.7,0,1,0
							c0.5,0.3,0.2,1.4,0.1,1.9c0,1-0.1,2-0.1,3.1c0,0.1,0.1,0,0.1-0.1c0.1-1.6,0-3.3,0.2-4.9c0,0-0.1-0.1-0.1-0.1c-4,0-8,0-12,0
							c-2.4,0-4.8,0-7.3,0c-1.5,0-3.3,0.2-4.7-0.2c-0.1,0-0.2,0.2-0.2,0.2c0,1.5,0.2,3.3-0.2,4.8c0,0.1,0.2,0.3,0.3,0.3
							c8,0,16,0,24,0C26.7,29.8,26.5,29.5,26.4,29.5z"/>
						<path class="st11" d="M26.7,29.9c-4.9,0-9.7,0-14.6,0c-2.7,0-5.4,0-8.1,0c-1.4,0-1.3-0.1-1.2-1.4c0-0.7,0-1.4,0.1-2.1
							c0-0.3,0-0.6,0.2-0.9c0-0.4,0.2-0.6,0.7-0.4c0.8-0.2,2.2,0.1,3,0.1c1.5,0,3,0.1,4.5,0.1c5.3,0.1,10.6,0,15.8,0.1
							c-0.1-0.1-0.2-0.2-0.3-0.2c0,1.7,0,3.5-0.1,5.2c0,0.1,0.2,0,0.2-0.1c0-1.4-0.3-3.5,0.3-4.9c0-0.1-0.2-0.3-0.3-0.3
							c-4,0-8,0-11.9,0c-2.4,0-4.8,0-7.2,0c-1.5,0-3.2,0.1-4.7-0.2c-0.1,0-0.1,0.1-0.1,0.1c-0.1,1.7-0.1,3.3-0.2,5c0,0,0,0,0,0
							c8,0,16,0,24,0C26.7,30,26.7,29.9,26.7,29.9z"/>
						<path class="st11" d="M26,29.8c-6.4,0-12.8,0-19.2,0c-1.3,0-2.6,0.1-3.9,0c-0.8-0.1-0.7,0-0.6-0.9C2.4,28.1,2,25.4,2.8,25
							c0.5-0.2,2,0.1,2.5,0.1c2.2,0.1,4.4,0.1,6.6,0.1c3.6,0,7.2,0,10.8,0.1c0.8,0,1.6,0,2.5,0c0.3,0,0.7,0,1,0
							c0.5,0.4,0.1,0,0.2,0.6c0.2,0.7-0.1,1.7-0.1,2.4c0,0.7-0.1,1.3-0.1,2c0,0.1,0.2,0,0.2-0.1c0.1-1.6,0-3.3,0.2-4.9c0,0,0,0,0,0
							c-4,0-8,0-12-0.1c-4,0-8.1,0.1-12.1-0.3c0,0,0,0,0,0c-0.1,1.5,0.2,3.5-0.3,5c0,0,0.1,0.2,0.2,0.2c8,0,16,0,24,0
							C26.3,30,26.1,29.8,26,29.8z"/>
					</g>
				</g>
			</g>
			<g>
				<linearGradient id="SVGID_2_" gradientUnits="userSpaceOnUse" x1="5.1481" y1="26.4905" x2="5.4955" y2="28.4605">
					<stop  offset="0" style="stop-color:#FFFFFF"/>
					<stop  offset="1" style="stop-color:#000000"/>
				</linearGradient>
				<circle class="st12" cx="5.3" cy="27.5" r="1"/>
				<g>
					<g>
						<path class="st11" d="M6.1,28c-1.4-0.7-1.7-1.1-0.9-1.1c0.6-0.2,1,0.2,1.2,1c0,0.1,0.1,0,0.1,0c-0.4-2.1-3-0.6-2,0.7
							c0.7,0.9,1.6,0.2,1.8-0.6C6.4,27.7,6.2,27.9,6.1,28z"/>
						<path class="st11" d="M5.9,27.8c0.1,0,0.1-0.1,0.2-0.1c0,0.1,0.1,0.1,0.1,0c-0.4-1.8-2.7-1.1-2.1,0.4c0.5,1.3,1.8,0.4,2.1-0.5
							C6.3,27.4,5.9,27.7,5.9,27.8z"/>
						<path class="st11" d="M5.9,27.4c0,0.1-2.4,1-1.7-0.4c0.1-0.4,0.3-0.5,0.8-0.4c0.7-0.4,1.1-0.1,1.1,0.7c0,0,0.1,0,0.1,0
							c-0.5-2.1-3.1-0.7-2,0.7c0.7,0.9,1.6,0.3,1.8-0.6C6.1,27.3,6,27.3,5.9,27.4z"/>
						<path class="st11" d="M6.2,27.7c-1.8,0.9-1.8,0.9,0.2-0.1c0,0.1,0.1,0.1,0.1,0c-0.3-1.2-2.1-1.7-2.2-0.1
							c-0.1,1.6,1.8,1.3,2.1,0.1C6.4,27.4,6.2,27.6,6.2,27.7z"/>
						<path class="st11" d="M5.7,28.1c-3.1,0.6,0-4.2,0.7-0.8c0,0,0.1,0,0.1,0c-0.2-0.9-1-1.6-1.9-0.8c-1.1,1,0.1,2,1.1,1.8
							C5.7,28.2,5.7,28.1,5.7,28.1z"/>
						<path class="st11" d="M5.7,27.6c-1.7-0.3-2.1-0.7-1.1-1c0.6-0.4,1.1-0.2,1.3,0.9c0,0,0.1,0,0.1,0c-0.4-1.7-2.8-1.1-2.2,0.4
							c0.5,1.3,1.8,0.5,2-0.4C6,27.4,5.7,27.6,5.7,27.6z"/>
						<path class="st11" d="M5.9,28c-1.8,0.8-1.8,0.8,0.3-0.1c0,0.1,0.1,0,0.1,0c-0.3-1.5-2.4-1.4-2.2,0.2c0.3,1.5,1.8,0.8,2.1-0.2
							C6.3,27.7,6,28,5.9,28z"/>
						<path class="st11" d="M6.3,27.6c0.1,0,0.1,0,0.2-0.1c0,0.1,0.1,0,0.1,0c-0.3-1.2-2.2-1.6-2.2,0c-0.1,1.5,1.7,1.3,2.1,0.1
							C6.5,27.5,6.4,27.5,6.3,27.6z"/>
						<path class="st11" d="M5.8,27.5c-1.4,1-1.7,1-0.7-0.1c0.4-1.1,0.7-1.1,1,0.1c0,0,0.1,0,0.1,0c-0.4-1.7-2.8-1.1-2.2,0.4
							c0.5,1.3,1.8,0.5,2-0.4C6.1,27.3,5.9,27.4,5.8,27.5z"/>
						<path class="st11" d="M6.1,27.5c-1.5,0.8-2,0.7-1.4-0.3c0.1-1.1,0.7-1,1.7,0.2c0,0.1,0.1,0,0.1,0c-0.1-0.6-0.4-1.1-1.1-1.1
							c-0.7,0-1.3,0.6-1.2,1.3C4.4,29,6,28.5,6.2,27.4C6.3,27.3,6.1,27.4,6.1,27.5z"/>
						<path class="st11" d="M6.3,27.8c0.1,0,0.1-0.1,0.2-0.1c0,0.1,0.1,0,0.1,0c-0.3-1.3-2.2-1.6-2.2,0c-0.1,1.5,1.7,1.3,2.1,0.1
							C6.5,27.6,6.3,27.7,6.3,27.8z"/>
						<path class="st11" d="M5.7,27.8c0.1,0,0.2-0.1,0.3-0.1c0,0.1,0.1,0,0.1,0c-0.4-1.8-2.8-1.1-2.1,0.4c0.5,1.3,1.8,0.5,2.1-0.4
							C6.1,27.5,5.7,27.7,5.7,27.8z"/>
					</g>
				</g>
			</g>
			<g>
				<linearGradient id="SVGID_3_" gradientUnits="userSpaceOnUse" x1="14.0656" y1="26.6239" x2="14.4129" y2="28.5939">
					<stop  offset="0" style="stop-color:#FFFFFF"/>
					<stop  offset="1" style="stop-color:#000000"/>
				</linearGradient>
				<circle class="st13" cx="14.2" cy="27.6" r="1"/>
				<g>
					<g>
						<path class="st11" d="M15.1,28.1c-1.4-0.7-1.7-1.1-0.9-1.1c0.6-0.2,1,0.2,1.2,1c0,0.1,0.1,0,0.1,0c-0.4-2.1-3-0.6-2,0.7
							c0.7,0.9,1.6,0.2,1.8-0.6C15.3,27.9,15.1,28,15.1,28.1z"/>
						<path class="st11" d="M14.8,27.9c0.1,0,0.1-0.1,0.2-0.1c0,0.1,0.1,0.1,0.1,0c-0.4-1.8-2.7-1.1-2.1,0.4
							c0.5,1.3,1.8,0.4,2.1-0.5C15.2,27.5,14.8,27.8,14.8,27.9z"/>
						<path class="st11" d="M14.9,27.5c0,0.1-2.4,1-1.7-0.4c0.1-0.4,0.3-0.5,0.8-0.4c0.7-0.4,1.1-0.1,1.1,0.7c0,0,0.1,0,0.1,0
							c-0.5-2.1-3.1-0.7-2,0.7c0.7,0.9,1.6,0.3,1.8-0.6C15,27.4,14.9,27.4,14.9,27.5z"/>
						<path class="st11" d="M15.1,27.8c-1.8,0.9-1.8,0.9,0.2-0.1c0,0.1,0.1,0.1,0.1,0c-0.3-1.2-2.1-1.7-2.2-0.1
							c-0.1,1.6,1.8,1.3,2.1,0.1C15.4,27.5,15.1,27.7,15.1,27.8z"/>
						<path class="st11" d="M14.6,28.3c-3.1,0.6,0-4.2,0.7-0.8c0,0,0.1,0,0.1,0c-0.2-0.9-1-1.6-1.9-0.8c-1.1,1,0.1,2,1.1,1.8
							C14.7,28.4,14.6,28.2,14.6,28.3z"/>
						<path class="st11" d="M14.6,27.8c-1.7-0.3-2.1-0.7-1.1-1c0.6-0.4,1.1-0.2,1.3,0.9c0,0,0.1,0,0.1,0c-0.4-1.7-2.8-1.1-2.2,0.4
							c0.5,1.3,1.8,0.5,2-0.4C14.9,27.5,14.6,27.7,14.6,27.8z"/>
						<path class="st11" d="M14.9,28.2C13,29,13.1,29,15.1,28c0,0.1,0.1,0,0.1,0c-0.3-1.5-2.4-1.4-2.2,0.2c0.3,1.5,1.8,0.8,2.1-0.2
							C15.2,27.8,14.9,28.1,14.9,28.2z"/>
						<path class="st11" d="M15.2,27.7c0.1,0,0.1,0,0.2-0.1c0,0.1,0.1,0,0.1,0c-0.3-1.2-2.2-1.6-2.2,0c-0.1,1.5,1.7,1.3,2.1,0.1
							C15.4,27.7,15.3,27.7,15.2,27.7z"/>
						<path class="st11" d="M14.7,27.6c-1.4,1-1.7,1-0.7-0.1c0.4-1.1,0.7-1.1,1,0.1c0,0,0.1,0,0.1,0c-0.4-1.7-2.8-1.1-2.2,0.4
							c0.5,1.3,1.8,0.5,2-0.4C15,27.4,14.8,27.6,14.7,27.6z"/>
						<path class="st11" d="M15,27.6c-1.5,0.8-2,0.7-1.4-0.3c0.1-1.1,0.7-1,1.7,0.2c0,0.1,0.1,0,0.1,0c-0.1-0.6-0.4-1.1-1.1-1.1
							c-0.7,0-1.3,0.6-1.2,1.3c0.2,1.5,1.8,0.9,2.1-0.1C15.2,27.4,15,27.5,15,27.6z"/>
						<path class="st11" d="M15.2,27.9c0.1,0,0.1-0.1,0.2-0.1c0,0.1,0.1,0,0.1,0c-0.3-1.3-2.2-1.6-2.2,0c-0.1,1.5,1.7,1.3,2.1,0.1
							C15.4,27.8,15.2,27.9,15.2,27.9z"/>
						<path class="st11" d="M14.6,27.9c0.1,0,0.2-0.1,0.3-0.1c0,0.1,0.1,0,0.1,0c-0.4-1.8-2.8-1.1-2.1,0.4c0.5,1.3,1.8,0.5,2.1-0.4
							C15,27.6,14.7,27.9,14.6,27.9z"/>
					</g>
				</g>
			</g>
			<g>
				<linearGradient id="SVGID_4_" gradientUnits="userSpaceOnUse" x1="23.8886" y1="26.4905" x2="24.2359" y2="28.4605">
					<stop  offset="0" style="stop-color:#FFFFFF"/>
					<stop  offset="1" style="stop-color:#000000"/>
				</linearGradient>
				<circle class="st14" cx="24.1" cy="27.5" r="1"/>
				<g>
					<g>
						<path class="st11" d="M24.9,28c-1.4-0.7-1.7-1.1-0.9-1.1c0.6-0.2,1,0.2,1.2,1c0,0.1,0.1,0,0.1,0c-0.4-2.1-3-0.6-2,0.7
							c0.7,0.9,1.6,0.2,1.8-0.6C25.2,27.7,24.9,27.9,24.9,28z"/>
						<path class="st11" d="M24.6,27.8c0.1,0,0.1-0.1,0.2-0.1c0,0.1,0.1,0.1,0.1,0c-0.4-1.8-2.7-1.1-2.1,0.4
							c0.5,1.3,1.8,0.4,2.1-0.5C25,27.4,24.7,27.7,24.6,27.8z"/>
						<path class="st11" d="M24.7,27.4c0,0.1-2.4,1-1.7-0.4c0.1-0.4,0.3-0.5,0.8-0.4c0.7-0.4,1.1-0.1,1.1,0.7c0,0,0.1,0,0.1,0
							c-0.5-2.1-3.1-0.7-2,0.7c0.7,0.9,1.6,0.3,1.8-0.6C24.8,27.3,24.7,27.3,24.7,27.4z"/>
						<path class="st11" d="M24.9,27.7c-1.8,0.9-1.8,0.9,0.2-0.1c0,0.1,0.1,0.1,0.1,0c-0.3-1.2-2.1-1.7-2.2-0.1
							c-0.1,1.6,1.8,1.3,2.1,0.1C25.2,27.4,24.9,27.6,24.9,27.7z"/>
						<path class="st11" d="M24.4,28.1c-3.1,0.6,0-4.2,0.7-0.8c0,0,0.1,0,0.1,0c-0.2-0.9-1-1.6-1.9-0.8c-1.1,1,0.1,2,1.1,1.8
							C24.5,28.2,24.4,28.1,24.4,28.1z"/>
						<path class="st11" d="M24.4,27.6c-1.7-0.3-2.1-0.7-1.1-1c0.6-0.4,1.1-0.2,1.3,0.9c0,0,0.1,0,0.1,0c-0.4-1.7-2.8-1.1-2.2,0.4
							c0.5,1.3,1.8,0.5,2-0.4C24.7,27.4,24.5,27.6,24.4,27.6z"/>
						<path class="st11" d="M24.7,28c-1.8,0.8-1.8,0.8,0.3-0.1c0,0.1,0.1,0,0.1,0c-0.3-1.5-2.4-1.4-2.2,0.2c0.3,1.5,1.8,0.8,2.1-0.2
							C25,27.7,24.7,28,24.7,28z"/>
						<path class="st11" d="M25.1,27.6c0.1,0,0.1,0,0.2-0.1c0,0.1,0.1,0,0.1,0c-0.3-1.2-2.2-1.6-2.2,0c-0.1,1.5,1.7,1.3,2.1,0.1
							C25.2,27.5,25.1,27.5,25.1,27.6z"/>
						<path class="st11" d="M24.6,27.5c-1.4,1-1.7,1-0.7-0.1c0.4-1.1,0.7-1.1,1,0.1c0,0,0.1,0,0.1,0c-0.4-1.7-2.8-1.1-2.2,0.4
							c0.5,1.3,1.8,0.5,2-0.4C24.8,27.3,24.6,27.4,24.6,27.5z"/>
						<path class="st11" d="M24.8,27.5c-1.5,0.8-2,0.7-1.4-0.3c0.1-1.1,0.7-1,1.7,0.2c0,0.1,0.1,0,0.1,0c-0.1-0.6-0.4-1.1-1.1-1.1
							c-0.7,0-1.3,0.6-1.2,1.3c0.2,1.5,1.8,0.9,2.1-0.1C25,27.3,24.8,27.4,24.8,27.5z"/>
						<path class="st11" d="M25,27.8c0.1,0,0.1-0.1,0.2-0.1c0,0.1,0.1,0,0.1,0c-0.3-1.3-2.2-1.6-2.2,0c-0.1,1.5,1.7,1.3,2.1,0.1
							C25.2,27.6,25,27.7,25,27.8z"/>
						<path class="st11" d="M24.5,27.8c0.1,0,0.2-0.1,0.3-0.1c0,0.1,0.1,0,0.1,0c-0.4-1.8-2.8-1.1-2.1,0.4c0.5,1.3,1.8,0.5,2.1-0.4
							C24.8,27.5,24.5,27.7,24.5,27.8z"/>
					</g>
				</g>
			</g>
		</g>
	</g>
</g>
</svg>
